<?xml version="1.0" encoding="UTF-8" standalone="no"?>
<!-- Created with Inkscape (http://www.inkscape.org/) -->

<svg
   xmlns:dc="http://purl.org/dc/elements/1.1/"
   xmlns:cc="http://creativecommons.org/ns#"
   xmlns:rdf="http://www.w3.org/1999/02/22-rdf-syntax-ns#"
   xmlns:svg="http://www.w3.org/2000/svg"
   xmlns="http://www.w3.org/2000/svg"
   xmlns:xlink="http://www.w3.org/1999/xlink"
   xmlns:sodipodi="http://sodipodi.sourceforge.net/DTD/sodipodi-0.dtd"
   xmlns:inkscape="http://www.inkscape.org/namespaces/inkscape"
   width="72"
   height="72"
   id="svg3259"
   version="1.1"
   inkscape:version="0.48.2 r9819"
   sodipodi:docname="email.svg"
   inkscape:export-filename="C:\leonardo\cconv\ConvertitoreCoordinateLib\res\drawable-ldpi\email.png"
   inkscape:export-xdpi="45"
   inkscape:export-ydpi="45">
  <defs
     id="defs3261">
    <radialGradient
       inkscape:collect="always"
       xlink:href="#linearGradient3883"
       id="radialGradient3889"
       cx="57.07362"
       cy="-46.936584"
       fx="57.07362"
       fy="-46.936584"
       r="42.43737"
       gradientTransform="matrix(1,0,0,0.96341457,0,-1.7171953)"
       gradientUnits="userSpaceOnUse" />
    <linearGradient
       inkscape:collect="always"
       id="linearGradient3883">
      <stop
         style="stop-color:#000e7a;stop-opacity:1;"
         offset="0"
         id="stop3885" />
      <stop
         style="stop-color:#000e7a;stop-opacity:0;"
         offset="1"
         id="stop3887" />
    </linearGradient>
    <radialGradient
       inkscape:collect="always"
       xlink:href="#linearGradient3883"
       id="radialGradient10872"
       gradientUnits="userSpaceOnUse"
       gradientTransform="matrix(1,0,0,0.96341457,0,-1.7171953)"
       cx="57.07362"
       cy="-46.936584"
       fx="57.07362"
       fy="-46.936584"
       r="42.43737" />
    <filter
       inkscape:collect="always"
       id="filter11401">
      <feGaussianBlur
         inkscape:collect="always"
         stdDeviation="0.03654844"
         id="feGaussianBlur11403" />
    </filter>
  </defs>
  <sodipodi:namedview
     id="base"
     pagecolor="#ffffff"
     bordercolor="#666666"
     borderopacity="1.0"
     inkscape:pageopacity="0.0"
     inkscape:pageshadow="2"
     inkscape:zoom="7.9195959"
     inkscape:cx="5.7844751"
     inkscape:cy="52.471639"
     inkscape:document-units="px"
     inkscape:current-layer="layer1"
     showgrid="false"
     inkscape:window-width="1280"
     inkscape:window-height="962"
     inkscape:window-x="-8"
     inkscape:window-y="-8"
     inkscape:window-maximized="1" />
  <metadata
     id="metadata3264">
    <rdf:RDF>
      <cc:Work
         rdf:about="">
        <dc:format>image/svg+xml</dc:format>
        <dc:type
           rdf:resource="http://purl.org/dc/dcmitype/StillImage" />
        <dc:title></dc:title>
      </cc:Work>
    </rdf:RDF>
  </metadata>
  <g
     inkscape:label="Livello 1"
     inkscape:groupmode="layer"
     id="layer1"
     transform="translate(0,-980.36218)">
    <path
       sodipodi:type="arc"
       style="fill:#0f076e;fill-opacity:1"
       id="path3004-1"
       sodipodi:cx="57.07362"
       sodipodi:cy="-46.936584"
       sodipodi:rx="41.551636"
       sodipodi:ry="39.935177"
       d="m 98.625256,-46.936584 c 0,22.055589 -18.603301,39.9351764 -41.551636,39.9351764 -22.948335,0 -41.551636,-17.8795874 -41.551636,-39.9351764 0,-22.05559 18.603301,-39.935177 41.551636,-39.935177 22.948335,0 41.551636,17.879587 41.551636,39.935177 z"
       transform="matrix(0.85659497,0,0,0.88842844,-12.764842,1058.29)" />
    <path
       sodipodi:type="arc"
       style="fill:#c9e2ff;fill-opacity:0.96891192000000004;stroke:url(#radialGradient10872);"
       id="path3004-7"
       sodipodi:cx="57.07362"
       sodipodi:cy="-46.936584"
       sodipodi:rx="41.551636"
       sodipodi:ry="39.935177"
       d="m 98.625256,-46.936584 c 0,22.055589 -18.603301,39.9351764 -41.551636,39.9351764 -22.948335,0 -41.551636,-17.8795874 -41.551636,-39.9351764 0,-22.05559 18.603301,-39.935177 41.551636,-39.935177 22.948335,0 41.551636,17.879587 41.551636,39.935177 z"
       transform="matrix(0.80324566,0,0,0.84100109,-9.6566696,1056.0404)" />
    <path
       style="opacity:1;fill:none;stroke:#000e7a;stroke-width:1.40100873000000000;stroke-linecap:butt;stroke-linejoin:miter;stroke-miterlimit:4;stroke-opacity:1;stroke-dasharray:none"
       d="m 8.9285714,49.571429 c 77.1428576,0 77.1428576,0 77.1428576,0"
       id="path3013"
       inkscape:connector-curvature="0"
       transform="matrix(0.91861649,0,0,0.8659366,-7.6368211,975.0252)" />
    <path
       sodipodi:nodetypes="cac"
       style="opacity:1;fill:none;stroke:#000e7a;stroke-width:1.39999998000000000;stroke-linecap:butt;stroke-linejoin:miter;stroke-miterlimit:4;stroke-opacity:0.84313724999999984;stroke-dasharray:none;"
       d="m 47.5,7.4285714 c 0,17.6586886 0,28.0952386 0,42.1428576 0,12.619047 0,37.857142 0,37.857142"
       id="path3021"
       inkscape:connector-curvature="0"
       transform="matrix(0.88670025,0,0,0.8659366,-6.1208006,975.0252)" />
    <path
       style="opacity:1;fill:none;stroke:#000e7a;stroke-width:1.40139996999999990;stroke-linecap:butt;stroke-linejoin:miter;stroke-miterlimit:4;stroke-opacity:1;stroke-dasharray:none;filter:url(#filter11401)"
       d="m 16.678572,979.78864 c 4.274716,2.5 8.016372,5.87474 12.824149,7.5 5.974467,2.01965 12.61359,2.55865 19.029381,2.5 6.437977,-0.0589 13.00132,-0.90467 19.02938,-2.85714 4.229112,-1.3698 7.722069,-4.04762 11.583102,-6.07143"
       id="path3817-7"
       inkscape:connector-curvature="0"
       sodipodi:nodetypes="caaac"
       transform="matrix(0.88405317,0,0,0.9711073,-5.5394641,42.736858)" />
    <path
       style="opacity:1;fill:none;stroke:#000e7a;stroke-width:1.40139996999999990;stroke-linecap:butt;stroke-linejoin:miter;stroke-miterlimit:4;stroke-opacity:1;stroke-dasharray:none;marker-end:none;"
       d="m 20.357143,1032.3622 c 0,0 6.632912,-4.4193 10.357143,-5.7143 5.471722,-1.9027 11.353255,-3.0586 17.142857,-2.8571 5.627181,0.1958 11.13778,2.0021 16.428572,3.9285 C 68.037724,1029.0855 75,1033.0765 75,1033.0765"
       id="path3860"
       inkscape:connector-curvature="0"
       sodipodi:nodetypes="caaac"
       transform="matrix(0.9064097,0,0,0.9266937,-7.3761916,84.707912)" />
    <path
       style="opacity:1;fill:none;stroke:#000e7a;stroke-width:1.05822003000000000;stroke-linecap:butt;stroke-linejoin:miter;stroke-miterlimit:4;stroke-opacity:1;stroke-dasharray:none;"
       d="m 36.318508,981.43962 c 0,0 -6.595773,0.86873 -8.937267,2.91903 -3.717737,3.2554 -4.77941,8.64178 -6.289188,13.29786 -2.038054,6.28529 -3.78552,12.86689 -3.64111,19.46029 0.138404,6.3192 1.887355,12.6266 4.303129,18.4872 2.31729,5.6218 4.210086,12.5891 9.599287,15.5683 1.537566,0.85 5.296159,0 5.296159,0"
       id="path3863"
       inkscape:connector-curvature="0"
       sodipodi:nodetypes="csssssc" />
    <path
       style="fill:none;stroke:#000e7a;stroke-width:1.20120001000000000;stroke-linecap:butt;stroke-linejoin:miter;stroke-miterlimit:4;stroke-opacity:1;stroke-dasharray:none;marker-end:none;opacity:1"
       d="m 47.757011,963.74023 c 0,0 7.43856,0.9925 10.07925,3.335 4.19277,3.7193 5.3901,9.8732 7.0928,15.1928 2.29847,7.1809 4.26922,14.7004 4.10636,22.23327 -0.15609,7.2197 -2.12852,14.4258 -4.85297,21.1216 -2.61339,6.4229 -4.74804,14.383 -10.82586,17.7867 -1.73403,0.9711 -5.97288,0 -5.97288,0"
       id="path3863-0"
       inkscape:connector-curvature="0"
       sodipodi:nodetypes="csssssc"
       transform="matrix(0.88670025,0,0,0.87367921,-6.1208006,139.41433)" />
    <text
       xml:space="preserve"
       style="font-size:31.36206627000000000px;font-style:normal;font-weight:normal;line-height:125%;letter-spacing:0px;word-spacing:0px;fill:#ff6600;fill-opacity:0.98431373000000000;stroke:none;font-family:Sans"
       x="9.2131519"
       y="1032.0947"
       id="text3389"
       sodipodi:linespacing="125%"
       transform="scale(1.0027673,0.99724033)"><tspan
         sodipodi:role="line"
         id="tspan3391"
         x="9.2131519"
         y="1032.0947"
         style="font-size:56px;font-style:normal;font-variant:normal;font-weight:bold;font-stretch:normal;text-align:start;line-height:125%;writing-mode:lr-tb;text-anchor:start;fill:#ff6600;fill-opacity:1;font-family:Times New Roman;-inkscape-font-specification:Times New Roman">@</tspan></text>
    <path
       style="fill:#000000;fill-opacity:0;fill-rule:nonzero;stroke:#ff6600;stroke-width:1.30499999999999990;stroke-linecap:round;stroke-linejoin:round;stroke-miterlimit:4;stroke-opacity:1;stroke-dasharray:none"
       d="M 32.426827,60.67455 C 26.962535,59.973388 22.307002,57.730978 18.581999,54.005976 13.733723,49.1577 11.399217,42.607901 11.896512,35.24886 12.817523,21.619611 22.61393,12.031533 36.466037,11.201828 c 6.819878,-0.408494 12.481212,1.423309 16.347681,5.289515 4.249745,4.249458 6.009381,10.910603 4.654864,17.621095 -0.774393,3.836467 -2.751327,7.621988 -5.350388,10.245157 -2.048574,2.067576 -4.312588,3.354595 -7.135083,4.056065 -1.737788,0.431891 -4.568863,0.488109 -5.686825,0.112927 -2.217914,-0.74432 -3.437947,-2.635463 -3.228686,-5.004704 0.04612,-0.522179 0.200456,-1.450438 0.342967,-2.062795 0.142511,-0.612358 0.23197,-1.14052 0.198796,-1.173692 -0.03317,-0.03317 -0.218293,0.212151 -0.411378,0.545167 -1.634404,2.818873 -3.860839,5.55326 -5.440406,6.681609 -1.389562,0.99262 -2.0835,1.242584 -3.456855,1.245197 -1.057807,0.002 -1.283732,-0.03906 -1.911904,-0.347543 -1.818869,-0.893223 -2.760727,-2.866101 -2.756632,-5.774226 0.0096,-6.829242 4.185784,-14.585854 9.85855,-18.310791 2.371837,-1.557432 3.7651,-1.92906 5.405662,-1.441865 1.266087,0.375988 2.063528,1.405406 2.527961,3.26335 l 0.223743,0.895076 0.264415,-0.883883 c 0.145428,-0.486136 0.361974,-1.239015 0.481215,-1.673065 l 0.216799,-0.789182 0.642211,-0.0028 c 0.353216,-0.0015 1.803606,-0.05706 3.22309,-0.123384 1.419482,-0.06632 2.60086,-0.100602 2.62528,-0.07618 0.02442,0.02442 -1.15272,4.128446 -2.615871,9.120055 -1.46315,4.991611 -2.777304,9.643866 -2.920343,10.338346 -0.315884,1.533679 -0.273286,2.400477 0.148195,3.015589 0.934349,1.363592 2.820041,1.289651 5.374016,-0.210724 2.846822,-1.672412 4.904688,-3.993605 6.487645,-7.317815 1.200938,-2.52197 1.73637,-4.720945 1.852701,-7.608881 C 56.647931,25.3561 55.067392,21.035558 51.588575,17.601943 48.422608,14.477112 44.790559,12.983397 39.801362,12.754338 32.61191,12.424263 25.513891,15.30369 21.07963,20.349114 c -7.328673,8.338765 -8.643335,21.653497 -2.967259,30.052038 1.646994,2.436955 3.988099,4.645743 6.473568,6.107687 2.071765,1.218605 4.000451,1.951209 6.565992,2.494073 2.047722,0.433292 6.056632,0.554334 8.333759,0.25162 4.387649,-0.583279 8.145132,-2.123755 11.616754,-4.762589 3.223812,-2.45047 5.548005,-5.416979 7.137466,-9.109986 l 0.421182,-0.978586 0.734795,0 c 0.404137,0 0.734795,0.03859 0.734795,0.08575 0,0.222498 -1.697267,3.513422 -2.332735,4.523069 -4.148587,6.591375 -10.375236,10.623315 -17.936684,11.614534 -1.606573,0.210603 -5.948223,0.238534 -7.434436,0.04783 l 0,0 z m -0.29128,-17.046537 c 0.792722,-0.403028 2.333286,-2.026467 3.278301,-3.454659 2.248164,-3.397626 3.791558,-7.771238 3.965735,-11.237948 0.141203,-2.810417 -0.577733,-4.356282 -2.025977,-4.356282 -0.635887,0 -1.010344,0.175962 -1.671638,0.785521 -2.374868,2.189076 -5.742173,10.601999 -6.058429,15.136466 -0.109059,1.563666 0.07251,2.374819 0.663958,2.96627 0.519591,0.519591 1.051134,0.565793 1.84805,0.160632 z"
       id="path3078"
       inkscape:connector-curvature="0"
       transform="translate(0,980.36218)" />
    <path
       style="fill:#172688;fill-opacity:0.98431373;fill-rule:nonzero;stroke:#172688;stroke-width:0.60000002;stroke-miterlimit:4;stroke-opacity:0.98431373;stroke-dasharray:none"
       d="m 32.81158,1042.465 c -5.464292,-0.7011 -10.119825,-2.9435 -13.844829,-6.6686 -4.848276,-4.8482 -7.182782,-11.398 -6.685487,-18.7571 0.921011,-13.6292 10.717419,-23.21744 24.569526,-24.04715 6.819878,-0.40849 12.481212,1.42331 16.347681,5.28952 4.249744,4.24953 6.00938,10.91073 4.654863,17.62123 -0.774393,3.8365 -2.751327,7.622 -5.350387,10.2452 -2.048574,2.0675 -4.312588,3.3546 -7.135083,4.056 -1.737788,0.4319 -4.568863,0.4881 -5.686825,0.113 -2.217914,-0.7444 -3.437947,-2.6355 -3.228686,-5.0047 0.04612,-0.5222 0.200456,-1.4505 0.342967,-2.0628 0.142511,-0.6124 0.23197,-1.1406 0.198796,-1.1737 -0.03317,-0.033 -0.218293,0.2121 -0.411378,0.5451 -1.634404,2.8189 -3.860839,5.5533 -5.440406,6.6816 -1.389562,0.9927 -2.0835,1.2426 -3.456855,1.2452 -1.057807,0 -1.283732,-0.039 -1.911904,-0.3475 -1.818869,-0.8932 -2.760727,-2.8661 -2.756632,-5.7742 0.0096,-6.8293 4.185784,-14.5859 9.85855,-18.3108 2.371837,-1.5575 3.7651,-1.9291 5.405662,-1.4419 1.266087,0.376 2.063528,1.4054 2.527961,3.2633 l 0.223743,0.8951 0.264415,-0.8839 c 0.145428,-0.4861 0.361974,-1.239 0.481215,-1.673 l 0.216799,-0.7892 0.642211,0 c 0.353216,0 1.803606,-0.057 3.22309,-0.1234 1.419482,-0.066 2.60086,-0.1006 2.62528,-0.076 0.02442,0.024 -1.15272,4.1284 -2.615871,9.1201 -1.46315,4.9916 -2.777304,9.6439 -2.920343,10.3383 -0.315884,1.5337 -0.273286,2.4005 0.148195,3.0156 0.934349,1.3636 2.820041,1.2897 5.374016,-0.2107 2.846822,-1.6724 4.904688,-3.9936 6.487644,-7.3178 1.200938,-2.522 1.73637,-4.7209 1.852701,-7.6089 0.220474,-5.4734 -1.360065,-9.7939 -4.838881,-13.22765 -3.165967,-3.12484 -6.798016,-4.61855 -11.787213,-4.84761 -7.189452,-0.33007 -14.287471,2.54935 -18.721733,7.59486 -7.328673,8.3388 -8.643335,21.6536 -2.967259,30.0521 1.646994,2.437 3.9881,4.6458 6.473569,6.1077 2.071765,1.2186 4.000451,1.9512 6.565992,2.4941 2.047722,0.4333 6.056632,0.5543 8.333759,0.2516 4.387649,-0.5833 8.145132,-2.1238 11.616754,-4.7626 3.223811,-2.4505 5.548004,-5.417 7.137465,-9.11 l 0.421182,-0.9786 0.734795,0 c 0.404137,0 0.734795,0.039 0.734795,0.086 0,0.2225 -1.697267,3.5134 -2.332735,4.5231 -4.148587,6.5913 -10.375235,10.6233 -17.936683,11.6145 -1.606573,0.2106 -5.948223,0.2385 -7.434436,0.048 l 0,0 z m -0.29128,-17.0465 c 0.792722,-0.403 2.333286,-2.0265 3.278301,-3.4547 2.248164,-3.3976 3.791558,-7.7712 3.965735,-11.2379 0.141203,-2.8105 -0.577733,-4.3563 -2.025977,-4.3563 -0.635887,0 -1.010344,0.1759 -1.671638,0.7855 -2.374868,2.1891 -5.742173,10.602 -6.058429,15.1365 -0.109059,1.5636 0.07251,2.3748 0.663958,2.9663 0.519591,0.5195 1.051134,0.5657 1.84805,0.1606 z"
       id="path3078-4"
       inkscape:connector-curvature="0" />
  </g>
</svg>
