<?xml version="1.0" encoding="UTF-8" standalone="no"?>
<!-- Created with Inkscape (http://www.inkscape.org/) -->

<svg
   xmlns:dc="http://purl.org/dc/elements/1.1/"
   xmlns:cc="http://creativecommons.org/ns#"
   xmlns:rdf="http://www.w3.org/1999/02/22-rdf-syntax-ns#"
   xmlns:svg="http://www.w3.org/2000/svg"
   xmlns="http://www.w3.org/2000/svg"
   xmlns:xlink="http://www.w3.org/1999/xlink"
   xmlns:sodipodi="http://sodipodi.sourceforge.net/DTD/sodipodi-0.dtd"
   xmlns:inkscape="http://www.inkscape.org/namespaces/inkscape"
   width="72"
   height="72"
   id="svg3259"
   version="1.1"
   inkscape:version="0.48.2 r9819"
   sodipodi:docname="favicon.svg"
   inkscape:export-filename="D:\Progetti\iConv\ConvertitoreCoordinate\res\drawable-ldpi\favicon.png"
   inkscape:export-xdpi="45"
   inkscape:export-ydpi="45">
  <defs
     id="defs3261">
    <radialGradient
       inkscape:collect="always"
       xlink:href="#linearGradient3883"
       id="radialGradient3889"
       cx="57.07362"
       cy="-46.936584"
       fx="57.07362"
       fy="-46.936584"
       r="42.43737"
       gradientTransform="matrix(1,0,0,0.96341457,0,-1.7171953)"
       gradientUnits="userSpaceOnUse" />
    <linearGradient
       inkscape:collect="always"
       id="linearGradient3883">
      <stop
         style="stop-color:#000e7a;stop-opacity:1;"
         offset="0"
         id="stop3885" />
      <stop
         style="stop-color:#000e7a;stop-opacity:0;"
         offset="1"
         id="stop3887" />
    </linearGradient>
    <radialGradient
       inkscape:collect="always"
       xlink:href="#linearGradient3883"
       id="radialGradient10872"
       gradientUnits="userSpaceOnUse"
       gradientTransform="matrix(1,0,0,0.96341457,0,-1.7171953)"
       cx="57.07362"
       cy="-46.936584"
       fx="57.07362"
       fy="-46.936584"
       r="42.43737" />
    <filter
       inkscape:collect="always"
       id="filter11401">
      <feGaussianBlur
         inkscape:collect="always"
         stdDeviation="0.03654844"
         id="feGaussianBlur11403" />
    </filter>
  </defs>
  <sodipodi:namedview
     id="base"
     pagecolor="#ffffff"
     bordercolor="#666666"
     borderopacity="1.0"
     inkscape:pageopacity="0.0"
     inkscape:pageshadow="2"
     inkscape:zoom="7.9195959"
     inkscape:cx="-0.064589345"
     inkscape:cy="57.522402"
     inkscape:document-units="px"
     inkscape:current-layer="layer1"
     showgrid="false"
     inkscape:window-width="1440"
     inkscape:window-height="844"
     inkscape:window-x="-4"
     inkscape:window-y="-4"
     inkscape:window-maximized="1" />
  <metadata
     id="metadata3264">
    <rdf:RDF>
      <cc:Work
         rdf:about="">
        <dc:format>image/svg+xml</dc:format>
        <dc:type
           rdf:resource="http://purl.org/dc/dcmitype/StillImage" />
        <dc:title></dc:title>
      </cc:Work>
    </rdf:RDF>
  </metadata>
  <g
     inkscape:label="Livello 1"
     inkscape:groupmode="layer"
     id="layer1"
     transform="translate(0,-980.36218)">
    <path
       sodipodi:type="arc"
       style="fill:#0f076e;fill-opacity:1"
       id="path3004-1"
       sodipodi:cx="57.07362"
       sodipodi:cy="-46.936584"
       sodipodi:rx="41.551636"
       sodipodi:ry="39.935177"
       d="m 98.625256,-46.936584 c 0,22.055589 -18.603301,39.9351764 -41.551636,39.9351764 -22.948335,0 -41.551636,-17.8795874 -41.551636,-39.9351764 0,-22.05559 18.603301,-39.935177 41.551636,-39.935177 22.948335,0 41.551636,17.879587 41.551636,39.935177 z"
       transform="matrix(0.85659497,0,0,0.88842844,-12.764842,1058.29)" />
    <path
       sodipodi:type="arc"
       style="fill:#c9e2ff;fill-opacity:0.96891192000000004;stroke:url(#radialGradient10872);"
       id="path3004-7"
       sodipodi:cx="57.07362"
       sodipodi:cy="-46.936584"
       sodipodi:rx="41.551636"
       sodipodi:ry="39.935177"
       d="m 98.625256,-46.936584 c 0,22.055589 -18.603301,39.9351764 -41.551636,39.9351764 -22.948335,0 -41.551636,-17.8795874 -41.551636,-39.9351764 0,-22.05559 18.603301,-39.935177 41.551636,-39.935177 22.948335,0 41.551636,17.879587 41.551636,39.935177 z"
       transform="matrix(0.80324566,0,0,0.84100109,-9.6566696,1056.0404)" />
    <path
       style="opacity:1;fill:none;stroke:#000e7a;stroke-width:1.40100873000000000;stroke-linecap:butt;stroke-linejoin:miter;stroke-miterlimit:4;stroke-opacity:1;stroke-dasharray:none"
       d="m 8.9285714,49.571429 c 77.1428576,0 77.1428576,0 77.1428576,0"
       id="path3013"
       inkscape:connector-curvature="0"
       transform="matrix(0.91861649,0,0,0.8659366,-7.6368211,975.0252)" />
    <path
       sodipodi:nodetypes="cac"
       style="opacity:1;fill:none;stroke:#000e7a;stroke-width:1.39999998000000000;stroke-linecap:butt;stroke-linejoin:miter;stroke-miterlimit:4;stroke-opacity:0.84313724999999984;stroke-dasharray:none;"
       d="m 47.5,7.4285714 c 0,17.6586886 0,28.0952386 0,42.1428576 0,12.619047 0,37.857142 0,37.857142"
       id="path3021"
       inkscape:connector-curvature="0"
       transform="matrix(0.88670025,0,0,0.8659366,-6.1208006,975.0252)" />
    <path
       style="opacity:1;fill:none;stroke:#000e7a;stroke-width:1.40139996999999990;stroke-linecap:butt;stroke-linejoin:miter;stroke-miterlimit:4;stroke-opacity:1;stroke-dasharray:none;filter:url(#filter11401)"
       d="m 16.678572,979.78864 c 4.274716,2.5 8.016372,5.87474 12.824149,7.5 5.974467,2.01965 12.61359,2.55865 19.029381,2.5 6.437977,-0.0589 13.00132,-0.90467 19.02938,-2.85714 4.229112,-1.3698 7.722069,-4.04762 11.583102,-6.07143"
       id="path3817-7"
       inkscape:connector-curvature="0"
       sodipodi:nodetypes="caaac"
       transform="matrix(0.88405317,0,0,0.9711073,-5.5394641,42.736858)" />
    <path
       style="opacity:1;fill:none;stroke:#000e7a;stroke-width:1.40139996999999990;stroke-linecap:butt;stroke-linejoin:miter;stroke-miterlimit:4;stroke-opacity:1;stroke-dasharray:none;marker-end:none;"
       d="m 20.357143,1032.3622 c 0,0 6.632912,-4.4193 10.357143,-5.7143 5.471722,-1.9027 11.353255,-3.0586 17.142857,-2.8571 5.627181,0.1958 11.13778,2.0021 16.428572,3.9285 C 68.037724,1029.0855 75,1033.0765 75,1033.0765"
       id="path3860"
       inkscape:connector-curvature="0"
       sodipodi:nodetypes="caaac"
       transform="matrix(0.9064097,0,0,0.9266937,-7.3761916,84.707912)" />
    <path
       style="opacity:1;fill:none;stroke:#000e7a;stroke-width:1.05822003000000000;stroke-linecap:butt;stroke-linejoin:miter;stroke-miterlimit:4;stroke-opacity:1;stroke-dasharray:none;"
       d="m 36.318508,981.43962 c 0,0 -6.595773,0.86873 -8.937267,2.91903 -3.717737,3.2554 -4.77941,8.64178 -6.289188,13.29786 -2.038054,6.28529 -3.78552,12.86689 -3.64111,19.46029 0.138404,6.3192 1.887355,12.6266 4.303129,18.4872 2.31729,5.6218 4.210086,12.5891 9.599287,15.5683 1.537566,0.85 5.296159,0 5.296159,0"
       id="path3863"
       inkscape:connector-curvature="0"
       sodipodi:nodetypes="csssssc" />
    <path
       style="fill:none;stroke:#000e7a;stroke-width:1.20120001000000000;stroke-linecap:butt;stroke-linejoin:miter;stroke-miterlimit:4;stroke-opacity:1;stroke-dasharray:none;marker-end:none;opacity:1"
       d="m 47.757011,963.74023 c 0,0 7.43856,0.9925 10.07925,3.335 4.19277,3.7193 5.3901,9.8732 7.0928,15.1928 2.29847,7.1809 4.26922,14.7004 4.10636,22.23327 -0.15609,7.2197 -2.12852,14.4258 -4.85297,21.1216 -2.61339,6.4229 -4.74804,14.383 -10.82586,17.7867 -1.73403,0.9711 -5.97288,0 -5.97288,0"
       id="path3863-0"
       inkscape:connector-curvature="0"
       sodipodi:nodetypes="csssssc"
       transform="matrix(0.88670025,0,0,0.87367921,-6.1208006,139.41433)" />
    <text
       xml:space="preserve"
       style="font-size:31.36206627px;font-style:normal;font-weight:normal;line-height:125%;letter-spacing:0px;word-spacing:0px;fill:#172688;fill-opacity:0.98431373;stroke:none;font-family:Sans"
       x="22.576401"
       y="1032.2852"
       id="text3389"
       sodipodi:linespacing="125%"
       transform="scale(1.0027673,0.99724033)"><tspan
         sodipodi:role="line"
         id="tspan3391"
         x="22.576401"
         y="1032.2852"
         style="font-size:31.36206627px;font-style:normal;font-variant:normal;font-weight:normal;font-stretch:normal;text-align:start;line-height:125%;writing-mode:lr-tb;text-anchor:start;fill:#172688;fill-opacity:0.98431373;font-family:Comic Sans MS;-inkscape-font-specification:Comic Sans MS"><tspan
           style="font-weight:bold;fill:#ff0000;fill-opacity:1;-inkscape-font-specification:Comic Sans MS Bold"
           id="tspan3393">i</tspan><tspan
           style="font-weight:bold;fill:#172688;fill-opacity:0.98431373;-inkscape-font-specification:Comic Sans MS Bold"
           id="tspan3395">C</tspan></tspan></text>
  </g>
</svg>
