<?xml version="1.0" encoding="UTF-8" standalone="no"?>
<!-- Created with Inkscape (http://www.inkscape.org/) -->

<svg
   xmlns:dc="http://purl.org/dc/elements/1.1/"
   xmlns:cc="http://creativecommons.org/ns#"
   xmlns:rdf="http://www.w3.org/1999/02/22-rdf-syntax-ns#"
   xmlns:svg="http://www.w3.org/2000/svg"
   xmlns="http://www.w3.org/2000/svg"
   xmlns:xlink="http://www.w3.org/1999/xlink"
   xmlns:sodipodi="http://sodipodi.sourceforge.net/DTD/sodipodi-0.dtd"
   xmlns:inkscape="http://www.inkscape.org/namespaces/inkscape"
   width="72"
   height="72"
   id="svg3259"
   version="1.1"
   inkscape:version="0.48.2 r9819"
   sodipodi:docname="help.svg"
   inkscape:export-filename="D:\Progetti\iConv\ConvertitoreCoordinate\res\drawable-ldpi\help.png"
   inkscape:export-xdpi="45"
   inkscape:export-ydpi="45">
  <defs
     id="defs3261">
    <linearGradient
       inkscape:collect="always"
       id="linearGradient3883">
      <stop
         style="stop-color:#000e7a;stop-opacity:1;"
         offset="0"
         id="stop3885" />
      <stop
         style="stop-color:#000e7a;stop-opacity:0;"
         offset="1"
         id="stop3887" />
    </linearGradient>
    <radialGradient
       inkscape:collect="always"
       xlink:href="#linearGradient3883"
       id="radialGradient3077"
       gradientUnits="userSpaceOnUse"
       gradientTransform="matrix(1,0,0,0.96341457,0,-1.7171953)"
       cx="57.07362"
       cy="-46.936584"
       fx="57.07362"
       fy="-46.936584"
       r="42.43737" />
    <radialGradient
       inkscape:collect="always"
       xlink:href="#linearGradient3883"
       id="radialGradient3899"
       gradientUnits="userSpaceOnUse"
       gradientTransform="matrix(1,0,0,0.96341457,0,-1.7171953)"
       cx="57.07362"
       cy="-46.936584"
       fx="57.07362"
       fy="-46.936584"
       r="42.43737" />
    <radialGradient
       inkscape:collect="always"
       xlink:href="#linearGradient3883"
       id="radialGradient3957"
       gradientUnits="userSpaceOnUse"
       gradientTransform="matrix(1,0,0,0.96341457,0,-1.7171953)"
       cx="57.07362"
       cy="-46.936584"
       fx="57.07362"
       fy="-46.936584"
       r="42.43737" />
    <radialGradient
       inkscape:collect="always"
       xlink:href="#linearGradient3883"
       id="radialGradient4003"
       gradientUnits="userSpaceOnUse"
       gradientTransform="matrix(1,0,0,0.96341457,0,-1.7171953)"
       cx="57.07362"
       cy="-46.936584"
       fx="57.07362"
       fy="-46.936584"
       r="42.43737" />
    <radialGradient
       inkscape:collect="always"
       xlink:href="#linearGradient3883"
       id="radialGradient4020"
       gradientUnits="userSpaceOnUse"
       gradientTransform="matrix(1,0,0,0.96341457,0,-1.7171953)"
       cx="57.07362"
       cy="-46.936584"
       fx="57.07362"
       fy="-46.936584"
       r="42.43737" />
    <radialGradient
       inkscape:collect="always"
       xlink:href="#linearGradient3883"
       id="radialGradient3938"
       gradientUnits="userSpaceOnUse"
       gradientTransform="matrix(1,0,0,0.96341457,0,-1.7171953)"
       cx="57.07362"
       cy="-46.936584"
       fx="57.07362"
       fy="-46.936584"
       r="42.43737" />
  </defs>
  <sodipodi:namedview
     id="base"
     pagecolor="#ffffff"
     bordercolor="#666666"
     borderopacity="1.0"
     inkscape:pageopacity="0.0"
     inkscape:pageshadow="2"
     inkscape:zoom="7.9195959"
     inkscape:cx="2.1342967"
     inkscape:cy="39.999739"
     inkscape:document-units="px"
     inkscape:current-layer="layer1"
     showgrid="false"
     inkscape:window-width="1440"
     inkscape:window-height="844"
     inkscape:window-x="-4"
     inkscape:window-y="-4"
     inkscape:window-maximized="1" />
  <metadata
     id="metadata3264">
    <rdf:RDF>
      <cc:Work
         rdf:about="">
        <dc:format>image/svg+xml</dc:format>
        <dc:type
           rdf:resource="http://purl.org/dc/dcmitype/StillImage" />
        <dc:title />
      </cc:Work>
    </rdf:RDF>
  </metadata>
  <g
     inkscape:label="Livello 1"
     inkscape:groupmode="layer"
     id="layer1"
     transform="translate(0,-980.36218)">
    <g
       id="g6527">
      <path
         inkscape:connector-curvature="0"
         style="font-size:67.61712646px;font-style:normal;font-weight:normal;line-height:125%;letter-spacing:0px;word-spacing:0px;fill:#0f076e;fill-opacity:0.76683936;stroke:none;font-family:Sans"
         d="m 71.717056,1016.5902 c 0,19.5948 -15.935494,35.4796 -35.592922,35.4796 -19.657429,0 -35.59292258,-15.8848 -35.59292258,-35.4796 0,-19.59481 15.93549358,-35.47954 35.59292258,-35.47954 19.657428,0 35.592922,15.88473 35.592922,35.47954 z"
         id="path3004-1" />
      <path
         inkscape:connector-curvature="0"
         transform="matrix(0.80324566,0,0,0.84100109,-9.6566696,1056.0404)"
         style="font-size:67.61712645999999400px;font-style:normal;font-weight:normal;line-height:125%;letter-spacing:0px;word-spacing:0px;fill:#c9e2ff;fill-opacity:0.96891192000000004;stroke:url(#radialGradient3938);font-family:Sans"
         d="m 98.625256,-46.936584 c 0,22.055589 -18.603301,39.9351764 -41.551636,39.9351764 -22.948335,0 -41.551636,-17.8795874 -41.551636,-39.9351764 0,-22.05559 18.603301,-39.935177 41.551636,-39.935177 22.948335,0 41.551636,17.879587 41.551636,39.935177 z"
         id="path3004-7" />
      <path
         style="font-size:67.61712645999999400px;font-style:normal;font-weight:normal;line-height:125%;letter-spacing:0px;word-spacing:0px;opacity:1;fill:none;stroke:#000e7a;stroke-width:1.40100873000000000;stroke-linecap:butt;stroke-linejoin:miter;stroke-miterlimit:4;stroke-opacity:1;stroke-dasharray:none;font-family:Sans"
         d="m 8.9285714,49.571429 c 77.1428576,0 77.1428576,0 77.1428576,0"
         id="path3013"
         inkscape:connector-curvature="0"
         transform="matrix(0.91861649,0,0,0.8659366,-7.6368211,975.0252)" />
      <path
         sodipodi:nodetypes="cac"
         style="font-size:67.61712645999999400px;font-style:normal;font-weight:normal;line-height:125%;letter-spacing:0px;word-spacing:0px;opacity:1;fill:none;stroke:#000e7a;stroke-width:1.39999998000000000;stroke-linecap:butt;stroke-linejoin:miter;stroke-miterlimit:4;stroke-opacity:0.84313724999999984;stroke-dasharray:none;font-family:Sans"
         d="m 47.5,7.4285714 c 0,17.6586886 0,28.0952386 0,42.1428576 0,12.619047 0,37.857142 0,37.857142"
         id="path3021"
         inkscape:connector-curvature="0"
         transform="matrix(0.88670025,0,0,0.8659366,-6.1208006,975.0252)" />
      <path
         style="font-size:67.61712645999999400px;font-style:normal;font-weight:normal;line-height:125%;letter-spacing:0px;word-spacing:0px;opacity:1;fill:none;stroke:#000e7a;stroke-width:1.26860701999999990;stroke-linecap:butt;stroke-linejoin:miter;stroke-miterlimit:4;stroke-opacity:1;stroke-dasharray:none;font-family:Sans"
         d="m 8.4358655,994.57373 c 3.8394575,2.28091 7.2001315,5.35984 11.5183735,6.84267 5.366138,1.8427 11.329254,2.3344 17.091779,2.281 5.782452,-0.054 11.677505,-0.8254 17.091778,-2.6068 3.798497,-1.24975 6.935796,-3.69289 10.403692,-5.53933"
         id="path3817-7"
         inkscape:connector-curvature="0"
         sodipodi:nodetypes="caaac" />
      <path
         style="font-size:67.61712645999999400px;font-style:normal;font-weight:normal;line-height:125%;letter-spacing:0px;word-spacing:0px;opacity:1;fill:none;stroke:#000e7a;stroke-width:1.28956651999999990;stroke-linecap:butt;stroke-linejoin:miter;stroke-miterlimit:4;stroke-opacity:1;stroke-dasharray:none;marker-end:none;font-family:Sans"
         d="m 11.07679,1041.3932 c 0,0 6.057858,-4.0973 9.459209,-5.2979 4.997341,-1.7642 10.368962,-2.8358 15.656623,-2.649 5.13932,0.1815 10.172167,1.8563 15.004263,3.6423 3.426721,1.2667 9.785388,4.9669 9.785388,4.9669"
         id="path3860"
         inkscape:connector-curvature="0"
         sodipodi:nodetypes="caaac" />
      <path
         style="font-size:67.61712645999999400px;font-style:normal;font-weight:normal;line-height:125%;letter-spacing:0px;word-spacing:0px;opacity:1;fill:none;stroke:#000e7a;stroke-width:1.05535781000000010;stroke-linecap:butt;stroke-linejoin:miter;stroke-miterlimit:4;stroke-opacity:1;stroke-dasharray:none;font-family:Sans"
         d="m 36.318508,981.43962 c 0,0 -6.595773,0.86404 -8.937267,2.90326 -3.717737,3.23781 -4.77941,8.59509 -6.289188,13.22603 -2.038054,6.25129 -3.78552,12.79739 -3.64111,19.35519 0.138404,6.2851 1.887355,12.5583 4.303129,18.3873 2.31729,5.5915 4.210086,12.5211 9.599287,15.4842 1.537566,0.8454 5.296159,0 5.296159,0"
         id="path3863"
         inkscape:connector-curvature="0"
         sodipodi:nodetypes="csssssc" />
      <path
         style="font-size:67.61712645999999400px;font-style:normal;font-weight:normal;line-height:125%;letter-spacing:0px;word-spacing:0px;opacity:1;fill:none;stroke:#000e7a;stroke-width:1.05618346000000000;stroke-linecap:butt;stroke-linejoin:miter;stroke-miterlimit:4;stroke-opacity:1;stroke-dasharray:none;marker-end:none;font-family:Sans"
         d="m 36.225353,981.41413 c 0,0 6.595773,0.86537 8.937273,2.90781 3.717731,3.2429 4.779404,8.60854 6.289188,13.24675 2.038054,6.26111 3.785518,12.81741 3.64111,19.38541 -0.138405,6.2949 -1.887359,12.578 -4.303129,18.4161 -2.317294,5.6002 -4.210089,12.5407 -9.599293,15.5084 -1.537565,0.8467 -5.296154,0 -5.296154,0"
         id="path3863-0"
         inkscape:connector-curvature="0"
         sodipodi:nodetypes="csssssc" />
      <path
         inkscape:export-ydpi="90"
         inkscape:export-xdpi="90"
         inkscape:export-filename="C:\Documents and Settings\tnocentini\Documenti\Immagini\iconv\72x72\path3066.png"
         transform="matrix(0.52537107,0,0,0.48474611,16.915058,525.95839)"
         inkscape:connector-curvature="0"
         d="m 33.122862,1029.6585 c -0.02123,-0.8224 -0.03182,-1.4392 -0.03181,-1.8504 -1.5e-5,-2.4215 0.318096,-4.5118 0.954334,-6.2709 0.466546,-1.3249 1.219409,-2.6613 2.258589,-4.0092 0.763448,-0.9823 2.136626,-2.4158 4.11954,-4.3005 1.982869,-1.8846 3.271217,-3.3867 3.865051,-4.5061 0.593781,-1.1193 0.890684,-2.3415 0.890711,-3.6665 -2.7e-5,-2.3987 -0.869529,-4.5063 -2.608512,-6.32262 -1.73903,-1.81611 -3.870373,-2.72418 -6.394035,-2.72423 -2.438868,5e-5 -4.474777,0.82245 -6.107734,2.46723 -1.632981,1.64482 -2.703955,4.21522 -3.212923,7.71042 l -5.885057,-0.7539 c 0.530182,-4.6833 2.104831,-8.27005 4.723951,-10.76015 2.619105,-2.49002 6.081212,-3.73504 10.38633,-3.73509 4.559572,5e-5 8.196639,1.33646 10.911214,4.00922 2.714517,2.67286 4.07179,5.90552 4.071823,9.69792 -3.3e-5,2.1931 -0.477199,4.2148 -1.4315,6.0652 -0.954365,1.8504 -2.820615,4.1006 -5.598757,6.7506 -1.866276,1.7819 -3.085701,3.0954 -3.658279,3.9407 -0.572621,0.8452 -0.99677,1.8161 -1.272445,2.9127 -0.275716,1.0965 -0.434772,2.8784 -0.477166,5.3456 z m -0.349921,12.3704 0,-7.0248 6.521279,0 0,7.0248 z"
         style="font-size:67.61712645999999400px;font-style:normal;font-weight:normal;line-height:125%;letter-spacing:0px;word-spacing:0px;fill:#ff0000;fill-opacity:1;stroke:#ff0000;stroke-width:2.26254153000000000;stroke-miterlimit:4;stroke-opacity:1;stroke-dasharray:none;font-family:Sans"
         id="path3066" />
    </g>
  </g>
</svg>
