<?xml version="1.0" encoding="UTF-8" standalone="no"?>
<!-- Created with Inkscape (http://www.inkscape.org/) -->

<svg
   xmlns:dc="http://purl.org/dc/elements/1.1/"
   xmlns:cc="http://creativecommons.org/ns#"
   xmlns:rdf="http://www.w3.org/1999/02/22-rdf-syntax-ns#"
   xmlns:svg="http://www.w3.org/2000/svg"
   xmlns="http://www.w3.org/2000/svg"
   xmlns:xlink="http://www.w3.org/1999/xlink"
   xmlns:sodipodi="http://sodipodi.sourceforge.net/DTD/sodipodi-0.dtd"
   xmlns:inkscape="http://www.inkscape.org/namespaces/inkscape"
   width="72"
   height="72"
   id="svg3259"
   version="1.1"
   inkscape:version="0.48.2 r9819"
   sodipodi:docname="impostazioni72.svg"
   inkscape:export-filename="C:\Documents and Settings\tnocentini\Documenti\Immagini\iconv\36x36\impostazioni.png"
   inkscape:export-xdpi="43.814819"
   inkscape:export-ydpi="43.814819">
  <defs
     id="defs3261">
    <linearGradient
       inkscape:collect="always"
       id="linearGradient4079">
      <stop
         style="stop-color:#fafafa;stop-opacity:1;"
         offset="0"
         id="stop4081" />
      <stop
         style="stop-color:#fafafa;stop-opacity:0;"
         offset="1"
         id="stop4083" />
    </linearGradient>
    <radialGradient
       inkscape:collect="always"
       xlink:href="#linearGradient3883"
       id="radialGradient3889"
       cx="57.07362"
       cy="-46.936584"
       fx="57.07362"
       fy="-46.936584"
       r="42.43737"
       gradientTransform="matrix(1,0,0,0.96341457,0,-1.7171953)"
       gradientUnits="userSpaceOnUse" />
    <linearGradient
       inkscape:collect="always"
       id="linearGradient3883">
      <stop
         style="stop-color:#000e7a;stop-opacity:1;"
         offset="0"
         id="stop3885" />
      <stop
         style="stop-color:#000e7a;stop-opacity:0;"
         offset="1"
         id="stop3887" />
    </linearGradient>
    <filter
       color-interpolation-filters="sRGB"
       inkscape:collect="always"
       id="filter5089">
      <feGaussianBlur
         inkscape:collect="always"
         stdDeviation="0.36603361"
         id="feGaussianBlur5091" />
    </filter>
    <filter
       color-interpolation-filters="sRGB"
       inkscape:collect="always"
       id="filter4959">
      <feGaussianBlur
         inkscape:collect="always"
         stdDeviation="0.41273922"
         id="feGaussianBlur4961" />
    </filter>
    <filter
       color-interpolation-filters="sRGB"
       inkscape:collect="always"
       id="filter4951">
      <feGaussianBlur
         inkscape:collect="always"
         stdDeviation="0.18951922"
         id="feGaussianBlur4953" />
    </filter>
    <linearGradient
       inkscape:collect="always"
       xlink:href="#linearGradient5007"
       id="linearGradient4997"
       x1="56.160713"
       y1="67.160713"
       x2="51.69643"
       y2="60.642857"
       gradientUnits="userSpaceOnUse" />
    <linearGradient
       inkscape:collect="always"
       id="linearGradient5007">
      <stop
         style="stop-color:#949494;stop-opacity:1;"
         offset="0"
         id="stop5009" />
      <stop
         style="stop-color:#949494;stop-opacity:0;"
         offset="1"
         id="stop5011" />
    </linearGradient>
    <linearGradient
       inkscape:collect="always"
       xlink:href="#linearGradient4999"
       id="linearGradient5005"
       x1="55.689735"
       y1="61.276005"
       x2="64.13871"
       y2="50.561718"
       gradientUnits="userSpaceOnUse" />
    <linearGradient
       inkscape:collect="always"
       id="linearGradient4999">
      <stop
         style="stop-color:#000000;stop-opacity:1;"
         offset="0"
         id="stop5001" />
      <stop
         style="stop-color:#8f8f8f;stop-opacity:1"
         offset="1"
         id="stop5003" />
    </linearGradient>
    <filter
       color-interpolation-filters="sRGB"
       inkscape:collect="always"
       id="filter3930">
      <feGaussianBlur
         inkscape:collect="always"
         stdDeviation="0.055953734"
         id="feGaussianBlur3932" />
    </filter>
    <filter
       color-interpolation-filters="sRGB"
       inkscape:collect="always"
       id="filter5057">
      <feGaussianBlur
         inkscape:collect="always"
         stdDeviation="0.30572898"
         id="feGaussianBlur5059" />
    </filter>
    <linearGradient
       inkscape:collect="always"
       xlink:href="#linearGradient5041"
       id="linearGradient5047"
       x1="81.44355"
       y1="70.114845"
       x2="77.529205"
       y2="89.812813"
       gradientUnits="userSpaceOnUse" />
    <linearGradient
       inkscape:collect="always"
       id="linearGradient5041">
      <stop
         style="stop-color:#2473ac;stop-opacity:1;"
         offset="0"
         id="stop5043" />
      <stop
         style="stop-color:#2473ac;stop-opacity:0;"
         offset="1"
         id="stop5045" />
    </linearGradient>
    <filter
       color-interpolation-filters="sRGB"
       inkscape:collect="always"
       id="filter5031">
      <feGaussianBlur
         inkscape:collect="always"
         stdDeviation="0.049560607"
         id="feGaussianBlur5033" />
    </filter>
    <filter
       color-interpolation-filters="sRGB"
       inkscape:collect="always"
       id="filter5229">
      <feGaussianBlur
         inkscape:collect="always"
         stdDeviation="0.82607288"
         id="feGaussianBlur5231" />
    </filter>
    <filter
       color-interpolation-filters="sRGB"
       inkscape:collect="always"
       id="filter5173">
      <feGaussianBlur
         inkscape:collect="always"
         stdDeviation="0.62663571"
         id="feGaussianBlur5175" />
    </filter>
    <filter
       color-interpolation-filters="sRGB"
       inkscape:collect="always"
       id="filter3918">
      <feGaussianBlur
         inkscape:collect="always"
         stdDeviation="0.18087189"
         id="feGaussianBlur3920" />
    </filter>
    <filter
       color-interpolation-filters="sRGB"
       inkscape:collect="always"
       id="filter5329">
      <feGaussianBlur
         inkscape:collect="always"
         stdDeviation="0.21875"
         id="feGaussianBlur5331" />
    </filter>
    <filter
       color-interpolation-filters="sRGB"
       inkscape:collect="always"
       id="filter3836"
       x="-0.15199228"
       width="1.3039846"
       y="-0.13717861"
       height="1.2743572">
      <feGaussianBlur
         inkscape:collect="always"
         stdDeviation="0.57764145"
         id="feGaussianBlur3838" />
    </filter>
    <filter
       color-interpolation-filters="sRGB"
       inkscape:collect="always"
       id="filter5251">
      <feGaussianBlur
         inkscape:collect="always"
         stdDeviation="0.80010181"
         id="feGaussianBlur5253" />
    </filter>
    <filter
       color-interpolation-filters="sRGB"
       inkscape:collect="always"
       id="filter3914">
      <feGaussianBlur
         inkscape:collect="always"
         stdDeviation="0.2678152"
         id="feGaussianBlur3916" />
    </filter>
    <filter
       color-interpolation-filters="sRGB"
       inkscape:collect="always"
       id="filter4929">
      <feGaussianBlur
         inkscape:collect="always"
         stdDeviation="0.23158986"
         id="feGaussianBlur4931" />
    </filter>
    <filter
       color-interpolation-filters="sRGB"
       inkscape:collect="always"
       id="filter3894">
      <feGaussianBlur
         inkscape:collect="always"
         stdDeviation="0.29299987"
         id="feGaussianBlur3896" />
    </filter>
    <filter
       color-interpolation-filters="sRGB"
       inkscape:collect="always"
       id="filter3890">
      <feGaussianBlur
         inkscape:collect="always"
         stdDeviation="0.37271057"
         id="feGaussianBlur3892" />
    </filter>
    <filter
       color-interpolation-filters="sRGB"
       inkscape:collect="always"
       id="filter3926">
      <feGaussianBlur
         inkscape:collect="always"
         stdDeviation="0.39577881"
         id="feGaussianBlur3928" />
    </filter>
    <filter
       color-interpolation-filters="sRGB"
       inkscape:collect="always"
       id="filter3860">
      <feGaussianBlur
         inkscape:collect="always"
         stdDeviation="0.28816676"
         id="feGaussianBlur3862" />
    </filter>
    <filter
       inkscape:collect="always"
       id="filter3862">
      <feGaussianBlur
         inkscape:collect="always"
         stdDeviation="0.18119606"
         id="feGaussianBlur3864" />
    </filter>
    <filter
       inkscape:collect="always"
       id="filter3896">
      <feGaussianBlur
         inkscape:collect="always"
         stdDeviation="0.10128419"
         id="feGaussianBlur3898" />
    </filter>
    <filter
       inkscape:collect="always"
       id="filter3967"
       x="-0.16903922"
       width="1.3380784"
       y="-0.18162725"
       height="1.3632545">
      <feGaussianBlur
         inkscape:collect="always"
         stdDeviation="0.44912227"
         id="feGaussianBlur3969" />
    </filter>
    <filter
       inkscape:collect="always"
       id="filter4032">
      <feGaussianBlur
         inkscape:collect="always"
         stdDeviation="0.1131341"
         id="feGaussianBlur4034" />
    </filter>
    <filter
       inkscape:collect="always"
       id="filter4123"
       x="-0.19295995"
       width="1.3859199"
       y="-0.11485713"
       height="1.2297143">
      <feGaussianBlur
         inkscape:collect="always"
         stdDeviation="0.12690043"
         id="feGaussianBlur4125" />
    </filter>
    <radialGradient
       inkscape:collect="always"
       xlink:href="#linearGradient4079"
       id="radialGradient4127"
       cx="67.332977"
       cy="13.348018"
       fx="67.332977"
       fy="13.348018"
       r="1.3937432"
       gradientTransform="matrix(1,0,0,1.3850376,0,-5.1394888)"
       gradientUnits="userSpaceOnUse" />
    <filter
       inkscape:collect="always"
       id="filter4202"
       x="-0.11180318"
       width="1.2236064"
       y="-0.11453009"
       height="1.2290602">
      <feGaussianBlur
         inkscape:collect="always"
         stdDeviation="0.24705246"
         id="feGaussianBlur4204" />
    </filter>
    <filter
       inkscape:collect="always"
       id="filter4269">
      <feGaussianBlur
         inkscape:collect="always"
         stdDeviation="0.18309012"
         id="feGaussianBlur4271" />
    </filter>
    <linearGradient
       inkscape:collect="always"
       xlink:href="#linearGradient5007"
       id="linearGradient4320"
       gradientUnits="userSpaceOnUse"
       x1="56.160713"
       y1="67.160713"
       x2="51.69643"
       y2="60.642857" />
    <linearGradient
       inkscape:collect="always"
       xlink:href="#linearGradient4999"
       id="linearGradient4322"
       gradientUnits="userSpaceOnUse"
       x1="55.689735"
       y1="61.276005"
       x2="64.13871"
       y2="50.561718" />
    <linearGradient
       inkscape:collect="always"
       xlink:href="#linearGradient5041"
       id="linearGradient4324"
       gradientUnits="userSpaceOnUse"
       x1="81.44355"
       y1="70.114845"
       x2="77.529205"
       y2="89.812813" />
    <radialGradient
       inkscape:collect="always"
       xlink:href="#linearGradient4079"
       id="radialGradient4326"
       gradientUnits="userSpaceOnUse"
       gradientTransform="matrix(1,0,0,1.3850376,0,-5.1394888)"
       cx="67.332977"
       cy="13.348018"
       fx="67.332977"
       fy="13.348018"
       r="1.3937432" />
    <linearGradient
       inkscape:collect="always"
       xlink:href="#linearGradient5007"
       id="linearGradient4232"
       gradientUnits="userSpaceOnUse"
       x1="56.160713"
       y1="67.160713"
       x2="51.69643"
       y2="60.642857" />
    <linearGradient
       inkscape:collect="always"
       xlink:href="#linearGradient4999"
       id="linearGradient4234"
       gradientUnits="userSpaceOnUse"
       x1="55.689735"
       y1="61.276005"
       x2="64.13871"
       y2="50.561718" />
    <linearGradient
       inkscape:collect="always"
       xlink:href="#linearGradient5041"
       id="linearGradient4236"
       gradientUnits="userSpaceOnUse"
       x1="81.44355"
       y1="70.114845"
       x2="77.529205"
       y2="89.812813" />
    <radialGradient
       inkscape:collect="always"
       xlink:href="#linearGradient4079"
       id="radialGradient4238"
       gradientUnits="userSpaceOnUse"
       gradientTransform="matrix(1,0,0,1.3850376,0,-5.1394888)"
       cx="67.332977"
       cy="13.348018"
       fx="67.332977"
       fy="13.348018"
       r="1.3937432" />
    <linearGradient
       inkscape:collect="always"
       xlink:href="#linearGradient5007"
       id="linearGradient4283"
       gradientUnits="userSpaceOnUse"
       x1="56.160713"
       y1="67.160713"
       x2="51.69643"
       y2="60.642857" />
    <linearGradient
       inkscape:collect="always"
       xlink:href="#linearGradient4999"
       id="linearGradient4285"
       gradientUnits="userSpaceOnUse"
       x1="55.689735"
       y1="61.276005"
       x2="64.13871"
       y2="50.561718" />
    <linearGradient
       inkscape:collect="always"
       xlink:href="#linearGradient5041"
       id="linearGradient4287"
       gradientUnits="userSpaceOnUse"
       x1="81.44355"
       y1="70.114845"
       x2="77.529205"
       y2="89.812813" />
    <radialGradient
       inkscape:collect="always"
       xlink:href="#linearGradient4079"
       id="radialGradient4289"
       gradientUnits="userSpaceOnUse"
       gradientTransform="matrix(1,0,0,1.3850376,0,-5.1394888)"
       cx="67.332977"
       cy="13.348018"
       fx="67.332977"
       fy="13.348018"
       r="1.3937432" />
    <radialGradient
       inkscape:collect="always"
       xlink:href="#linearGradient4079"
       id="radialGradient4292"
       gradientUnits="userSpaceOnUse"
       gradientTransform="matrix(1,0,0,1.3850376,0,975.22269)"
       cx="67.332977"
       cy="13.348018"
       fx="67.332977"
       fy="13.348018"
       r="1.3937432" />
    <linearGradient
       inkscape:collect="always"
       xlink:href="#linearGradient5007"
       id="linearGradient4334"
       gradientUnits="userSpaceOnUse"
       x1="56.160713"
       y1="67.160713"
       x2="51.69643"
       y2="60.642857" />
    <linearGradient
       inkscape:collect="always"
       xlink:href="#linearGradient4999"
       id="linearGradient4336"
       gradientUnits="userSpaceOnUse"
       x1="55.689735"
       y1="61.276005"
       x2="64.13871"
       y2="50.561718" />
    <linearGradient
       inkscape:collect="always"
       xlink:href="#linearGradient5041"
       id="linearGradient4338"
       gradientUnits="userSpaceOnUse"
       x1="81.44355"
       y1="70.114845"
       x2="77.529205"
       y2="89.812813" />
    <linearGradient
       inkscape:collect="always"
       xlink:href="#linearGradient5007"
       id="linearGradient4379"
       gradientUnits="userSpaceOnUse"
       x1="56.160713"
       y1="67.160713"
       x2="51.69643"
       y2="60.642857" />
    <linearGradient
       inkscape:collect="always"
       xlink:href="#linearGradient4999"
       id="linearGradient4381"
       gradientUnits="userSpaceOnUse"
       x1="55.689735"
       y1="61.276005"
       x2="64.13871"
       y2="50.561718" />
    <linearGradient
       inkscape:collect="always"
       xlink:href="#linearGradient5041"
       id="linearGradient4383"
       gradientUnits="userSpaceOnUse"
       x1="81.44355"
       y1="70.114845"
       x2="77.529205"
       y2="89.812813" />
    <linearGradient
       inkscape:collect="always"
       xlink:href="#linearGradient5007"
       id="linearGradient4422"
       gradientUnits="userSpaceOnUse"
       x1="56.160713"
       y1="67.160713"
       x2="51.69643"
       y2="60.642857" />
    <linearGradient
       inkscape:collect="always"
       xlink:href="#linearGradient4999"
       id="linearGradient4424"
       gradientUnits="userSpaceOnUse"
       x1="55.689735"
       y1="61.276005"
       x2="64.13871"
       y2="50.561718" />
    <linearGradient
       inkscape:collect="always"
       xlink:href="#linearGradient5041"
       id="linearGradient4426"
       gradientUnits="userSpaceOnUse"
       x1="81.44355"
       y1="70.114845"
       x2="77.529205"
       y2="89.812813" />
    <linearGradient
       inkscape:collect="always"
       xlink:href="#linearGradient5007"
       id="linearGradient4463"
       gradientUnits="userSpaceOnUse"
       x1="56.160713"
       y1="67.160713"
       x2="51.69643"
       y2="60.642857" />
    <linearGradient
       inkscape:collect="always"
       xlink:href="#linearGradient4999"
       id="linearGradient4465"
       gradientUnits="userSpaceOnUse"
       x1="55.689735"
       y1="61.276005"
       x2="64.13871"
       y2="50.561718" />
    <linearGradient
       inkscape:collect="always"
       xlink:href="#linearGradient5041"
       id="linearGradient4467"
       gradientUnits="userSpaceOnUse"
       x1="81.44355"
       y1="70.114845"
       x2="77.529205"
       y2="89.812813" />
  </defs>
  <sodipodi:namedview
     id="base"
     pagecolor="#ffffff"
     bordercolor="#666666"
     borderopacity="1.0"
     inkscape:pageopacity="0.0"
     inkscape:pageshadow="2"
     inkscape:zoom="5.9396969"
     inkscape:cx="41.932033"
     inkscape:cy="40.380666"
     inkscape:document-units="px"
     inkscape:current-layer="g5104"
     showgrid="false"
     inkscape:window-width="1440"
     inkscape:window-height="844"
     inkscape:window-x="-4"
     inkscape:window-y="-4"
     inkscape:window-maximized="1" />
  <metadata
     id="metadata3264">
    <rdf:RDF>
      <cc:Work
         rdf:about="">
        <dc:format>image/svg+xml</dc:format>
        <dc:type
           rdf:resource="http://purl.org/dc/dcmitype/StillImage" />
        <dc:title></dc:title>
      </cc:Work>
    </rdf:RDF>
  </metadata>
  <g
     inkscape:label="Livello 1"
     inkscape:groupmode="layer"
     id="layer1"
     transform="translate(0,-980.36218)">
    <g
       id="g5104">
      <g
         id="g5009"
         inkscape:export-filename="C:\Documents and Settings\tnocentini\Documenti\Immagini\iconv\72x72\impostazioni_rosso.png"
         inkscape:export-xdpi="87.676605"
         inkscape:export-ydpi="87.676605">
        <path
           transform="matrix(0.9709004,0,0,0.95905687,-117.97303,74.442842)"
           inkscape:connector-curvature="0"
           id="path6638"
           d="m 126.98008,1018.9979 c -1.20301,-0.3117 -2.62782,-1.0976 -3.16626,-1.7464 -1.12135,-1.3511 -1.85257,-7.717 -0.88643,-7.717 0.35227,0 1.03569,-1.093 1.51871,-2.4287 0.9905,-2.7392 3.99774,-6.0108 17.01574,-18.5114 4.99179,-4.7934 9.07598,-9.22967 9.07598,-9.85836 0,-0.6287 -5.31672,-6.47378 -11.81493,-12.98908 -6.49822,-6.5153 -12.02702,-12.51422 -12.28624,-13.33093 -0.56933,-1.79382 1.42673,-5.11686 3.07355,-5.11686 1.83593,0 5.46879,2.92627 5.46879,4.40511 0,0.73734 -0.49643,1.75263 -1.10318,2.25619 -1.36557,1.13332 -0.91917,1.91187 1.94564,3.39332 2.09021,1.08089 2.21598,1.06892 2.00262,-0.1905 -0.12521,-0.7391 -0.0664,-1.50792 0.13065,-1.70849 0.19707,-0.20057 4.32181,3.71692 9.16608,8.70554 4.84427,4.98861 9.16027,9.0702 9.59111,9.0702 0.43084,0 1.68485,-0.8637 2.78669,-1.91933 1.91692,-1.83653 1.98702,-2.16413 1.62479,-7.59419 -0.36684,-5.49919 -0.30146,-5.78812 2.11212,-9.33389 2.50741,-3.68361 5.06376,-5.58572 4.08738,-3.0413 -1.54682,4.03094 -1.45175,4.84809 0.56401,4.84809 1.41146,0 2.15031,-0.52448 2.67207,-1.89682 0.39664,-1.04325 1.05397,-1.69114 1.46074,-1.43975 0.46656,0.28836 0.32203,1.26451 -0.39155,2.64442 -1.36615,2.64183 -0.69861,4.25745 2.78358,6.73699 l 2.39095,1.7025 -2.01899,-2.64703 c -1.11045,-1.45587 -2.01899,-3.33591 -2.01899,-4.17787 0,-0.86879 1.67921,-3.17515 3.88275,-5.33289 3.0731,-3.00923 3.65973,-3.93988 2.81325,-4.46303 -0.58822,-0.36355 -2.0539,-0.46411 -3.25706,-0.22348 -1.54997,0.31 -2.03326,0.18786 -1.65818,-0.41903 0.29116,-0.47111 2.16499,-0.85655 4.16407,-0.85655 2.87641,0 3.80013,0.30913 4.42772,1.48179 0.9943,1.85787 0.3123,3.16799 -3.64584,7.00365 -1.66222,1.6108 -3.02223,3.32663 -3.02223,3.81296 0,0.48632 1.18242,1.92241 2.6276,3.19129 2.95254,2.59237 3.70947,2.45303 7.32789,-1.3489 2.59336,-2.72489 3.1142,-2.81133 3.80602,-0.6316 l 0.52523,1.65484 0.65189,-1.76222 c 0.35854,-0.96923 0.46449,-2.35266 0.23545,-3.07429 -0.57555,-1.81339 0.75882,-2.43864 2.17725,-1.02021 1.65566,1.65566 1.49354,7.55675 -0.3424,12.46375 -2.79854,7.47975 -9.10649,11.4008 -17.01171,10.57454 -3.82273,-0.39955 -4.38936,-0.26878 -5.92687,1.36782 l -1.70004,1.80961 8.8159,9.309 c 14.58341,15.39909 17.3362,18.73269 17.3362,20.99359 0,2.4738 -4.53622,7.1721 -7.66854,7.9425 -1.93872,0.4769 -2.66746,-0.052 -8.89076,-6.4565 -3.72841,-3.8368 -9.25731,-9.6325 -12.28643,-12.8794 -3.02913,-3.24695 -5.92473,-6.158 -6.43467,-6.46904 -0.62184,-0.37929 -3.85774,2.82325 -9.82659,9.72534 -4.89468,5.66 -10.27232,11.466 -11.95029,12.9023 -3.24706,2.7793 -6.89464,3.6417 -10.95424,2.5897 z m 8.73981,-10.8217 c 0,-1.8821 -0.7899,-2.487 -1.9693,-1.5082 -1.48048,1.2287 -1.20194,2.8665 0.48751,2.8665 0.94296,0 1.48179,-0.494 1.48179,-1.3583 z m 11.90017,-8.77338 c 3.71562,-3.35684 6.20348,-7.64987 4.43319,-7.64987 -0.77025,0 -8.1835,8.88315 -8.1835,9.80615 0,1.0078 0.68213,0.6156 3.75031,-2.15628 z m 0.53021,-12.50771 c 1.60341,-1.12307 2.27582,-3.29202 1.02058,-3.29202 -0.34433,0 -1.12713,0.58346 -1.73954,1.29657 -2.69281,3.13558 -2.33332,4.13335 0.71896,1.99545 z"
           style="opacity:0.87540989;fill:#d5d5d5;filter:url(#filter5089)" />
        <path
           transform="matrix(0.9709004,0,0,0.95905687,-117.97303,74.442842)"
           inkscape:connector-curvature="0"
           id="path6636"
           d="m 127.83107,1018.4302 c -2.32258,-0.9371 -2.74459,-2.0721 -0.61941,-1.6658 4.79048,0.9158 6.68047,-0.2714 14.60406,-9.1729 10.49098,-11.78577 13.83694,-15.99701 13.87544,-17.46368 0.0181,-0.69007 -0.96728,-1.84552 -2.18976,-2.56766 -2.34992,-1.38813 -2.48799,-1.66272 -1.77297,-3.52603 0.66,-1.71992 2.17413,-1.43034 3.55708,0.6803 1.22877,1.87535 3.67165,2.47351 4.51682,1.10599 0.56388,-0.91237 -4.80645,-7.34542 -6.16027,-7.37931 -0.97573,-0.0244 -20.45152,-19.24584 -23.62988,-23.32125 -3.16094,-4.05307 -1.23093,-8.42055 2.20342,-4.9862 1.46826,1.46826 1.48615,1.63863 0.30875,2.93965 -1.79904,1.98792 -1.58174,2.60282 1.50002,4.2447 1.51243,0.80578 4.84646,3.42035 7.40897,5.81015 2.5625,2.38981 4.6591,3.99315 4.6591,3.56299 0,-0.43017 -0.31788,-0.97858 -0.7064,-1.2187 -0.38852,-0.24012 -1.43829,-1.51006 -2.33283,-2.82209 -0.89453,-1.31203 1.76157,0.94666 5.90246,5.01931 4.75555,4.67718 7.37935,7.7945 7.12293,8.46272 -0.43058,1.12205 4.5617,6.76644 5.90825,6.68001 0.42667,-0.0274 2.5792,-2.23417 4.78341,-4.90397 l 4.00766,-4.85418 4.01407,0.47178 c 7.73542,0.90914 13.65574,-2.42189 16.97574,-9.5513 l 1.7276,-3.70988 -0.009,2.59314 c -0.0195,5.58386 -4.96069,12.17646 -10.49551,14.00311 -1.37294,0.45312 -4.60567,0.73846 -7.18385,0.63411 -4.34473,-0.17586 -4.80006,-0.0414 -6.22524,1.83832 l -1.53763,2.02805 5.85463,6.12181 c 3.22004,3.36699 8.89646,9.29466 12.61425,13.17261 8.37111,8.7317 8.89727,9.6243 7.39058,12.538 -1.3883,2.6846 -5.56078,5.9721 -7.57987,5.9721 -0.9755,0 -5.78978,-4.6025 -13.94986,-13.3361 -6.85317,-7.33489 -12.87568,-13.33615 -13.38338,-13.33615 -0.50769,0 -4.58621,4.25089 -9.06338,9.44645 -10.09985,11.7204 -13.09299,14.621 -16.59126,16.0783 -3.09796,1.2906 -3.29047,1.305 -5.5047,0.4116 z m 3.44344,-12.8298 c 0,-0.5624 0.68632,-1.6437 1.52516,-2.4028 1.16823,-1.0572 1.81846,-1.1956 2.77837,-0.5911 1.86888,1.1769 2.06217,3.1994 0.26073,2.7283 -0.79705,-0.2084 -2.15008,0 -3.00672,0.4546 -1.23309,0.66 -1.55754,0.6206 -1.55754,-0.189 z m 42.97199,-48.76926 c 0,-1.37294 6.54551,-7.67881 7.24477,-6.97954 0.25524,0.25524 -1.27041,2.19857 -3.39035,4.3185 -2.44255,2.44255 -3.85442,3.41729 -3.85442,2.66104 z m 4.64604,-10.72049 c 0.24619,-0.2462 0.88521,-0.27252 1.42005,-0.0585 0.59104,0.23651 0.41548,0.41207 -0.44763,0.44762 -0.78102,0.0322 -1.21862,-0.14294 -0.97242,-0.38913 z"
           style="opacity:0.87540989;fill:#949494;fill-opacity:1;filter:url(#filter4929)" />
        <path
           transform="matrix(0.9709004,0,0,0.95905687,-117.97303,74.442842)"
           sodipodi:nodetypes="ccscsssssssssssssssssscssccsssssccsssscccsssccssssscscc"
           inkscape:connector-curvature="0"
           id="path6634"
           d="m 127.83107,1018.4302 c -2.32258,-0.9371 -2.74459,-2.0721 -0.61941,-1.6658 4.79048,0.9158 6.68047,-0.2714 14.60406,-9.1729 10.49098,-11.78577 13.83694,-15.99701 13.87544,-17.46368 0.0181,-0.69007 -0.96728,-1.84552 -2.18976,-2.56766 -2.34992,-1.38813 -2.48799,-1.66272 -1.77297,-3.52603 0.66,-1.71992 2.17413,-1.43034 3.55708,0.6803 1.15943,1.76951 4.35569,2.57661 5.13467,1.29657 0.44293,-0.72784 -5.79435,-7.59419 -6.89845,-7.59419 -0.88158,0 -20.51031,-19.45122 -23.50955,-23.29695 -3.16094,-4.05307 -1.23093,-8.42055 2.20342,-4.9862 1.46826,1.46826 1.48615,1.63863 0.30875,2.93965 -1.79904,1.98792 -1.58174,2.60282 1.50002,4.2447 1.51243,0.80578 4.84646,3.42035 7.40897,5.81015 2.5625,2.38981 4.6591,3.99315 4.6591,3.56299 0,-0.43017 -0.31788,-0.97858 -0.7064,-1.2187 -0.38852,-0.24012 -1.43829,-1.51006 -2.33283,-2.82209 -0.89453,-1.31203 1.76157,0.94666 5.90246,5.01931 4.76697,4.68841 7.37963,7.79377 7.12201,8.46511 -0.23909,0.62305 0.88987,2.38159 2.73761,4.26431 3.18861,3.24896 4.31776,3.87096 4.31776,2.37848 0,-0.45403 1.73305,-2.826 3.85122,-5.27103 l 3.85122,-4.44552 3.98529,0.46839 c 7.70587,0.90567 13.6316,-2.43525 16.94695,-9.55468 l 1.7276,-3.70988 -0.009,2.59314 c -0.0116,3.32827 -2.16735,7.97094 -4.88411,10.51847 -3.51905,3.29986 -7.27665,4.49265 -12.31195,3.90824 -4.12626,-0.4789 -4.51848,-0.38541 -6.55043,1.56131 -2.59159,2.4829 -2.75461,4.37301 -0.48812,5.65954 1.63314,0.92702 11.17408,10.65383 17.56217,17.63405 2.73336,2.9868 4.88948,5.4707 5.60188,6.5472 1.54646,2.3368 1.7917,3.2486 1.18082,4.3901 -1.02796,1.9207 -1.70362,6.0892 -2.88534,6.0892 -0.86544,0 -11.86067,-10.9075 -22.21888,-22.04165 -2.36934,-2.54683 -8.87716,-4.6306 -9.42639,-4.6306 -0.54923,0 -4.66174,4.25089 -9.13891,9.44645 -10.09985,11.7204 -13.09299,14.621 -16.59126,16.0783 -3.09796,1.2906 -3.29047,1.305 -5.5047,0.4116 z m 3.44344,-12.8298 c 0,-0.5624 0.68632,-1.6437 1.52516,-2.4028 1.16823,-1.0572 1.81846,-1.1956 2.77837,-0.5911 1.86888,1.1769 2.06217,3.1994 0.26073,2.7283 -0.79705,-0.2084 -2.15008,0 -3.00672,0.4546 -1.23309,0.66 -1.55754,0.6206 -1.55754,-0.189 z m 42.97199,-48.76926 c 0,-1.37294 6.54551,-7.67881 7.24477,-6.97954 0.25524,0.25524 -1.27041,2.19857 -3.39035,4.3185 -2.44255,2.44255 -3.85442,3.41729 -3.85442,2.66104 z m 4.64604,-10.72049 c 0.24619,-0.2462 0.88521,-0.27252 1.42005,-0.0585 0.59104,0.23651 0.41548,0.41207 -0.44763,0.44762 -0.78102,0.0322 -1.21862,-0.14294 -0.97242,-0.38912 z"
           style="opacity:0.87540989;fill:#f4d7d7;fill-opacity:1;filter:url(#filter4929)" />
        <path
           transform="matrix(0.9709004,0,0,0.95905687,-117.97303,74.442842)"
           inkscape:connector-curvature="0"
           id="path6632"
           d="m 127.83107,1018.4302 c -2.32258,-0.9371 -2.74459,-2.0721 -0.61941,-1.6658 4.79048,0.9158 6.68047,-0.2714 14.60406,-9.1729 10.49098,-11.78577 13.83694,-15.99701 13.87544,-17.46368 0.0181,-0.69007 -0.96728,-1.84552 -2.18976,-2.56766 -2.34992,-1.38813 -2.48799,-1.66272 -1.77297,-3.52603 0.66,-1.71992 2.17413,-1.43034 3.55708,0.6803 0.6675,1.01874 1.67827,1.85224 2.24616,1.85224 0.56789,0 1.14733,0.34441 1.28764,0.76535 0.14031,0.42093 1.39978,-0.0792 2.79882,-1.11135 4.55146,-3.35796 5.45955,-2.91077 16.12364,7.94019 16.92671,17.22334 16.47039,16.50824 13.09498,20.51974 -3.6309,4.3151 -4.20065,4.2773 -9.47283,-0.6274 -2.61183,-2.4297 -4.62103,-4.5455 -4.46491,-4.7016 0.15613,-0.1561 -1.11117,-1.5958 -2.81623,-3.1993 -1.70506,-1.6035 -2.62589,-2.2487 -2.04629,-1.4337 0.81265,1.1427 0.5979,1.0757 -0.93839,-0.2929 -1.09571,-0.9761 -1.83407,-2.0306 -1.64079,-2.3433 0.19327,-0.3127 -1.06726,-1.7958 -2.8012,-3.29582 -1.73393,-1.49997 -2.6525,-2.47194 -2.04126,-2.15993 0.75414,0.38495 0.66626,0.0595 -0.27344,-1.01246 -0.76164,-0.86886 -1.74669,-1.50962 -2.18902,-1.42392 -0.44232,0.0857 -0.82448,-0.17759 -0.84924,-0.58508 -0.0248,-0.40749 -0.3076,-1.15433 -0.62852,-1.65964 -0.79362,-1.24959 -1.21254,-0.85556 -10.8228,10.17995 -10.12955,11.6318 -13.06296,14.4546 -16.51606,15.8931 -3.09796,1.2906 -3.29047,1.305 -5.5047,0.4116 z m 3.44344,-12.8298 c 0,-0.5624 0.68632,-1.6437 1.52516,-2.4028 1.16823,-1.0572 1.81846,-1.1956 2.77837,-0.5911 1.86888,1.1769 2.06217,3.1994 0.26073,2.7283 -0.79705,-0.2084 -2.15008,0 -3.00672,0.4546 -1.23309,0.66 -1.55754,0.6206 -1.55754,-0.189 z m 26.12605,-23.80423 c -1.63604,-1.85865 -3.3694,-3.37936 -3.8519,-3.37936 -0.90108,0 -20.48631,-19.38591 -23.53648,-23.29695 -3.16094,-4.05307 -1.23093,-8.42055 2.20342,-4.9862 1.46826,1.46826 1.48615,1.63863 0.30875,2.93965 -1.79904,1.98792 -1.58174,2.60282 1.50002,4.2447 1.51243,0.80578 4.84646,3.42035 7.40897,5.81015 2.5625,2.38981 4.6591,3.99315 4.6591,3.56299 0,-0.43017 -0.31788,-0.97858 -0.7064,-1.2187 -0.38852,-0.24012 -1.43829,-1.51006 -2.33283,-2.82209 -0.89453,-1.31203 1.76157,0.94666 5.90246,5.01931 4.76697,4.68841 7.37963,7.79377 7.12201,8.46511 -0.23906,0.62298 0.88884,2.38054 2.7346,4.26124 2.22272,2.26478 2.91064,3.43177 2.35219,3.99022 -0.55845,0.55845 -1.65925,-0.19905 -3.76391,-2.59007 z m 5.73249,0.54372 c 0,-0.21331 1.73305,-2.38832 3.85122,-4.83335 l 3.85122,-4.44552 3.98529,0.46839 c 7.70587,0.90567 13.6316,-2.43525 16.94695,-9.55468 l 1.7276,-3.70988 -0.009,2.59314 c -0.0116,3.32827 -2.16735,7.97094 -4.88411,10.51847 -3.52294,3.30351 -7.22005,4.46747 -12.42095,3.9105 -4.07383,-0.43627 -4.69868,-0.31876 -6.01001,1.13024 -1.42191,1.5712 -7.03817,4.70139 -7.03817,3.92269 z m 11.11345,-25.50875 c 0,-1.37294 6.54551,-7.67881 7.24477,-6.97954 0.25524,0.25524 -1.27041,2.19857 -3.39035,4.3185 -2.44255,2.44255 -3.85442,3.41729 -3.85442,2.66104 z m 4.64604,-10.72049 c 0.24619,-0.2462 0.88521,-0.27252 1.42005,-0.0585 0.59104,0.23651 0.41548,0.41207 -0.44763,0.44762 -0.78102,0.0322 -1.21862,-0.14294 -0.97242,-0.38913 z"
           style="opacity:0.57403929;fill:#b2b2b2;filter:url(#filter4929)" />
        <path
           transform="matrix(0.9709004,0,0,0.95905687,-117.97303,74.442842)"
           inkscape:connector-curvature="0"
           id="path6630"
           d="m 181.39969,1013.8546 c -7.12642,-7.3077 -23.45291,-24.53489 -23.45291,-24.74672 0,-0.10468 1.39929,-1.21938 3.10954,-2.47711 5.1799,-3.80934 5.82936,-3.51623 16.68545,7.53009 16.92671,17.22334 16.47039,16.50824 13.09498,20.51974 -3.74354,4.4489 -4.34432,4.3964 -9.43706,-0.826 z"
           style="opacity:0.87540989000000002;fill:#e9afaf;fill-opacity:1;filter:url(#filter4959)" />
        <path
           transform="matrix(0.9709004,0,0,0.95905687,-117.97303,74.442842)"
           inkscape:connector-curvature="0"
           id="path6628"
           d="m 178.42574,1010.4606 c -3.76087,-3.9731 -9.32371,-9.9386 -12.36188,-13.25685 -3.03817,-3.3182 -6.14658,-6.27038 -6.90759,-6.56041 -1.32223,-0.50391 -1.31308,-0.59787 0.20615,-2.11677 1.20189,-1.20162 2.43355,-1.57128 5.04775,-1.51498 3.45205,0.0744 3.47653,0.0935 14.32566,11.18417 11.82835,12.09174 12.97978,14.09764 10.15432,17.68964 -0.77828,0.9894 -1.91263,1.7989 -2.52077,1.7989 -0.60814,0 -4.18278,-3.2507 -7.94364,-7.2237 z"
           style="opacity:0.87540989000000002;fill:#d35f5f;fill-opacity:1;filter:url(#filter4951)" />
        <path
           transform="matrix(0.9709004,0,0,0.95905687,-117.97303,74.442842)"
           inkscape:connector-curvature="0"
           id="path6626"
           d="m 179.39715,1011.2191 c -3.48328,-3.5753 -9.13565,-9.5011 -12.56083,-13.16853 -3.42518,-3.66744 -6.84909,-7.02528 -7.6087,-7.46186 -1.23734,-0.71117 -1.2612,-0.89331 -0.22925,-1.74975 2.7727,-2.30114 5.41701,-0.33587 19.16165,14.24114 6.81137,7.2238 9.38737,10.4672 9.55863,12.035 0.42078,3.8521 -1.77362,2.8247 -8.3215,-3.896 z"
           style="opacity:0.87540989000000002;fill:#aa0000;fill-opacity:1;filter:url(#filter4929)" />
        <path
           transform="matrix(0.9709004,0,0,0.95905687,-9.2321852,970.54931)"
           inkscape:connector-curvature="0"
           id="path4963"
           d="m 47.729708,57.487934 25.127544,25.506352 0.126269,-0.252538"
           style="opacity:0.75701402;fill:none;stroke:#000000;stroke-width:1px;stroke-linecap:butt;stroke-linejoin:miter;stroke-opacity:1;filter:url(#filter4929)" />
        <path
           sodipodi:nodetypes="cccccc"
           transform="matrix(0.9709004,0,0,0.95905687,-9.2321852,970.54931)"
           inkscape:connector-curvature="0"
           id="path4983"
           d="m 56.189735,48.396561 10.629704,10.896782 2.582064,2.64694 5.04449,5.171236 6.871287,7.043932 0,0"
           style="opacity:0.7175491;fill:url(#linearGradient4463);fill-opacity:1;stroke:url(#linearGradient4465);stroke-width:0.40000001;stroke-linecap:butt;stroke-linejoin:miter;stroke-miterlimit:4;stroke-opacity:1;stroke-dasharray:none;filter:url(#filter4929)" />
        <path
           transform="matrix(0.9709004,0,0,0.95905687,-9.2321852,970.54931)"
           inkscape:connector-curvature="0"
           id="path4987"
           d="M 82.70624,76.428294 z"
           style="opacity:0.87540989;fill:none;stroke:#000000;stroke-width:1px;stroke-linecap:butt;stroke-linejoin:miter;stroke-opacity:1;filter:url(#filter4929)" />
        <path
           transform="matrix(0.9709004,0,0,0.95905687,-119.21541,73.579263)"
           inkscape:connector-curvature="0"
           id="path5013"
           d="m 163.78825,987.97401 25.75889,26.38999 0,0"
           style="opacity:0.6689814;fill:none;stroke:#000000;stroke-width:1px;stroke-linecap:butt;stroke-linejoin:miter;stroke-opacity:1;filter:url(#filter3930)" />
        <path
           transform="matrix(1.008744,0,0,1.0073579,-126.27474,26.617682)"
           inkscape:connector-curvature="0"
           id="path5015"
           d="m 166.86204,984.35554 24.87501,26.01136"
           style="opacity:0.73000004;fill:#f4d7d7;fill-opacity:1;stroke:#000000;stroke-width:1px;stroke-linecap:butt;stroke-linejoin:miter;stroke-opacity:1;filter:url(#filter5057)" />
        <path
           sodipodi:nodetypes="csssscc"
           transform="matrix(0.9709004,0,0,0.95905687,-9.2321852,970.54931)"
           inkscape:connector-curvature="0"
           id="path5017"
           d="m 72.857252,83.246824 c 0,0 1.303388,0.815227 2.020306,0.757615 0.676495,-0.05436 1.220698,-0.608511 1.767766,-1.010153 1.896619,-1.392445 3.920998,-2.80864 5.177032,-4.798225 0.376643,-0.59661 0.72296,-1.320726 0.631346,-2.020305 -0.122816,-0.93784 -1.515229,-2.399112 -1.515229,-2.399112 l 0.32016,0"
           style="opacity:0.76777757000000002;fill:#de8787;fill-opacity:0.66839379;stroke:#000000;stroke-width:0.69999999000000002;stroke-linecap:butt;stroke-linejoin:miter;stroke-miterlimit:4;stroke-opacity:0.87046628999999998;stroke-dasharray:none;filter:url(#filter5031)" />
        <path
           transform="matrix(0.9709004,0,0,0.95905687,-117.97303,74.442842)"
           sodipodi:nodetypes="cscccccc"
           inkscape:connector-curvature="0"
           id="path5075"
           d="m 123.07143,1014.2551 c 0,0 0.97003,1.3005 1.60715,1.7857 0.63535,0.4838 2.14285,1.0714 2.14285,1.0714 l 3.39286,0.5357 2.32143,-0.3571 2.32143,-0.8929 2.5,-1.7857 20.71428,-25.00002"
           style="opacity:0.79647947;fill:none;stroke:#000000;stroke-width:1.29999995;stroke-linecap:round;stroke-linejoin:round;stroke-miterlimit:4.69999981;stroke-opacity:1;stroke-dasharray:none;filter:url(#filter5229)" />
        <path
           transform="matrix(0.9709004,0,0,0.95905687,-119.97303,72.442842)"
           inkscape:connector-curvature="0"
           id="path5013-7"
           d="m 161.97769,991.09575 25.75889,26.38995 0,0"
           style="opacity:0.82349692;fill:#d40000;stroke:#000000;stroke-width:1px;stroke-linecap:butt;stroke-linejoin:miter;stroke-opacity:1;filter:url(#filter4929)" />
        <path
           transform="matrix(0.9709004,0,0,0.95905687,-9.2321852,970.54931)"
           inkscape:connector-curvature="0"
           id="path5117"
           d="m 71.468293,14.114509 -0.947018,1.767767 -6.629126,7.449875 -0.315673,0.631346 0,0.631345 4.103745,4.04061 0.947018,0.757614 1.325825,0.315673 1.325825,-0.568211 8.965104,-9.091373 0.568211,-0.189403 0.631345,0.315672 0.631345,0.69448 0.441942,0.820749 0,0 0,0 -0.126269,-0.252538"
           style="opacity:0.87540989;fill:none;stroke:#000000;stroke-width:0.60000002;stroke-linecap:round;stroke-linejoin:miter;stroke-miterlimit:4;stroke-opacity:1;stroke-dasharray:none;filter:url(#filter5173)" />
        <path
           sodipodi:nodetypes="cssccc"
           transform="matrix(0.9709004,0,0,0.95905687,-9.2321852,970.54931)"
           inkscape:connector-curvature="0"
           id="path5119"
           d="m 10.892857,80.642857 c 0,0 -0.52588,-2.367674 -0.535714,-3.571428 -0.0074,-0.900729 0.05202,-1.831065 0.357143,-2.678572 0.570652,-1.585045 2.678571,-4.285714 2.678571,-4.285714 l 35.535714,-35.178572 0,0"
           style="opacity:0.80660035;fill:none;stroke:#656565;stroke-width:0.60000002;stroke-linecap:butt;stroke-linejoin:miter;stroke-miterlimit:4;stroke-opacity:1;stroke-dasharray:none;filter:url(#filter3918)" />
        <path
           transform="matrix(0.9709004,0,0,0.95905687,-9.2321852,970.54931)"
           inkscape:connector-curvature="0"
           id="path5121"
           d="m 20.178571,74.75 -0.714285,-2.321429 0.357143,-2.142857 0.892857,-1.071428 1.071428,-0.714286 1.25,-0.357143 1.25,0.535714 L 25,69.75 25.357143,70.821429 25,72.607143 l 0,0"
           style="opacity:0.60781735;fill:none;stroke:#000000;stroke-width:1px;stroke-linecap:butt;stroke-linejoin:miter;stroke-opacity:1;filter:url(#filter5329)" />
        <path
           sodipodi:nodetypes="cssscsscc"
           transform="matrix(0.9709004,0,0,0.95905687,-9.2321852,970.54931)"
           inkscape:connector-curvature="0"
           id="path5123"
           d="m 47.946433,57.517857 c 0,0 -0.848273,-0.347623 -1.071429,-0.714286 C 46.734889,56.573351 46.77403,56.269252 46.785714,56 46.81203,55.393545 46.864566,54.753762 47.142857,54.214286 47.779918,52.979322 50,51.178571 50,51.178571 c 0,0 1.806466,-1.794627 2.857143,-2.5 0.773541,-0.519317 1.580336,-1.399241 2.5,-1.25 0.249277,0.04045 0.535714,0.535715 0.535714,0.535715 l 0,0"
           style="opacity:0.87540989;fill:none;stroke:#000000;stroke-width:1px;stroke-linecap:butt;stroke-linejoin:miter;stroke-opacity:1;filter:url(#filter3836)" />
        <path
           transform="matrix(0.9709004,0,0,0.95905687,-117.97303,74.442842)"
           sodipodi:nodetypes="csssssssssssssc"
           inkscape:connector-curvature="0"
           id="path5125"
           d="m 166.47958,981.0025 c 0,0 2.15049,-2.52234 3.48214,-3.48215 0.37792,-0.27238 0.79301,-0.53459 1.25,-0.625 1.20024,-0.23743 2.43803,0.22319 3.66071,0.26786 0.92201,0.0337 1.84572,0.0297 2.76786,0 0.92406,-0.0298 1.85379,-0.0398 2.76786,-0.17857 0.87783,-0.13324 1.75321,-0.32614 2.58928,-0.625 0.90249,-0.3226 1.76609,-0.7592 2.58929,-1.25 0.5676,-0.3384 1.12086,-0.71327 1.60714,-1.16071 0.60576,-0.55738 1.12081,-1.21086 1.60715,-1.875 0.60016,-0.81959 1.10327,-1.70722 1.60714,-2.58929 0.34996,-0.61264 0.68303,-1.23599 0.98214,-1.875 0.56001,-1.19639 1.1359,-2.39617 1.51786,-3.66071 0.44725,-1.48069 0.74335,-3.01406 0.89286,-4.55358 0.12657,-1.30339 0,-3.92857 0,-3.92857"
           style="opacity:0.79647947;fill:none;stroke:#000000;stroke-width:1.29999995;stroke-linecap:butt;stroke-linejoin:miter;stroke-miterlimit:4;stroke-opacity:1;stroke-dasharray:none;filter:url(#filter5251)" />
        <path
           sodipodi:nodetypes="csssssssssssssssssc"
           transform="matrix(0.9709004,0,0,0.95905687,-9.2321852,970.54931)"
           inkscape:connector-curvature="0"
           id="path5127"
           d="m 48.928572,34.660714 c 0,0 0.296293,-0.516836 0.357142,-0.803571 0.06796,-0.320249 0.02815,-0.655975 0,-0.982143 -0.05974,-0.692225 -0.254499,-1.366397 -0.357142,-2.053572 -0.14179,-0.949261 -0.276707,-1.900726 -0.357143,-2.857142 -0.05742,-0.68276 -0.158213,-1.371877 -0.08929,-2.053572 0.08641,-0.854623 0.332217,-1.692457 0.625,-2.5 0.349354,-0.963575 0.835103,-1.875487 1.339286,-2.767857 0.402005,-0.711522 0.870649,-1.384056 1.339285,-2.053571 0.597336,-0.853381 1.154146,-1.748044 1.875,-2.5 0.878166,-0.916055 1.881289,-1.720927 2.946429,-2.410715 0.670311,-0.434095 1.400007,-0.778292 2.142857,-1.071428 0.779599,-0.307638 1.593626,-0.527783 2.410714,-0.714286 1.087603,-0.248249 2.193036,-0.429801 3.303572,-0.535714 1.007769,-0.09611 2.024797,-0.142981 3.035714,-0.08929 0.659892,0.03505 1.332899,0.07283 1.964286,0.267857 0.445098,0.137484 0.892345,0.326509 1.25,0.625 0.228499,0.1907 0.369649,0.46731 0.535718,0.71429 0.193667,0.288024 0.535714,0.892857 0.535714,0.892857"
           style="opacity:0.8142459;fill:none;stroke:#828282;stroke-width:0.69999999;stroke-linecap:butt;stroke-linejoin:miter;stroke-miterlimit:4;stroke-opacity:1;stroke-dasharray:none;filter:url(#filter3914)" />
        <path
           sodipodi:nodetypes="cssscsscc"
           transform="matrix(1.0916854,0,0,1.0783684,-138.32341,-42.362468)"
           inkscape:connector-curvature="0"
           id="path5123-5"
           d="m 159.48216,990.13895 c 0,0 -0.84827,-0.34763 -1.07143,-0.71429 -0.14012,-0.23022 -0.10098,-0.53432 -0.0893,-0.80357 0.0263,-0.60645 0.0789,-1.24623 0.35714,-1.78571 0.63706,-1.23497 2.85715,-3.03572 2.85715,-3.03572 0,0 1.80646,-1.79463 2.85714,-2.5 0.77354,-0.51932 1.58034,-1.39925 2.5,-1.25 0.24928,0.0404 0.53571,0.53572 0.53571,0.53572 l 0,0"
           style="opacity:0.76634246;fill:none;stroke:#000000;stroke-width:0.73283195;stroke-linecap:butt;stroke-linejoin:miter;stroke-miterlimit:4;stroke-opacity:1;stroke-dasharray:none;filter:url(#filter4929)" />
        <path
           transform="matrix(0.9709004,0,0,0.95905687,-117.97303,74.442842)"
           inkscape:connector-curvature="0"
           id="path5149"
           d="m 161.53946,982.1274 -24.24366,-25.50635 -2.08151,-4.65173 -4.64286,-4.10714 -3.03572,2.85714 3.21429,3.92857 3.21429,-2.85714 -3.75,-3.39286"
           style="opacity:0.87540989;fill:none;stroke:#000000;stroke-width:0.40000001;stroke-linecap:butt;stroke-linejoin:miter;stroke-miterlimit:4;stroke-opacity:0.75129532;stroke-dasharray:none;filter:url(#filter3894)" />
        <path
           transform="matrix(0.9709004,0,0,0.95905687,-117.97303,74.442842)"
           inkscape:connector-curvature="0"
           id="path5151"
           d="m 135.73723,959.02016 23.99113,25.63262"
           style="opacity:0.75690463;fill:none;stroke:#000000;stroke-width:1px;stroke-linecap:butt;stroke-linejoin:miter;stroke-opacity:1;filter:url(#filter3890)" />
        <path
           transform="matrix(0.9709004,0,0,0.95905687,-117.97303,74.442842)"
           inkscape:connector-curvature="0"
           id="path5117-2"
           d="m 183.33237,948.01147 -0.94702,1.76776 -6.62912,7.44988 -0.31567,0.63134 0,0.63135 4.10374,4.04061 0.94702,0.75761 1.32582,0.31568 1.32583,-0.56821 8.9651,-9.09138 0.56821,-0.1894 0.63135,0.31567 0.63134,0.69448 0.44195,0.82075 0,0 0,0 -0.12627,-0.25254"
           style="opacity:0.76634246;fill:none;stroke:#000000;stroke-width:0.5;stroke-linecap:round;stroke-linejoin:miter;stroke-miterlimit:4;stroke-opacity:0.49519234;stroke-dasharray:none;filter:url(#filter4929)" />
        <path
           transform="matrix(0.9709004,0,0,0.95905687,-117.97303,74.442842)"
           sodipodi:nodetypes="cscccccc"
           inkscape:connector-curvature="0"
           id="path5075-9"
           d="m 122.89285,1015.0587 c 0,0 0.97002,1.3006 1.60714,1.7857 0.63536,0.4838 2.14286,1.0715 2.14286,1.0715 l 3.39285,0.5357 2.32143,-0.3572 2.32143,-0.8928 2.5,-1.7857 20.71429,-25.00015"
           style="opacity:0.87540989;fill:none;stroke:#000000;stroke-width:0.40000001;stroke-linecap:round;stroke-linejoin:round;stroke-miterlimit:4.69999981;stroke-opacity:0.3557692;stroke-dasharray:none;filter:url(#filter4929)" />
        <path
           transform="matrix(0.9709004,0,0,0.95905687,-117.97303,74.442842)"
           sodipodi:nodetypes="csssssssssssssc"
           inkscape:connector-curvature="0"
           id="path5125-2"
           d="m 167.03332,980.73069 c 0,0 2.15049,-2.5223 3.48214,-3.4821 0.37792,-0.2724 0.79301,-0.5346 1.25,-0.625 1.20024,-0.23743 2.43803,0.2232 3.66072,0.2679 0.922,0.034 1.84571,0.03 2.76785,0 0.92406,-0.03 1.85379,-0.04 2.76786,-0.1786 0.87783,-0.1333 1.75321,-0.32614 2.58929,-0.625 0.90248,-0.3226 1.76608,-0.75921 2.58928,-1.25 0.5676,-0.33841 1.12086,-0.71327 1.60715,-1.16072 0.60575,-0.55738 1.1208,-1.21085 1.60714,-1.875 0.60016,-0.81959 1.10327,-1.70722 1.60714,-2.58928 0.34996,-0.61264 0.68304,-1.23599 0.98214,-1.875 0.56001,-1.1964 1.1359,-2.39617 1.51786,-3.66072 0.44725,-1.48068 0.74335,-3.01405 0.89286,-4.55357 0.12658,-1.30339 0,-3.92857 0,-3.92857"
           style="opacity:0.87540989;fill:none;stroke:#000000;stroke-width:0.40000001;stroke-linecap:butt;stroke-linejoin:miter;stroke-miterlimit:4;stroke-opacity:0.22596154;stroke-dasharray:none;filter:url(#filter4929)" />
        <path
           transform="matrix(0.9709004,0,0,0.95905687,-117.97303,74.442842)"
           sodipodi:nodetypes="cssccc"
           inkscape:connector-curvature="0"
           id="path5119-8"
           d="m 132.50791,1009.7617 c 0,0 -0.90469,-0.4737 -0.91452,-1.6775 -0.007,-0.9007 0.052,-1.831 0.35714,-2.6785 0.57065,-1.5851 2.67857,-3.5283 2.67857,-3.5283 l 25.89285,-24.329 0.32651,-0.009"
           style="opacity:0.8446988;fill:none;stroke:#656565;stroke-width:0.5;stroke-linecap:butt;stroke-linejoin:miter;stroke-miterlimit:4;stroke-opacity:1;stroke-dasharray:none;filter:url(#filter3926)" />
        <path
           sodipodi:nodetypes="csscsscc"
           transform="matrix(0.9709004,0,0,0.95905687,-9.2321852,970.54931)"
           inkscape:connector-curvature="0"
           id="path5333"
           d="m 20.203051,74.534258 c 0,0 0.772689,0.729424 1.262691,0.883884 0.361283,0.113884 0.757614,0 1.136421,0 0.336718,0 0.378808,-0.252538 0.378808,-0.252538 0,0 0.868435,-0.260873 1.010152,-0.505077 0.380853,-0.656279 0.806311,-1.287844 1.262691,-1.894036 7.364478,-9.781948 23.738584,-28.031733 23.738584,-28.031733 l -0.252538,0"
           style="opacity:0.87540989;fill:none;stroke:#000000;stroke-width:0.5;stroke-linecap:butt;stroke-linejoin:miter;stroke-miterlimit:4;stroke-opacity:0.25;stroke-dasharray:none;filter:url(#filter4929)" />
        <path
           sodipodi:nodetypes="ccc"
           transform="matrix(0.9709004,0,0,0.95905687,-9.2321852,970.54931)"
           inkscape:connector-curvature="0"
           id="path3840"
           d="m 15.446429,16.714286 3.660714,5.178572 5,3.214285"
           style="opacity:0.43579359;fill:none;stroke:#000000;stroke-width:1px;stroke-linecap:butt;stroke-linejoin:miter;stroke-opacity:1;filter:url(#filter3860)" />
        <path
           transform="matrix(0.9709004,0,0,0.95905687,-117.97303,74.442842)"
           inkscape:connector-curvature="0"
           id="path3842"
           d="m 136.73216,957.86218 24.28571,25.53571 0,0"
           style="opacity:0.82189146;fill:#9e9e9e;fill-opacity:0.6627451;stroke:#ffffff;stroke-width:1.89999998;stroke-linecap:butt;stroke-linejoin:miter;stroke-miterlimit:4;stroke-opacity:1;stroke-dasharray:none;filter:url(#filter4929)" />
        <path
           transform="matrix(0.9709004,0,0,0.95905687,-9.2321852,970.54931)"
           inkscape:connector-curvature="0"
           id="path3950"
           d="m 16.28871,16.07168 c 1.515229,-1.767767 1.641498,-1.767767 1.641498,-1.767767 l 3.409264,2.525382 -2.525381,2.904188 z"
           style="opacity:0.87540989;fill:#9d9d9d;fill-opacity:1;stroke:none;filter:url(#filter4929)" />
        <path
           inkscape:connector-curvature="0"
           id="path3076"
           d="m 25.06441,1030.5176 2.146574,-2.3991 1.262691,-1.6415 0.757614,-0.8207 0.441942,-0.2526 0.378807,0.3157 0.126269,0.4419 -0.631345,1.1996 -1.641498,2.5254 -1.894036,2.0203 -2.020305,2.2097 -1.136422,0.8839 -0.56821,0.3157 -0.252538,-0.3157 -0.06313,-0.5051 1.452094,-2.0834 z"
           style="fill:#fafafa;fill-opacity:1;stroke:#fafafa;stroke-width:0.30000001;stroke-linecap:butt;stroke-linejoin:miter;stroke-miterlimit:4;stroke-opacity:1;stroke-dasharray:none;filter:url(#filter3862)" />
        <path
           inkscape:connector-curvature="0"
           id="path3866"
           d="m 44.194174,985.94465 0.883884,-1.07329 1.136421,-0.82075 1.325825,-0.75761 1.38896,-0.31567 1.262691,-0.50508 0.820749,0 0.505076,0.1894 0.189404,0.50508 -0.505077,0.1894 1.262691,-0.44194 1.515229,-0.1894 1.38896,0.1894 0.883883,0.37881 0,0.56821 -0.947018,1.26269 -1.452094,1.38896 -1.452094,1.45209 -0.883884,1.19956 -1.136422,1.89404 -0.56821,1.26269 0.126269,1.07328 0.441941,0.94702 0.757615,1.13642 0.505076,0.94702 0.757615,0.88389 0.189403,0.75761 -0.69448,-0.1894 -2.146574,-1.89404 -1.325825,-1.45209 -0.315673,-1.13643 0.126269,-1.45209 0.631346,-1.32583 0.252538,-0.63134 0.189403,-0.82075 -0.126269,-0.56821 -0.441941,-0.44194 -0.568211,0.50507 -0.505076,0.94702 -0.505077,0.82075 -0.631345,0.75762 -0.757615,0.25253 -1.073287,0 -0.883883,-0.25253 -0.315673,-0.63135 0.126269,-0.88388 0.441942,-1.13642 0.441942,-1.38896 0.252538,-0.88389 z"
           style="fill:#fafafa;fill-opacity:1;stroke:#fafafa;stroke-width:0;stroke-linecap:butt;stroke-linejoin:miter;stroke-miterlimit:4;stroke-opacity:1;stroke-dasharray:none;filter:url(#filter3896)" />
        <path
           inkscape:connector-curvature="0"
           id="path3937"
           d="m 25.190679,1016.6912 2.525382,-2.7148 3.851206,3.3461 -2.588516,2.5885 z"
           style="opacity:0.79000005;fill:#b4bfc5;fill-opacity:0.87843137;stroke:none;filter:url(#filter3967)" />
        <path
           inkscape:connector-curvature="0"
           id="path4010"
           d="m 23.738585,1021.4263 0.315673,-0.9471 1.073287,-1.2627 0.441941,-0.4419 0.568211,-0.4419 0.568211,-0.1894 0.441942,0.1894 0.126269,0.505 -0.189404,0.6945 -0.505076,0.6314 -1.010153,0.6944 -0.694479,0.5683 -0.69448,0.3788 z"
           style="opacity:0.98999999;fill:#fafafa;fill-opacity:1;stroke:#fafafa;stroke-width:0.2;stroke-linecap:butt;stroke-linejoin:miter;stroke-miterlimit:4;stroke-opacity:1;stroke-dasharray:none;filter:url(#filter4032)" />
        <path
           inkscape:connector-curvature="0"
           id="path4077"
           d="m 66.543799,993.83647 1.010153,-1.19956 0.378807,-0.25254 0.189404,0.37881 -0.252538,1.45209 -0.252539,0.82075 -0.631345,-0.44194 z"
           style="fill:url(#radialGradient4292);fill-opacity:1;stroke:#fafafa;stroke-width:0.60000002;stroke-linecap:butt;stroke-linejoin:miter;stroke-miterlimit:4;stroke-opacity:1;stroke-dasharray:none;filter:url(#filter4123)" />
        <path
           inkscape:connector-curvature="0"
           id="path4172"
           d="m 6.376588,986.19719 0.6313453,-0.75762 1.1995562,-1.07328 0.3788072,-0.18941 0.3788072,0.0631 2.1465741,1.95717 0.568211,0.63134 -0.315673,0.88389 -2.0834394,1.64149 -0.5050763,-0.0631 -1.0732871,-1.45209 z"
           style="fill:#9d9d9d;fill-opacity:0.87843137;stroke:#9d9d9d;stroke-width:0.2;stroke-linecap:butt;stroke-linejoin:miter;stroke-miterlimit:4;stroke-opacity:1;stroke-dasharray:none;filter:url(#filter4202)" />
        <path
           inkscape:connector-curvature="0"
           id="path4251"
           d="m 14.268405,993.14199 -0.505076,-0.75762 -1.767767,-0.88388 -0.631346,-0.82075 0,-0.69448 0.568211,-0.75761 0.757614,-0.56822 0.505077,0 0.757614,1.4521 0.947018,2.0203 0.568211,0.44195 2.777919,3.03045 -0.947018,0.82075 z"
           style="fill:none;stroke:#fafafa;stroke-width:0.2;stroke-linecap:butt;stroke-linejoin:miter;stroke-miterlimit:4;stroke-opacity:1;stroke-dasharray:none;filter:url(#filter4269)" />
      </g>
    </g>
  </g>
</svg>
