<?xml version="1.0" encoding="UTF-8" standalone="no"?>
<!-- Created with Inkscape (http://www.inkscape.org/) -->

<svg
   xmlns:dc="http://purl.org/dc/elements/1.1/"
   xmlns:cc="http://creativecommons.org/ns#"
   xmlns:rdf="http://www.w3.org/1999/02/22-rdf-syntax-ns#"
   xmlns:svg="http://www.w3.org/2000/svg"
   xmlns="http://www.w3.org/2000/svg"
   xmlns:xlink="http://www.w3.org/1999/xlink"
   xmlns:sodipodi="http://sodipodi.sourceforge.net/DTD/sodipodi-0.dtd"
   xmlns:inkscape="http://www.inkscape.org/namespaces/inkscape"
   width="72"
   height="72"
   id="svg3259"
   version="1.1"
   inkscape:version="0.48.2 r9819"
   sodipodi:docname="mappa72_2.svg"
   inkscape:export-filename="C:\Documents and Settings\tnocentini\Documenti\Immagini\iconv\36x36\mappa_rosso.png"
   inkscape:export-xdpi="45"
   inkscape:export-ydpi="45">
  <defs
     id="defs3261">
    <radialGradient
       inkscape:collect="always"
       xlink:href="#linearGradient3883"
       id="radialGradient3889"
       cx="57.07362"
       cy="-46.936584"
       fx="57.07362"
       fy="-46.936584"
       r="42.43737"
       gradientTransform="matrix(1,0,0,0.96341457,0,-1.7171953)"
       gradientUnits="userSpaceOnUse" />
    <linearGradient
       inkscape:collect="always"
       id="linearGradient3883">
      <stop
         style="stop-color:#000e7a;stop-opacity:1;"
         offset="0"
         id="stop3885" />
      <stop
         style="stop-color:#000e7a;stop-opacity:0;"
         offset="1"
         id="stop3887" />
    </linearGradient>
    <linearGradient
       inkscape:collect="always"
       id="linearGradient3931">
      <stop
         style="stop-color:#f8fbf6;stop-opacity:1;"
         offset="0"
         id="stop3933" />
      <stop
         style="stop-color:#f8fbf6;stop-opacity:0;"
         offset="1"
         id="stop3935" />
    </linearGradient>
    <linearGradient
       inkscape:collect="always"
       xlink:href="#linearGradient3931"
       id="linearGradient4238"
       gradientUnits="userSpaceOnUse"
       x1="33.672955"
       y1="39.036621"
       x2="-8.9180574"
       y2="88.755615" />
    <linearGradient
       inkscape:collect="always"
       xlink:href="#linearGradient3923"
       id="linearGradient4240"
       gradientUnits="userSpaceOnUse"
       x1="88.388344"
       y1="49.532982"
       x2="70.934761"
       y2="59.497086" />
    <linearGradient
       inkscape:collect="always"
       id="linearGradient3923">
      <stop
         style="stop-color:#f8fbf6;stop-opacity:1;"
         offset="0"
         id="stop3925" />
      <stop
         style="stop-color:#f8fbf6;stop-opacity:0;"
         offset="1"
         id="stop3927" />
    </linearGradient>
    <linearGradient
       inkscape:collect="always"
       xlink:href="#linearGradient4013"
       id="linearGradient4242"
       gradientUnits="userSpaceOnUse"
       gradientTransform="matrix(1.131579,0,0,1.0979383,-6.9191736,-101.41817)"
       x1="60.357143"
       y1="1028.7908"
       x2="42.491695"
       y2="1024.3391" />
    <linearGradient
       inkscape:collect="always"
       id="linearGradient4013">
      <stop
         style="stop-color:#000f00;stop-opacity:1;"
         offset="0"
         id="stop4015" />
      <stop
         style="stop-color:#cccccc;stop-opacity:0.03108808"
         offset="1"
         id="stop4017" />
    </linearGradient>
    <linearGradient
       inkscape:collect="always"
       id="linearGradient4094">
      <stop
         style="stop-color:#000000;stop-opacity:1;"
         offset="0"
         id="stop4096" />
      <stop
         style="stop-color:#000000;stop-opacity:0"
         offset="1"
         id="stop4098" />
    </linearGradient>
    <linearGradient
       inkscape:collect="always"
       xlink:href="#linearGradient4094"
       id="linearGradient3177"
       gradientUnits="userSpaceOnUse"
       gradientTransform="matrix(1.2264743,0,0,1.5354667,-27.632604,927.19198)"
       x1="60.357143"
       y1="81.35714"
       x2="76.124519"
       y2="67.516876" />
    <linearGradient
       inkscape:collect="always"
       xlink:href="#linearGradient3931"
       id="linearGradient3189"
       gradientUnits="userSpaceOnUse"
       gradientTransform="matrix(0.86498709,0,0,0.99577285,-5.8419436,18.674477)"
       x1="35.357143"
       y1="1036.2908"
       x2="30.714285"
       y2="1020.9336" />
    <linearGradient
       inkscape:collect="always"
       xlink:href="#linearGradient3931"
       id="linearGradient4055"
       gradientUnits="userSpaceOnUse"
       gradientTransform="matrix(0.86498709,0,0,0.99577285,-5.8419436,18.674477)"
       x1="35.357143"
       y1="1036.2908"
       x2="30.714285"
       y2="1020.9336" />
    <linearGradient
       inkscape:collect="always"
       xlink:href="#linearGradient3931"
       id="linearGradient4057"
       gradientUnits="userSpaceOnUse"
       x1="33.672955"
       y1="39.036621"
       x2="-8.9180574"
       y2="88.755615" />
    <linearGradient
       inkscape:collect="always"
       xlink:href="#linearGradient3923"
       id="linearGradient4059"
       gradientUnits="userSpaceOnUse"
       x1="88.388344"
       y1="49.532982"
       x2="70.934761"
       y2="59.497086" />
    <linearGradient
       inkscape:collect="always"
       xlink:href="#linearGradient4013"
       id="linearGradient4061"
       gradientUnits="userSpaceOnUse"
       gradientTransform="matrix(1.131579,0,0,1.0979383,-6.9191736,-101.41817)"
       x1="60.357143"
       y1="1028.7908"
       x2="42.491695"
       y2="1024.3391" />
    <linearGradient
       inkscape:collect="always"
       xlink:href="#linearGradient4094"
       id="linearGradient4063"
       gradientUnits="userSpaceOnUse"
       gradientTransform="matrix(1.2264743,0,0,1.5354667,-27.632604,927.19198)"
       x1="60.357143"
       y1="81.35714"
       x2="76.124519"
       y2="67.516876" />
    <linearGradient
       inkscape:collect="always"
       xlink:href="#linearGradient4094"
       id="linearGradient4067"
       gradientUnits="userSpaceOnUse"
       gradientTransform="matrix(1.2264743,0,0,1.5354667,-27.632604,927.19198)"
       x1="60.357143"
       y1="81.35714"
       x2="76.124519"
       y2="67.516876" />
    <linearGradient
       inkscape:collect="always"
       xlink:href="#linearGradient3931"
       id="linearGradient4079"
       gradientUnits="userSpaceOnUse"
       gradientTransform="matrix(0.86498709,0,0,0.99577285,-5.8419436,18.674477)"
       x1="35.357143"
       y1="1036.2908"
       x2="30.714285"
       y2="1020.9336" />
    <filter
       inkscape:collect="always"
       id="filter4134">
      <feGaussianBlur
         inkscape:collect="always"
         stdDeviation="0.35616654"
         id="feGaussianBlur4136" />
    </filter>
    <linearGradient
       inkscape:collect="always"
       xlink:href="#linearGradient3931"
       id="linearGradient4193"
       gradientUnits="userSpaceOnUse"
       gradientTransform="matrix(0.86498709,0,0,0.99577285,-5.8419436,18.674477)"
       x1="35.357143"
       y1="1036.2908"
       x2="30.714285"
       y2="1020.9336" />
    <linearGradient
       inkscape:collect="always"
       xlink:href="#linearGradient3931"
       id="linearGradient4195"
       gradientUnits="userSpaceOnUse"
       x1="33.672955"
       y1="39.036621"
       x2="-8.9180574"
       y2="88.755615" />
    <linearGradient
       inkscape:collect="always"
       xlink:href="#linearGradient3923"
       id="linearGradient4197"
       gradientUnits="userSpaceOnUse"
       x1="88.388344"
       y1="49.532982"
       x2="70.934761"
       y2="59.497086" />
    <linearGradient
       inkscape:collect="always"
       xlink:href="#linearGradient4013"
       id="linearGradient4199"
       gradientUnits="userSpaceOnUse"
       gradientTransform="matrix(1.131579,0,0,1.0979383,-6.9191736,-101.41817)"
       x1="60.357143"
       y1="1028.7908"
       x2="42.491695"
       y2="1024.3391" />
    <linearGradient
       inkscape:collect="always"
       xlink:href="#linearGradient4094"
       id="linearGradient4201"
       gradientUnits="userSpaceOnUse"
       gradientTransform="matrix(1.2264743,0,0,1.5354667,-27.632604,927.19198)"
       x1="60.357143"
       y1="81.35714"
       x2="76.124519"
       y2="67.516876" />
    <linearGradient
       inkscape:collect="always"
       xlink:href="#linearGradient4094"
       id="linearGradient4205"
       gradientUnits="userSpaceOnUse"
       gradientTransform="matrix(1.2264743,0,0,1.5354667,-27.632604,927.19198)"
       x1="60.357143"
       y1="81.35714"
       x2="76.124519"
       y2="67.516876" />
    <linearGradient
       inkscape:collect="always"
       xlink:href="#linearGradient3931"
       id="linearGradient4217"
       gradientUnits="userSpaceOnUse"
       gradientTransform="matrix(0.86498709,0,0,0.99577285,-5.8419436,18.674477)"
       x1="35.357143"
       y1="1036.2908"
       x2="30.714285"
       y2="1020.9336" />
    <filter
       inkscape:collect="always"
       id="filter4264"
       x="-0.093528337"
       width="1.1870567"
       y="-0.1216182"
       height="1.2432364">
      <feGaussianBlur
         inkscape:collect="always"
         stdDeviation="0.92139699"
         id="feGaussianBlur4266" />
    </filter>
  </defs>
  <sodipodi:namedview
     id="base"
     pagecolor="#ffffff"
     bordercolor="#666666"
     borderopacity="1.0"
     inkscape:pageopacity="0.0"
     inkscape:pageshadow="2"
     inkscape:zoom="7.9195959"
     inkscape:cx="24.418256"
     inkscape:cy="38.476029"
     inkscape:document-units="px"
     inkscape:current-layer="g5104"
     showgrid="false"
     inkscape:window-width="1440"
     inkscape:window-height="844"
     inkscape:window-x="-4"
     inkscape:window-y="-4"
     inkscape:window-maximized="1" />
  <metadata
     id="metadata3264">
    <rdf:RDF>
      <cc:Work
         rdf:about="">
        <dc:format>image/svg+xml</dc:format>
        <dc:type
           rdf:resource="http://purl.org/dc/dcmitype/StillImage" />
        <dc:title></dc:title>
      </cc:Work>
    </rdf:RDF>
  </metadata>
  <g
     inkscape:label="Livello 1"
     inkscape:groupmode="layer"
     id="layer1"
     transform="translate(0,-980.36218)">
    <g
       id="g5104">
      <g
         id="g4268">
        <g
           transform="matrix(0.86498709,0,0,0.99577285,-5.8419436,18.674477)"
           style="fill:#dae3e0;fill-opacity:1"
           id="g5083">
          <g
             style="fill:#dae3e0;fill-opacity:1"
             id="g4953"
             transform="matrix(0.95321087,0,0,0.98629948,7.4951656,116.7986)">
            <path
               transform="translate(0,956.36218)"
               inkscape:connector-curvature="0"
               id="path4439"
               d="m 4.5456865,-89.868068 24.7487375,-5.050763 22.728432,6.060915 28.284271,-5.555839 5.555839,67.175144 -30.304576,4.545687 -28.789348,-6.565992 -26.26396573,5.555839 z"
               style="fill:#dae3e0;fill-opacity:1;stroke:#d5d5d5;stroke-width:1px;stroke-linecap:butt;stroke-linejoin:miter;stroke-opacity:1" />
            <path
               transform="translate(0,956.36218)"
               inkscape:connector-curvature="0"
               id="path4441"
               d="m 27.779195,-95.423907 0,65.659915"
               style="fill:#dae3e0;fill-opacity:1;stroke:#d5d5d5;stroke-width:1px;stroke-linecap:butt;stroke-linejoin:miter;stroke-opacity:1" />
            <path
               transform="translate(0,956.36218)"
               inkscape:connector-curvature="0"
               id="path4443"
               d="m 52.022856,-89.362992 3.535534,66.670068"
               style="fill:#dae3e0;fill-opacity:1;stroke:#bdbdc2;stroke-width:1px;stroke-linecap:butt;stroke-linejoin:miter;stroke-opacity:0.41450776" />
          </g>
          <path
             style="fill:#dae3e0;fill-opacity:1;stroke:#008700;stroke-width:0.96961403px;stroke-linecap:butt;stroke-linejoin:miter;stroke-opacity:0.18652852"
             d="m 16.161161,974.90838 15.406215,-3.98525 0,35.36907 -17.813436,4.9816 z"
             id="path4958"
             inkscape:connector-curvature="0" />
          <path
             style="fill:#dae3e0;fill-opacity:1;stroke:#008700;stroke-width:0.96961403px;stroke-linecap:butt;stroke-linejoin:miter;stroke-opacity:0.18823529"
             d="m 11.847514,1014.7609 19.257768,-4.4834 -0.481445,16.9374 -19.257767,4.4834 z"
             id="path5007"
             inkscape:connector-curvature="0"
             sodipodi:nodetypes="ccccc" />
          <path
             style="fill:#dae3e0;fill-opacity:1;stroke:#008700;stroke-width:0.96961403px;stroke-linecap:butt;stroke-linejoin:miter;stroke-opacity:0.18823529"
             d="m 34.956836,970.42501 0.481444,7.97051 18.294879,6.97419 1.444332,-9.96313 z"
             id="path5009"
             inkscape:connector-curvature="0" />
          <path
             style="fill:#dae3e0;fill-opacity:1;stroke:#008700;stroke-width:0.96961403px;stroke-linecap:butt;stroke-linejoin:miter;stroke-opacity:0.18823529"
             d="m 35.919723,981.88261 16.369104,6.97419 -0.481445,20.4244 -17.33199,-2.9889 z"
             id="path5011"
             inkscape:connector-curvature="0" />
          <path
             style="fill:#dae3e0;fill-opacity:1;stroke:#008700;stroke-width:0.96961403px;stroke-linecap:butt;stroke-linejoin:miter;stroke-opacity:0.18823529"
             d="m 34.956836,1010.2775 16.369102,3.4871 -1.925777,16.9373 -14.924769,-3.9852 z"
             id="path5013"
             inkscape:connector-curvature="0" />
          <path
             style="fill:#dae3e0;fill-opacity:1;stroke:#008700;stroke-width:0.96961403px;stroke-linecap:butt;stroke-linejoin:miter;stroke-opacity:0.18823529"
             d="m 59.029045,974.90842 -0.962888,10.95945 23.109321,0 0,-13.94839 z"
             id="path5015"
             inkscape:connector-curvature="0" />
          <path
             style="fill:#dae3e0;fill-opacity:1;stroke:#008700;stroke-width:0.96961403px;stroke-linecap:butt;stroke-linejoin:miter;stroke-opacity:0.18823529"
             d="m 58.547601,990.35127 23.590766,-0.49815 0.962888,17.93358 -23.109322,3.9853 -4.814442,-1.4945 z"
             id="path5017"
             inkscape:connector-curvature="0" />
          <path
             style="fill:#dae3e0;fill-opacity:1;stroke:#008700;stroke-width:0.96961403px;stroke-linecap:butt;stroke-linejoin:miter;stroke-opacity:0.18823529"
             d="m 53.733159,1013.7646 6.258774,1.9927 -3.851553,4.9815 -0.481444,5.9779 1.444332,4.9816 4.332998,0.4981 -9.628884,-0.9963 z"
             id="path5019"
             inkscape:connector-curvature="0" />
          <path
             style="fill:#dae3e0;fill-opacity:1;stroke:#0000e2;stroke-width:0.96961403px;stroke-linecap:butt;stroke-linejoin:miter;stroke-opacity:0.19607843"
             d="m 60.473377,1015.7573 23.590766,-2.989 0.481444,16.4392 -24.07221,3.4871"
             id="path5021"
             inkscape:connector-curvature="0" />
        </g>
        <path
           inkscape:connector-curvature="0"
           id="path3081"
           d="m 4.831016,1037.4108 0,-7.6508 7.753079,-2.0719 c 4.264193,-1.1396 7.778313,-2.0333 7.809156,-1.9863 0.03085,0.047 -0.04336,3.5036 -0.164889,7.6812 l -0.220967,7.5956 -4.857661,1.3124 c -2.671715,0.722 -6.0863997,1.6407 -7.5881891,2.0416 l -2.7305289,0.7289 0,-7.6507 z"
           style="opacity:0.95;fill:#aee361;fill-opacity:1;stroke:#00c900;stroke-width:0.92807895;stroke-opacity:0.16062173" />
        <path
           inkscape:connector-curvature="0"
           id="path3083"
           d="m 31.592613,1021.504 c -3.663037,-0.73 -6.730463,-1.4227 -6.816504,-1.5395 -0.08604,-0.1168 0.09892,-4.852 0.411035,-10.5225 0.31211,-5.6707 0.578015,-10.68154 0.5909,-11.1352 0.01893,-0.66678 1.216521,-0.2472 6.24903,2.1894 3.424081,1.6579 6.345775,3.1606 6.492655,3.3396 0.146879,0.1789 0.146879,4.5261 0,9.6605 l -0.267053,9.335 -6.660063,-1.3273 z"
           style="opacity:0.95;fill:#aee361;fill-opacity:1;stroke:#00e900;stroke-width:0.92807895;stroke-opacity:0.16062173" />
        <path
           inkscape:connector-curvature="0"
           id="path3085"
           d="m 32.573178,995.63414 -6.99015,-3.1401 -0.310984,-3.19672 c -0.171043,-1.75818 -0.269341,-3.23514 -0.218443,-3.28211 0.151778,-0.14003 15.744155,4.31104 15.955958,4.55487 0.285578,0.32877 -0.848598,8.31959 -1.171975,8.25713 -0.150839,-0.029 -3.419822,-1.46601 -7.264406,-3.19307 z"
           style="opacity:0.95;fill:#aee361;fill-opacity:1;stroke:#00e900;stroke-width:0.92807895;stroke-opacity:0.16062173" />
        <path
           inkscape:connector-curvature="0"
           id="path3091"
           d="m 30.092237,1042.2507 -5.539134,-1.7742 0.246888,-7.3444 c 0.135788,-4.0395 0.271859,-7.3854 0.30238,-7.4352 0.05455,-0.089 12.662984,2.9167 12.766359,3.0434 0.03839,0.047 -1.424703,14.3462 -1.563341,15.2789 -0.02971,0.1998 -0.369355,0.1032 -6.213152,-1.7685 z"
           style="opacity:0.95;fill:#aee361;fill-opacity:1;stroke:#00e900;stroke-width:0.92807895;stroke-opacity:0.16062173" />
        <path
           inkscape:connector-curvature="0"
           id="path3093"
           d="m 39.785568,1044.0192 c 0.0021,-0.6226 0.295278,-3.9608 0.651531,-7.4184 0.356253,-3.4578 0.649443,-6.585 0.65153,-6.9494 0.0038,-0.6624 0.529908,-0.5779 2.981825,0.4785 l 1.012047,0.4361 -1.548096,2.1749 c -1.443659,2.0281 -1.552393,2.4268 -1.611796,5.9093 -0.03504,2.0539 0.152171,4.3567 0.416014,5.1174 0.468043,1.3496 0.442778,1.3831 -1.038568,1.3831 -1.284384,0 -1.517697,-0.1743 -1.514487,-1.1315 z"
           style="opacity:0.95;fill:#aee361;fill-opacity:1;stroke:#00e900;stroke-width:0.92807895;stroke-opacity:0.16062173" />
        <path
           inkscape:connector-curvature="0"
           id="path3095"
           d="m 44.621992,1023.3147 c -0.01897,-0.5302 0.08428,-0.8273 0.22946,-0.6602 0.145174,0.1672 0.160695,0.601 0.03449,0.9641 -0.139464,0.4011 -0.242987,0.282 -0.26395,-0.3039 z"
           style="opacity:0.95;fill:#aee361;fill-opacity:1;stroke:none" />
        <path
           inkscape:connector-curvature="0"
           id="path3097"
           d="m 43.604511,1024.6334 c -0.910886,-0.2109 -0.940247,-1.4141 -0.155925,-6.39 l 0.554925,-3.5206 0.337739,4.3188 c 0.395449,5.0568 0.293539,5.8302 -0.736739,5.5918 z"
           style="opacity:0.95;fill:#b0e064;fill-opacity:1;stroke:#00e900;stroke-width:0.92807895;stroke-opacity:0.16062173" />
        <path
           inkscape:connector-curvature="0"
           id="path3099"
           d="m 1.7648703,1049.7532 c -0.029145,-1.1996 3.1533435,-62.29605 3.2669735,-62.71847 0.078302,-0.29112 3.7513653,-1.38113 8.1623562,-2.42225 4.41099,-1.04113 8.365523,-2.00694 8.78785,-2.14626 0.727552,-0.24 0.761957,1.39033 0.655326,31.05298 l -0.112539,31.3064 -7.645479,1.915 c -4.205012,1.0532 -8.8742149,2.2357 -10.3760051,2.6275 -1.5017903,0.3919 -2.7341072,0.5651 -2.7384826,0.3851 l 0,0 z m 11.0112277,-5.3659 c 4.609555,-1.2498 8.423961,-2.3248 8.476456,-2.3889 0.0525,-0.064 0.163637,-4.1342 0.246979,-9.0442 0.102052,-6.0122 0.0018,-8.9274 -0.30733,-8.9273 -0.909448,5e-4 -16.8669285,4.4384 -17.1566402,4.7714 -0.5356475,0.6159 -0.6525406,17.8612 -0.1210676,17.8612 0.2643261,0 4.2520479,-1.0224 8.8616028,-2.2722 z m 1.557155,-20.6242 7.536257,-2.4141 0,-18.2755 c 0,-10.05164 -0.131645,-18.27567 -0.292546,-18.27567 -0.160898,0 -3.404766,0.9362 -7.208593,2.08048 -6.1959728,1.86384 -6.9160474,2.19184 -6.9160474,3.15021 0,1.59053 -1.6871765,31.34348 -1.9381325,34.17858 -0.1885457,2.1298 -0.1201966,2.4128 0.5332707,2.2066 0.4122446,-0.1301 4.1408502,-1.3228 8.2857912,-2.6506 z"
           style="opacity:0.95;fill:#f8fbf6;fill-opacity:1;stroke:none" />
        <path
           inkscape:connector-curvature="0"
           id="path3101"
           d="m 2.0532058,1049.7925 c -0.2082167,-0.3878 -0.1092195,-3.7723 0.363789,-12.4374 0.1359002,-2.4895 0.3382925,-6.2238 0.4497592,-8.2985 0.1114675,-2.0746 0.3016272,-5.5826 0.4225785,-7.7955 0.1998741,-3.6571 0.3354015,-6.2647 0.8886908,-17.1 0.098875,-1.9364 0.2878033,-6.01019 0.4198389,-9.05298 0.3431803,-7.9087 0.3798924,-8.03561 2.5476969,-8.80696 1.0097232,-0.3593 2.2290556,-0.71363 2.7096285,-0.7874 0.4805734,-0.0738 1.7584604,-0.38462 2.8397494,-0.69071 4.564141,-1.29206 5.358325,-1.48238 7.712114,-1.84813 l 1.814173,-0.28191 0.319487,4.41532 c 0.375498,5.18938 -0.172659,57.11977 -0.608525,57.64937 -0.163593,0.1989 -1.063825,0.5017 -2.000515,0.6731 -0.936689,0.1713 -2.161755,0.5123 -2.722367,0.7579 -0.560609,0.2453 -1.019291,0.3542 -1.019291,0.242 0,-0.1121 -0.638944,0.01 -1.419876,0.2721 -0.78093,0.2618 -1.911369,0.5831 -2.512085,0.7141 -1.072397,0.2339 -2.086216,0.489 -4.0411808,1.017 -0.5406452,0.1459 -1.769383,0.3978 -2.7305281,0.5596 -0.9611468,0.1618 -2.0796528,0.4956 -2.4855712,0.7418 -0.4059203,0.2461 -0.8323239,0.272 -0.9475661,0.057 z m 4.7454929,-3.8431 c 0.4815097,-0.1047 1.6610983,-0.4296 2.6213067,-0.7221 0.9602096,-0.2928 2.2373306,-0.6351 2.8380466,-0.761 0.600716,-0.126 2.79466,-0.725 4.875432,-1.3313 3.070751,-0.895 3.830676,-1.3062 4.035216,-2.1839 0.320596,-1.3755 0.344528,-16.9239 0.02605,-16.9239 -0.528895,0 -16.9987161,4.5978 -17.1747123,4.7947 -0.085606,0.097 -0.2603974,4.1732 -0.3884198,9.0611 l -0.2327665,8.8871 1.2621878,-0.3152 c 0.6942035,-0.1732 1.6561501,-0.401 2.1376598,-0.5055 z m 3.2332963,-20.7049 c 0.577818,-0.1427 1.413358,-0.4829 1.856758,-0.7561 0.443401,-0.2731 0.806184,-0.3811 0.806184,-0.2399 0,0.1412 0.540643,0.017 1.201431,-0.2785 1.180192,-0.5256 1.905799,-0.7524 3.999547,-1.2498 0.577817,-0.1373 1.36421,-0.443 1.747537,-0.6791 0.711153,-0.4381 1.017305,-0.5286 1.789173,-0.5286 0.283292,0 0.436885,-6.4657 0.436885,-18.3912 0,-17.27942 -0.04622,-18.37551 -0.764548,-18.13074 -0.420501,0.14328 -3.123724,0.93361 -6.007162,1.75629 -7.4168537,2.11613 -7.6295115,2.2317 -7.727437,4.19956 -0.045077,0.90585 -0.1198309,2.43913 -0.1661178,3.4073 -0.0814,1.70268 -0.4359154,7.83999 -0.8424985,14.58529 -0.1083774,1.798 -0.3188935,5.6447 -0.4678144,8.5483 -0.1489209,2.9035 -0.365266,5.4553 -0.4807694,5.6704 -0.1155042,0.215 -0.086588,1.0381 0.064252,1.8286 0.2627986,1.3774 0.341742,1.4183 1.8891302,0.9775 0.8881792,-0.2529 2.0876307,-0.5767 2.6654479,-0.7193 z"
           style="opacity:0.95;fill:#f8fbf6;fill-opacity:1;stroke:none" />
        <path
           inkscape:connector-curvature="0"
           id="path3103"
           d="m 1.9219331,1049.3991 c -0.261263,-0.7838 2.8044008,-60.68436 3.1604424,-61.75248 0.3189782,-0.95694 1.1227101,-1.39565 3.6806006,-2.00908 0.6007155,-0.14406 3.3988979,-0.84458 6.2181839,-1.55671 6.700525,-1.69248 7.308999,-1.68521 7.382746,0.0883 0.05174,1.24404 0.08987,1.20612 0.379373,-0.37721 0.177022,-0.96815 0.308197,12.38493 0.291498,29.67358 -0.01671,17.2886 -0.147872,28.7179 -0.291498,25.3985 l -0.261137,-6.0353 -0.08788,5.8798 c -0.04833,3.234 -0.277753,6.015 -0.509828,6.1802 -0.232076,0.165 -4.77039,1.3921 -10.085142,2.7266 -7.3818134,1.8535 -9.7137525,2.2747 -9.8773647,1.7838 l 0,0 z m 10.4172789,-5.0118 c 4.609557,-1.2498 8.492152,-2.3998 8.627992,-2.5557 0.135839,-0.1557 0.312785,-4.2569 0.393215,-9.1136 0.138441,-8.3597 0.103514,-8.8179 -0.655327,-8.5961 -0.44086,0.129 -4.361734,1.2124 -8.713054,2.4074 l -7.9114934,2.1731 -0.2778294,4.8293 c -0.3329085,5.7867 -0.3683787,13.1278 -0.063433,13.1278 0.1204055,0 3.990375,-1.0224 8.5999298,-2.2722 l 0,0 z m 4.506126,-21.5509 4.80573,-1.5753 0.115004,-17.6001 c 0.06326,-9.68006 0.02578,-17.86777 -0.08327,-18.19492 -0.141347,-0.42404 -2.111564,-0.0286 -6.862148,1.37711 -3.66513,1.08454 -6.7973502,2.14305 -6.9604887,2.35225 -0.2810745,0.3604 -2.1842763,31.50396 -2.1646377,35.42176 l 0.00925,1.8472 3.1674125,-1.0263 c 1.7420769,-0.5645 5.3299899,-1.7353 7.9731409,-2.6017 l 0,0 z"
           style="opacity:0.95;fill:#f8fbf6;fill-opacity:1;stroke:none" />
        <path
           inkscape:connector-curvature="0"
           id="path3105"
           d="m 1.9127663,1049.3717 c -0.1915143,-0.5746 1.9648709,-45.6949 2.770324,-57.96638 0.2743584,-4.18 0.2849365,-4.21001 1.7283387,-4.90429 1.6875377,-0.81172 13.243657,-3.71497 14.787047,-3.71497 1.853113,0 2.025666,2.85502 1.809912,29.94644 -0.190715,23.9471 -0.439096,31.2633 -1.087815,32.0422 -0.173318,0.2081 -4.695725,1.4781 -10.049793,2.8226 -7.6695452,1.9258 -9.78205,2.3021 -9.9580137,1.7744 l 0,0 z m 10.7821707,-5.1422 8.082362,-2.348 0.295279,-2.2631 c 0.162405,-1.2448 0.309853,-5.2774 0.327664,-8.9611 0.02971,-6.1457 -0.03064,-6.6779 -0.732164,-6.456 -0.420501,0.1331 -4.324072,1.1999 -8.674601,2.3709 l -7.9100512,2.1289 -0.2795452,5.5843 c -0.4417299,8.8245 -0.3660171,12.3804 0.2625869,12.333 0.3003592,-0.024 4.1831692,-1.0977 8.6284695,-2.3889 z m 1.747537,-20.6155 7.208594,-2.3701 0.114739,-17.9715 0.11474,-17.97163 -0.988509,0.002 c -1.628948,0.003 -12.230771,3.41674 -12.8025938,4.12213 -0.3495353,0.43116 -0.8490489,6.30662 -1.4666245,17.2509 -1.1333892,20.0852 -1.1277169,19.3706 -0.1534872,19.3357 0.4205017,-0.016 4.0084155,-1.094 7.9731415,-2.3976 z"
           style="opacity:0.95;fill:#f8fbf6;fill-opacity:1;stroke:none" />
        <path
           inkscape:connector-curvature="0"
           id="path3107"
           d="m 1.9232714,1049.4031 c -0.2017429,-0.6052 2.0149342,-47.2024 2.7710446,-58.25067 0.2688581,-3.92855 0.2810357,-3.96065 1.77541,-4.67945 1.7180426,-0.82638 13.115648,-3.68692 14.690259,-3.68692 1.848732,0 2.020178,2.39031 2.020178,28.16524 0,21.8442 -0.413325,32.6761 -1.290821,33.8279 -0.160395,0.2105 -4.309882,1.396 -9.221082,2.6344 -4.9112001,1.2384 -9.2855278,2.35 -9.720728,2.4701 -0.4351994,0.1201 -0.8961175,-0.096 -1.0242606,-0.4806 l 0,0 z m 11.4269916,-5.4068 7.427036,-2.1148 0.284456,-2.7661 c 0.403501,-3.9237 0.434483,-14.4863 0.0432,-14.7299 -0.180214,-0.112 -4.09261,0.8155 -8.694212,2.0613 l -8.3665488,2.2651 -0.3142958,8.2025 c -0.1728627,4.5114 -0.1967443,8.5552 -0.053075,8.9862 0.1751738,0.5256 0.5881983,0.6892 1.2538082,0.4971 0.5459211,-0.1578 4.3347496,-1.2384 8.4196194,-2.4014 z m 0.631138,-20.2739 c 3.97803,-1.2739 7.377221,-2.5753 7.553755,-2.8918 0.176536,-0.3165 0.323984,-8.4402 0.327664,-18.0526 0.0063,-16.39417 -0.04128,-17.47723 -0.767342,-17.47723 -0.851215,0 -10.398595,2.76975 -12.0718883,3.50213 -1.3492848,0.59056 -1.3837174,0.8593 -2.4511513,19.1302 -1.0185324,17.4338 -1.0313639,18.1059 -0.3457373,18.1059 0.2870548,0 3.7766699,-1.0426 7.7546999,-2.3166 l 0,0 z"
           style="opacity:0.95;fill:#f8fbf6;fill-opacity:1;stroke:none" />
        <path
           inkscape:connector-curvature="0"
           id="path3109"
           d="m 1.9219556,1049.3991 c -0.2106395,-0.6319 2.0960004,-49.42693 2.7652741,-58.49704 0.2685564,-3.63954 0.299127,-3.71558 1.7802213,-4.42798 1.7095855,-0.82231 13.112703,-3.68802 14.675246,-3.68802 1.897728,0 2.037753,1.94305 2.033881,28.22304 -0.0032,22.426 -0.383765,32.7769 -1.241028,33.7639 -0.185809,0.2138 -4.35609,1.4022 -9.26729,2.6406 -4.9112001,1.2384 -9.2855278,2.35 -9.720728,2.4701 -0.4351994,0.1201 -0.8967093,-0.098 -1.0255764,-0.4846 l 0,0 z m 10.8798404,-5.2619 c 4.263786,-1.1503 7.852232,-2.2774 7.974324,-2.5048 0.122092,-0.2273 0.350626,-4.1684 0.507854,-8.7579 0.283989,-8.2894 0.27973,-8.3443 -0.647537,-8.3443 -0.967324,0 -15.6819875,3.8763 -16.2507364,4.2809 -0.4100677,0.2919 -1.0495165,16.5956 -0.6780315,17.2875 0.1526586,0.2843 0.5170122,0.4299 0.8096753,0.3236 0.2926622,-0.1065 4.0206665,-1.1347 8.2844516,-2.285 z m 0.01312,-20.0788 c 8.461378,-2.6883 8.444291,-2.6793 8.774706,-4.5812 0.433927,-2.4977 0.316705,-32.82775 -0.130015,-33.64045 -0.335058,-0.60956 -1.366788,-0.43003 -6.655799,1.15817 -3.4426,1.03376 -6.4081165,2.05027 -6.5900343,2.25891 -0.414607,0.47552 -0.98322,7.50997 -1.840888,22.77397 -0.7911409,14.08 -0.7900106,14.0112 -0.2297629,14.0112 0.2410858,0 3.2433919,-0.8912 6.6717932,-1.9806 z"
           style="opacity:0.95;fill:#f8fbf6;fill-opacity:1;stroke:none" />
        <path
           inkscape:connector-curvature="0"
           id="path3111"
           d="m 1.93331,1049.5692 c -0.1469178,-0.2736 -0.1402855,-2.9074 0.014735,-5.8529 0.1550246,-2.9453 0.7646421,-15.0871 1.3547067,-26.9817 1.5294463,-30.83063 1.3897724,-29.31456 2.7763042,-30.13539 1.2690931,-0.75129 13.4129871,-3.81315 15.1236861,-3.81315 1.951047,0 2.057658,1.80901 1.863849,31.62644 -0.102976,15.8426 -0.35871,28.1077 -0.604205,28.978 -0.394435,1.398 -0.716591,1.5911 -4.391737,2.6322 -8.6399831,2.4473 -15.8739239,4.0373 -16.1373431,3.5465 l 0,0 z m 14.693586,-6.5476 4.150403,-1.2001 0.33638,-5.2508 c 0.18501,-2.8881 0.283308,-6.722 0.218443,-8.52 l -0.117939,-3.2691 -1.747538,0.1318 c -0.961145,0.072 -4.794806,0.9826 -8.519246,2.0225 l -6.7717101,1.8906 -0.3606142,7.7253 c -0.1983384,4.2488 -0.249351,8.2356 -0.1133616,8.8593 l 0.2472544,1.1342 4.2637634,-1.1618 c 2.3450691,-0.6391 6.1314451,-1.7019 8.4141651,-2.3619 z m -4.583015,-18.7488 c 9.169766,-2.8538 9.225092,-2.8863 9.549749,-5.6129 0.359911,-3.0229 0.358629,-29.73943 -0.0016,-31.81249 -0.256409,-1.47588 -0.38041,-1.57327 -1.638317,-1.2865 -2.334256,0.53215 -10.9666739,3.29308 -11.5141703,3.68261 -0.5898547,0.41968 -1.1127175,6.32021 -2.0795277,23.46758 -0.7593805,13.4683 -0.7559734,13.3279 -0.3233688,13.3279 0.1825637,0 2.8857859,-0.7949 6.0071598,-1.7662 z"
           style="opacity:0.95;fill:#f8fbf6;fill-opacity:1;stroke:none" />
        <path
           inkscape:connector-curvature="0"
           id="path3113"
           d="m 1.9073345,1049.3553 c -0.1346853,-0.404 0.4591079,-14.454 1.3195409,-31.2221 1.1582686,-22.57239 1.7138519,-30.65956 2.1399862,-31.15015 0.6360083,-0.73215 13.5088264,-4.19699 15.5930504,-4.19699 1.170018,0 1.365951,0.22721 1.801449,2.08907 0.678687,2.90154 0.370757,56.95317 -0.335185,58.83537 -0.444767,1.1859 -1.019777,1.4644 -5.44194,2.6358 -12.686905,3.3603 -14.8179838,3.7858 -15.0769015,3.009 l 0,0 z m 16.4670995,-6.8326 2.402865,-0.6993 0.387328,-8.1756 c 0.267846,-5.6537 0.244513,-8.34 -0.07564,-8.7086 -0.326038,-0.3753 -2.831128,0.096 -8.469692,1.5925 -4.4036968,1.169 -8.1230711,2.2065 -8.2652768,2.3057 -0.3381007,0.2357 -0.8794862,16.0936 -0.5800962,16.9918 0.2232251,0.6696 3.4453915,-0.06 14.600512,-3.3065 z m -5.104646,-18.6772 c 3.800321,-1.201 7.240786,-2.5648 7.645478,-3.0306 0.660858,-0.7606 0.735802,-2.5824 0.735802,-17.8869 0,-9.37207 -0.127742,-17.18726 -0.283872,-17.36709 -0.39229,-0.45185 -12.2342382,3.12141 -12.9023311,3.8932 -0.6158734,0.71149 -1.1390721,6.58098 -2.0937974,23.48919 -0.7762073,13.7465 -0.7594049,13.097 -0.3386195,13.0907 0.1802157,0 3.4370182,-0.9875 7.23734,-2.1885 z"
           style="opacity:0.95;fill:#f8fbf6;fill-opacity:1;stroke:none" />
        <path
           inkscape:connector-curvature="0"
           id="path3115"
           d="m 1.9152944,1049.3792 c -0.1301199,-0.3904 0.1888259,-9.3662 0.7087697,-19.9462 1.6718097,-34.019 2.1789544,-41.80084 2.7683876,-42.4794 0.6172343,-0.71055 13.5298863,-4.16754 15.5667633,-4.16754 1.13778,0 1.377253,0.25058 1.80246,1.88603 0.722482,2.77884 0.405764,57.80181 -0.34136,59.30381 -0.576389,1.1589 -2.411534,1.7552 -14.4144093,4.6845 -4.8717085,1.1888 -5.8937274,1.3095 -6.0906113,0.7188 l 0,0 z m 10.6654236,-5.249 c 4.027547,-1.1147 7.542057,-2.1897 7.810022,-2.3891 0.604308,-0.4495 1.232239,-15.6676 0.685401,-16.6108 -0.304934,-0.5259 -1.986706,-0.24 -8.422291,1.4322 -4.4227018,1.1492 -8.1343053,2.1933 -8.2480074,2.3202 -0.3201904,0.3574 -0.8463496,14.8666 -0.5853793,16.1423 0.1273297,0.6224 0.5028423,1.1316 0.8344755,1.1316 0.3316323,0 3.8982336,-0.9119 7.9257792,-2.0264 z m -0.01786,-20.1135 c 9.221218,-2.9201 8.583764,-2.3507 9.002119,-8.0421 0.450443,-6.128 0.155215,-29.54079 -0.380128,-30.1457 -0.555524,-0.6277 -12.0609769,2.79397 -12.7014046,3.77735 -0.7359737,1.13008 -0.7990748,1.91246 -2.58353,32.03195 -0.1433991,2.4205 -0.1397263,4.4008 0.0082,4.4008 0.147887,0 3.1425403,-0.91 6.6547846,-2.0223 l -10e-7,0 z"
           style="opacity:0.95;fill:#f8fbf6;fill-opacity:1;stroke:none" />
        <path
           inkscape:connector-curvature="0"
           id="path3117"
           d="m 1.9201975,1049.3939 c -0.2427943,-0.7283 0.6075722,-19.8618 2.0541952,-46.2196 0.6086592,-11.08998 1.0200608,-15.76251 1.4293162,-16.23365 0.6433557,-0.74064 13.3015481,-4.14627 15.4298081,-4.15134 1.097511,-0.003 1.470245,0.28406 1.891446,1.45467 0.758073,2.10686 0.472137,58.17032 -0.304648,59.73192 -0.576389,1.1589 -2.411534,1.7552 -14.4144093,4.6845 -4.8061091,1.1728 -5.8955007,1.3042 -6.0857082,0.7335 l 0,0 z m 10.7091315,-5.3629 c 6.264647,-1.7545 7.646584,-2.3033 7.916616,-3.1434 0.51992,-1.6175 0.939732,-14.5169 0.497899,-15.2989 -0.501905,-0.8881 -2.133187,-0.6493 -10.340958,1.5145 -7.364851,1.9416 -6.7456389,0.8563 -6.7456389,11.8236 0,5.4143 0.1359273,7.2298 0.5413017,7.2298 0.2977167,0 3.9565667,-0.9565 8.1307802,-2.1256 z m 6.582294,-22.3088 c 0.96314,-0.4436 1.842862,-1.1815 1.95494,-1.6398 0.478335,-1.9556 0.777689,-17.8588 0.484374,-25.7322 l -0.318388,-8.54649 -1.160175,0 c -1.15017,0 -5.812512,1.34667 -9.732953,2.81127 -1.1203897,0.41855 -2.1528614,1.10837 -2.2943808,1.53292 -0.5016103,1.50483 -2.5649074,34.749 -2.1989939,35.4306 0.224251,0.4178 10.4235097,-2.5472 13.2655767,-3.8563 l 0,0 z"
           style="opacity:0.95;fill:#f8fbf6;fill-opacity:1;stroke:none" />
        <path
           inkscape:connector-curvature="0"
           id="path3119"
           d="m 1.9198967,1049.393 c -0.2621852,-0.7866 0.2949895,-13.5612 1.8400945,-42.1884 0.7704027,-14.27387 1.2147886,-19.77018 1.6378247,-20.25716 0.6476717,-0.74561 13.2966811,-4.15304 15.4357011,-4.15813 2.437433,-0.006 2.435645,-0.0308 2.274441,31.81199 -0.116186,22.9507 -0.264403,29.0506 -0.721262,29.684 -0.58428,0.8101 -3.874068,1.811 -14.3807903,4.3751 -4.8102142,1.1738 -5.8953918,1.3045 -6.086009,0.7326 l 0,0 z m 10.2785103,-5.2631 c 3.997531,-1.1148 7.543684,-2.2242 7.88034,-2.4656 0.445621,-0.3196 0.702179,-2.2647 0.94329,-7.152 0.401222,-8.1325 0.238927,-9.4792 -1.14246,-9.4792 -0.553818,0 -3.625663,0.6878 -6.82632,1.5286 -3.2006569,0.8408 -6.3753998,1.6648 -7.0549831,1.831 -0.761915,0.1865 -1.389994,0.7699 -1.6383165,1.5219 -0.4581946,1.3873 -0.556338,15.3946 -0.1114531,15.9067 0.3937759,0.4534 -0.1773345,0.5748 7.9499027,-1.6914 z m 1.574362,-20.5472 c 3.744217,-1.218 6.346123,-2.346 6.911128,-2.9965 0.880039,-1.0131 0.906359,-1.5216 0.913332,-17.6463 0.004,-9.13172 -0.135213,-16.76706 -0.309251,-16.96742 -0.826632,-0.95161 -12.7833144,2.9049 -13.1407412,4.23842 -0.2658707,0.99194 -1.4041548,16.8066 -1.7823937,24.7634 -0.1380672,2.9045 -0.3572097,6.469 -0.4869811,7.9213 -0.2266367,2.5362 -0.1939928,2.6405 0.8269903,2.6405 0.5846183,0 3.7651807,-0.879 7.0679167,-1.9534 l 0,0 z"
           style="opacity:0.95;fill:#f8fbf6;fill-opacity:1;stroke:none" />
        <path
           inkscape:connector-curvature="0"
           id="path3121"
           d="m 1.9021522,1049.3397 c -0.5448431,-1.6344 2.7079317,-61.36617 3.3935791,-62.31723 0.4674965,-0.64848 3.9202481,-1.73374 10.3962677,-3.26775 5.661549,-1.34109 6.392097,-1.29186 7.027303,0.47353 0.783427,2.17734 0.470193,58.94425 -0.33138,60.05555 -0.54949,0.7617 -7.130144,2.7286 -16.1698536,4.8332 -3.4986565,0.8146 -4.1081678,0.846 -4.3159162,0.2227 l 0,0 z m 10.3220298,-5.229 c 4.376804,-1.2096 7.638206,-2.3716 7.978137,-2.8423 0.40168,-0.5565 0.619966,-3.0469 0.724237,-8.2626 0.128125,-6.4089 0.05263,-7.5087 -0.533167,-7.7675 -0.668655,-0.2952 -9.498348,1.6532 -13.3740654,2.9513 -2.7854782,0.933 -3.0479958,1.8105 -3.055636,10.2133 -0.00558,6.2049 0.1375187,7.7537 0.7167035,7.7537 0.077347,0 3.4720533,-0.9206 7.5437909,-2.0459 z m -0.797542,-19.8444 c 5.742545,-1.6757 9.04292,-3.1309 9.543448,-4.2075 0.397874,-0.8557 0.548922,-8.8001 0.491126,-25.83083 -0.03349,-9.8684 0.544499,-9.19517 -6.144971,-7.1574 -5.21813,1.58957 -6.4873,2.17796 -6.978914,3.23544 -0.5820011,1.2519 -2.7671673,33.95679 -2.3286797,34.85269 0.2734641,0.5589 0.6662124,0.4942 5.4179907,-0.8924 z"
           style="opacity:0.95;fill:#f8fbf6;fill-opacity:1;stroke:none" />
        <path
           inkscape:connector-curvature="0"
           id="path3123"
           d="m 1.9088323,1049.3598 c -0.2640496,-0.7921 0.8028718,-24.8787 2.0796609,-46.9498 0.6220285,-10.75275 1.0211695,-15.01573 1.4523916,-15.51215 0.6532367,-0.75201 10.4086312,-3.43522 14.2779102,-3.92714 2.393041,-0.30423 2.446246,-0.28288 2.977997,1.19498 0.414918,1.15315 0.509121,8.27329 0.403177,30.47291 -0.12071,25.2934 -0.223745,29.0665 -0.812228,29.7437 -0.603396,0.6942 -11.800633,3.9597 -17.8185992,5.1965 -1.8661231,0.3835 -2.3739641,0.3401 -2.5603095,-0.219 l 0,0 z m 10.1307767,-5.2494 c 8.318476,-2.2997 8.389199,-2.345 8.728096,-5.5806 0.154585,-1.476 0.219982,-5.0599 0.145328,-7.9644 l -0.135734,-5.2808 -1.965981,0.1444 c -3.108398,0.2286 -13.229573,3.0509 -13.9611993,3.893 -0.5144787,0.5923 -0.6995371,2.3926 -0.8263715,8.0394 -0.089884,4.0017 -0.047644,7.6234 0.093882,8.048 0.1662034,0.4987 0.6087728,0.6833 1.2498985,0.5215 0.5459212,-0.1376 3.5483578,-0.9569 6.6720813,-1.8205 z m 0.796184,-20.32 c 6.464464,-2.0396 7.951606,-2.8254 8.316894,-4.3953 0.147404,-0.6334 0.270691,-8.3445 0.273973,-17.1359 0.0051,-13.69299 -0.08724,-16.02529 -0.644284,-16.27137 -0.752874,-0.33258 -3.812105,0.43554 -8.654048,2.17289 -2.6350289,0.94549 -3.4939642,1.48752 -3.7932524,2.39373 -0.4753898,1.43942 -1.6703966,17.50785 -2.0498703,27.56325 -0.2404563,6.3716 -0.1883746,7.4184 0.369109,7.4184 0.3569882,0 3.1386531,-0.7856 6.1814787,-1.7457 z"
           style="opacity:0.95;fill:#f8fbf6;fill-opacity:1;stroke:none" />
        <path
           inkscape:connector-curvature="0"
           id="path3125"
           d="m 1.9342827,1049.4362 c -0.280961,-0.8429 0.2720951,-14.3882 1.6021736,-39.2399 1.1090825,-20.72248 1.2823334,-22.74891 2.0038589,-23.43827 0.7153426,-0.68346 10.7089388,-3.3464 14.2416358,-3.79492 2.421004,-0.30737 2.513875,-0.27454 2.94897,1.04289 0.500051,1.51409 0.575039,53.6064 0.08331,57.8701 -0.232019,2.0119 -0.505918,2.6264 -1.3816,3.0999 -0.600717,0.3247 -4.729274,1.519 -9.174574,2.6541 -4.4452993,1.135 -8.5290245,2.1787 -9.0749456,2.3193 -0.6427154,0.1654 -1.0829034,-0.016 -1.2488232,-0.5132 l 0,0 z m 10.5643853,-5.5279 c 3.616492,-1.0139 6.825428,-2.0212 7.130967,-2.2387 0.305539,-0.2173 0.733216,-1.2771 0.950393,-2.3548 0.528233,-2.6214 0.525752,-13.6411 -0.0031,-14.0174 -0.514327,-0.366 -10.500008,1.9233 -13.6589975,3.1314 -2.1602309,0.8262 -2.317571,1.0007 -2.6046978,2.891 -0.384103,2.5288 -0.4478084,12.9702 -0.08576,14.0563 0.1485985,0.4457 0.5909445,0.7126 0.9829894,0.593 0.3920458,-0.1197 3.671758,-1.0471 7.2882509,-2.0608 l 0,0 z m 0.438511,-20.1869 c 7.058355,-2.2649 7.865612,-2.7328 8.218597,-4.7647 0.434113,-2.4986 0.310574,-31.80993 -0.137507,-32.6253 -0.343671,-0.62541 -1.056356,-0.53863 -4.986747,0.60713 -6.648344,1.93809 -7.5354992,2.44227 -7.8655598,4.47004 -0.4321471,2.65497 -1.5415484,18.54403 -1.8648794,26.70913 -0.2502274,6.319 -0.1993481,7.4184 0.343319,7.4184 0.3503955,0 3.1821453,-0.8167 6.2927772,-1.8147 l 0,0 z"
           style="opacity:0.95;fill:#f8fbf6;fill-opacity:1;stroke:none" />
        <path
           inkscape:connector-curvature="0"
           id="path3127"
           d="m 1.9617065,1049.6222 c -0.3304821,-0.6156 -0.1458479,-5.7016 1.1391028,-31.3788 1.2110942,-24.20119 1.6903243,-30.56043 2.3628835,-31.35475 0.6344826,-0.74934 10.4093902,-3.42927 14.3182582,-3.92554 2.443058,-0.31018 2.510357,-0.28518 2.968623,1.1024 0.319869,0.96852 0.427936,10.64495 0.340022,30.44569 -0.119174,26.841 -0.186564,29.0993 -0.895238,30.0004 -0.421501,0.5359 -1.011294,0.9812 -1.310653,0.9895 -0.299361,0.01 -4.181354,0.955 -8.626653,2.1038 -4.4452998,1.149 -8.5126594,2.1992 -9.0385772,2.334 -0.5259196,0.1346 -1.0919143,-0.01 -1.2577683,-0.3167 l 0,0 z m 10.6655855,-5.767 c 3.206663,-0.918 6.274405,-2.0041 6.817205,-2.4135 0.698103,-0.5266 1.069481,-1.438 1.269076,-3.1145 0.444875,-3.7363 0.330549,-12.0313 -0.173827,-12.612 -0.294475,-0.339 -1.261662,-0.38 -2.730528,-0.1157 -3.321993,0.5977 -11.788291,2.9102 -12.481031,3.409 -0.869109,0.626 -1.3303208,4.1028 -1.3519129,10.1915 -0.023029,6.4927 0.118081,7.0552 1.6648387,6.6369 0.6357354,-0.172 3.7795168,-1.0636 6.9861792,-1.9817 l 0,0 z m -2.408011,-19.3473 c 5.725804,-1.65 9.183529,-3.0417 10.121133,-4.0736 0.838627,-0.9228 0.873769,-1.6173 0.873769,-17.2679 0,-11.22767 -0.150272,-16.47951 -0.482475,-16.86194 -0.352044,-0.40527 -1.700056,-0.20011 -4.986398,0.75889 -5.272097,1.53847 -6.8824784,2.39606 -7.3910741,3.93603 -0.7907537,2.3943 -2.6757625,34.53672 -2.025424,34.53672 0.1774317,0 1.9281434,-0.4627 3.8904691,-1.0282 l 0,0 z"
           style="opacity:0.95;fill:#f8fbf6;fill-opacity:1;stroke:none" />
        <path
           inkscape:connector-curvature="0"
           id="path3131"
           d="m 69.708357,1026.039 c -0.174777,-3.3488 -0.219478,-6.2017 -0.09934,-6.3402 0.120143,-0.1382 0.361441,2.4886 0.536219,5.8373 0.174778,3.3486 0.219478,6.2017 0.09934,6.34 -0.120144,0.1383 -0.361442,-2.4884 -0.53622,-5.8371 z"
           style="opacity:0.95;fill:#f8fbf6;fill-opacity:1;stroke:none" />
        <path
           inkscape:connector-curvature="0"
           id="path3135"
           d="m 46.622767,1044.5696 c -0.144045,-0.9252 -0.291347,-4.3862 -0.327337,-7.6913 l -0.06544,-6.0091 9.336317,-1.3869 c 5.134975,-0.7628 9.670512,-1.3969 10.078973,-1.4092 0.660701,-0.021 0.757124,0.8004 0.873769,7.4328 l 0.131113,7.4552 -8.519246,1.3943 c -4.685587,0.7668 -9.132824,1.5072 -9.882751,1.6453 -1.26216,0.2324 -1.382969,0.1261 -1.625402,-1.4311 z"
           style="opacity:0.95;fill:#dce1db;fill-opacity:1;stroke:none" />
        <path
           inkscape:connector-curvature="0"
           id="path3137"
           d="m 46.633808,1045.0784 c -0.140872,-0.6517 -0.288127,-4.1267 -0.327233,-7.7222 l -0.0711,-6.5373 9.920255,-1.4211 c 5.456141,-0.7816 9.98185,-1.3481 10.057132,-1.2584 0.07529,0.09 0.204473,3.4715 0.287091,7.5153 l 0.150216,7.3525 -8.300805,1.3487 c -4.565442,0.7418 -9.011493,1.4746 -9.880113,1.6282 -1.391156,0.2461 -1.609824,0.1382 -1.83544,-0.9057 z"
           style="opacity:0.95;fill:#dce1db;fill-opacity:1;stroke:none" />
        <path
           inkscape:connector-curvature="0"
           id="path3139"
           d="m 46.638932,1045.4773 c -0.143797,-0.4315 -0.292366,-3.9065 -0.330155,-7.7225 l -0.06871,-6.9378 9.913066,-1.426 c 5.452187,-0.7841 9.972357,-1.3499 10.044823,-1.2572 0.07247,0.093 0.214879,3.475 0.316478,7.5165 l 0.184725,7.3481 -8.325302,1.3532 c -4.578918,0.7441 -9.033643,1.4784 -9.899392,1.6315 -1.180392,0.2088 -1.63948,0.082 -1.835536,-0.5058 z"
           style="opacity:0.95;fill:#dce1db;fill-opacity:1;stroke:none" />
        <path
           inkscape:connector-curvature="0"
           id="path3141"
           d="m 46.621446,1045.4247 c -0.134178,-0.4025 -0.275693,-3.8539 -0.314478,-7.6699 l -0.07051,-6.9378 8.896204,-1.3447 c 4.892912,-0.7395 9.409742,-1.3618 10.037399,-1.3832 l 1.141193,-0.037 0.22661,7.4183 c 0.124636,4.0802 0.200893,7.4556 0.16946,7.501 -0.08368,0.121 -18.642721,3.1865 -19.291676,3.1865 -0.302629,0 -0.660015,-0.3293 -0.794195,-0.732 z"
           style="opacity:0.95;fill:#dce1db;fill-opacity:1;stroke:none" />
        <path
           inkscape:connector-curvature="0"
           id="path3955"
           d="m 2.1900788,1026.757 -1.54461937,24.5388 23.16929657,-5.6902"
           style="fill:url(#linearGradient4217);fill-opacity:1;stroke:#000000;stroke-width:0.92807895px;stroke-linecap:butt;stroke-linejoin:miter;stroke-opacity:0.11398962" />
        <g
           transform="matrix(0.86498709,0,0,0.99577285,-5.8419436,18.674477)"
           id="g4152">
          <path
             style="opacity:0.95;fill:#aee361;fill-opacity:0.85492231;stroke:#00b100;stroke-opacity:0.16062173"
             d="m 14.680739,51.644113 c 0.111986,-1.195563 0.650955,-8.97064 1.19771,-17.277947 0.546755,-8.307308 1.055684,-15.165781 1.130953,-15.241051 0.07527,-0.07527 3.262945,-0.924604 7.083722,-1.887411 l 6.946869,-1.750558 -0.132922,16.969538 -0.132921,16.969538 -6.807599,1.901307 c -10.40672,2.906514 -9.525591,2.876473 -9.285812,0.316584 z"
             id="path3079"
             inkscape:connector-curvature="0"
             transform="translate(0,956.36218)"
             sodipodi:nodetypes="sssscccss" />
          <path
             style="opacity:0.95;fill:#a2e061;fill-opacity:0.63461537;stroke:#00e900;stroke-opacity:0.16062173"
             d="m 59.070132,25.605508 c 0.160809,-1.875095 0.396794,-4.105677 0.52441,-4.956847 l 0.232029,-1.547583 8.959836,-1.150038 c 4.92791,-0.632521 9.584868,-1.271405 10.348795,-1.419741 l 1.38896,-0.269702 0,6.376588 0,6.376588 -10.873206,0 -10.873206,0 0.292382,-3.409265 z"
             id="path3087"
             inkscape:connector-curvature="0"
             transform="translate(0,956.36218)" />
          <path
             style="opacity:0.95;fill:#aee361;fill-opacity:1;stroke:#00e900;stroke-opacity:0.16062173"
             d="M 59.595476,49.574584 C 59.422358,46.739342 59.2307,42.260398 59.169568,39.621375 L 59.058421,34.82315 c 0,0 7.407455,-0.227425 11.111678,-0.323062 3.730511,-0.09632 11.148009,-0.291326 11.192414,-0.252538 0.172601,0.150767 1.019139,16.244428 0.864326,16.43183 -0.09036,0.109376 -4.544717,0.952966 -9.898583,1.874645 -5.353866,0.921679 -10.338138,1.788226 -11.07616,1.925662 l -1.341859,0.249882 z"
             id="path3089"
             inkscape:connector-curvature="0"
             transform="translate(0,956.36218)"
             sodipodi:nodetypes="sscascsscs" />
          <path
             style="opacity:0.95;fill:url(#linearGradient4195);fill-opacity:1;stroke:none"
             d="M 9.0103522,78.943674 C 8.605239,78.288186 8.960714,70.306551 10.604173,43.156909 12.210939,16.61343 12.225582,16.476666 13.548776,15.653979 14.841161,14.850447 25.398612,12.4449 29.526143,12.013488 c 2.928375,-0.306076 2.997874,-0.284147 3.529284,1.113566 0.369816,0.972688 0.494737,10.70021 0.393094,30.609913 -0.133462,26.142446 -0.234551,29.269646 -0.969931,30.004684 -0.487079,0.486858 -4.697894,1.693212 -10.354064,2.966333 -12.7787564,2.876318 -12.724013,2.866984 -13.1141738,2.23569 l 0,0 z m 9.2436008,-4.99773 c 8.054844,-1.870409 11.201516,-2.971632 11.826118,-4.138711 0.670739,-1.253286 1.246561,-11.749432 0.752558,-13.717696 -0.271238,-1.080699 -0.621915,-1.314388 -1.962138,-1.307558 -3.067795,0.01563 -15.194048,2.975315 -16.163889,3.945156 -0.761959,0.761958 -0.979864,2.051291 -1.225582,7.25168 -0.341697,7.231707 -0.07612,8.997899 1.352986,8.997899 0.539534,0 2.97851,-0.463847 5.419947,-1.03077 l 0,0 z m 3.988469,-21.250515 c 3.085724,-0.84294 6.30274,-1.953652 7.148925,-2.468248 1.460564,-0.888222 1.556449,-1.150883 1.892399,-5.183917 0.508059,-6.099176 0.107925,-28.998011 -0.517637,-29.623304 -0.878255,-0.877877 -12.661608,2.275877 -13.849018,3.706619 -0.301944,0.36382 -0.768794,2.453394 -1.037446,4.643497 -0.632991,5.16028 -2.02555,24.596249 -2.02555,28.270641 l 0,2.842454 1.388959,-0.327562 c 0.763928,-0.180159 3.913644,-1.01724 6.999368,-1.86018 l 0,0 z"
             id="path3129"
             inkscape:connector-curvature="0"
             transform="translate(0,956.36218)" />
          <path
             style="opacity:0.95;fill:url(#linearGradient4197);fill-opacity:1;stroke:none"
             d="m 61.143902,79.762655 c -0.671063,-1.748761 -0.333439,-2.682243 1.071245,-2.961843 0.763928,-0.152059 5.59372,-0.859261 10.732871,-1.57156 5.139151,-0.712299 9.987743,-1.423628 10.77465,-1.580737 l 1.430739,-0.285646 -0.168048,-8.495908 c -0.09243,-4.67275 -0.319773,-8.64718 -0.505215,-8.832066 -0.294486,-0.293605 -19.470108,1.841883 -23.31338,2.596287 -1.31778,0.25867 -1.41458,0.172221 -1.262691,-1.127663 l 0.1645,-1.40781 11.827189,-2.049983 11.827189,-2.049983 -0.134116,-3.788072 c -0.07376,-2.083439 -0.282101,-6.37668 -0.462972,-9.540536 l -0.328858,-5.752464 -11.995561,0.101434 -11.995561,0.101434 0,-1.546307 0,-1.546306 11.616754,0 11.616754,0 0,-7.576144 c 0,-5.725022 -0.15426,-7.575767 -0.631345,-7.574599 -0.34724,8.5e-4 -5.631601,0.682008 -11.743024,1.513683 C 63.5536,17.219542 58.51162,17.9007 58.460624,17.90155 c -0.051,8.5e-4 -0.187405,0.626577 -0.303131,1.390505 -0.157851,1.042012 -0.229176,0.884308 -0.285539,-0.631345 l -0.07513,-2.020305 12.752629,-2.588424 c 7.013946,-1.423633 12.778785,-2.560055 12.810752,-2.525381 0.03197,0.03467 1.123059,13.586459 2.424646,30.11508 1.301587,16.528621 2.490414,31.074817 2.641838,32.324881 l 0.275316,2.272843 -13.054025,1.968707 c -7.179714,1.082792 -13.308801,2.061812 -13.620195,2.175601 -0.311392,0.113793 -0.70914,-0.165681 -0.883883,-0.621057 l 0,0 z"
             id="path3133"
             inkscape:connector-curvature="0"
             transform="translate(0,956.36218)" />
          <path
             style="opacity:0.92576420000000004;fill:#c80000;fill-opacity:1;stroke:#c80000;stroke-opacity:0.45077719999999999;filter:url(#filter4264)"
             d="m 60.62813,75.064865 c -0.14172,-0.229309 -0.293196,-3.695395 -0.336612,-7.702413 -0.06269,-5.785552 0.06221,-7.31065 0.606672,-7.407706 1.628598,-0.290314 20.941729,-2.655702 21.683514,-2.655702 0.703944,0 0.860703,1.040963 1.119823,7.436221 0.165713,4.089923 0.257272,7.479715 0.203464,7.532872 -0.137327,0.135667 -21.552272,3.213653 -22.358841,3.213653 -0.36319,0 -0.776299,-0.187616 -0.91802,-0.416925 z"
             id="path3143"
             inkscape:connector-curvature="0"
             transform="translate(0,956.36218)"
             sodipodi:nodetypes="ssssssss" />
          <path
             style="fill:none;stroke:#000000;stroke-width:1px;stroke-linecap:butt;stroke-linejoin:miter;stroke-opacity:0.05699481"
             d="M 60.357142,81.357143 C 88.928571,76.714286 89.285714,77.071429 89.285714,77.071429"
             id="path3975"
             inkscape:connector-curvature="0"
             transform="translate(0,956.36218)" />
          <path
             style="opacity:0.65524603;fill:url(#linearGradient4199);fill-opacity:1;stroke:none"
             d="m 30.26128,961.86218 -0.404136,68.58902 30.714284,7.4823 -3.233082,-71.49873 z"
             id="path3977"
             inkscape:connector-curvature="0" />
        </g>
        <path
           inkscape:connector-curvature="0"
           id="path4084"
           d="m 44.203743,980.27525 2.190131,71.83795 27.157662,-4.9353"
           style="opacity:0.62295077;fill:url(#linearGradient4205);fill-opacity:1;stroke:none" />
        <path
           inkscape:connector-curvature="0"
           id="path4236"
           d="M 3.9195857,993.40186 1.7043956,1035.8958"
           style="fill:none;stroke:#e4e4e4;stroke-width:0.47062451;stroke-linecap:butt;stroke-linejoin:miter;stroke-miterlimit:4;stroke-opacity:1;stroke-dasharray:none" />
      </g>
    </g>
  </g>
</svg>
