<?xml version="1.0" encoding="UTF-8" standalone="no"?>
<!-- Created with Inkscape (http://www.inkscape.org/) -->

<svg
   xmlns:osb="http://www.openswatchbook.org/uri/2009/osb"
   xmlns:dc="http://purl.org/dc/elements/1.1/"
   xmlns:cc="http://creativecommons.org/ns#"
   xmlns:rdf="http://www.w3.org/1999/02/22-rdf-syntax-ns#"
   xmlns:svg="http://www.w3.org/2000/svg"
   xmlns="http://www.w3.org/2000/svg"
   xmlns:xlink="http://www.w3.org/1999/xlink"
   xmlns:sodipodi="http://sodipodi.sourceforge.net/DTD/sodipodi-0.dtd"
   xmlns:inkscape="http://www.inkscape.org/namespaces/inkscape"
   width="72"
   height="72"
   id="svg3259"
   version="1.1"
   inkscape:version="0.48.2 r9819"
   sodipodi:docname="MGRS.svg"
   inkscape:export-filename="C:\leonardo\cconv\ConvertitoreCoordinateLib\res\drawable-ldpi\mgrs.png"
   inkscape:export-xdpi="45"
   inkscape:export-ydpi="45">
  <defs
     id="defs3261">
    <linearGradient
       id="linearGradient4964"
       osb:paint="solid">
      <stop
         style="stop-color:#000000;stop-opacity:1;"
         offset="0"
         id="stop4966" />
    </linearGradient>
    <linearGradient
       inkscape:collect="always"
       id="linearGradient3883">
      <stop
         style="stop-color:#000e7a;stop-opacity:1;"
         offset="0"
         id="stop3885" />
      <stop
         style="stop-color:#000e7a;stop-opacity:0;"
         offset="1"
         id="stop3887" />
    </linearGradient>
    <radialGradient
       inkscape:collect="always"
       xlink:href="#linearGradient3883"
       id="radialGradient3077"
       gradientUnits="userSpaceOnUse"
       gradientTransform="matrix(1,0,0,0.96341457,0,-1.7171953)"
       cx="57.07362"
       cy="-46.936584"
       fx="57.07362"
       fy="-46.936584"
       r="42.43737" />
    <radialGradient
       inkscape:collect="always"
       xlink:href="#linearGradient3883"
       id="radialGradient3899"
       gradientUnits="userSpaceOnUse"
       gradientTransform="matrix(1,0,0,0.96341457,0,-1.7171953)"
       cx="57.07362"
       cy="-46.936584"
       fx="57.07362"
       fy="-46.936584"
       r="42.43737" />
    <radialGradient
       inkscape:collect="always"
       xlink:href="#linearGradient3883"
       id="radialGradient3957"
       gradientUnits="userSpaceOnUse"
       gradientTransform="matrix(1,0,0,0.96341457,0,-1.7171953)"
       cx="57.07362"
       cy="-46.936584"
       fx="57.07362"
       fy="-46.936584"
       r="42.43737" />
    <radialGradient
       inkscape:collect="always"
       xlink:href="#linearGradient3883"
       id="radialGradient4003"
       gradientUnits="userSpaceOnUse"
       gradientTransform="matrix(1,0,0,0.96341457,0,-1.7171953)"
       cx="57.07362"
       cy="-46.936584"
       fx="57.07362"
       fy="-46.936584"
       r="42.43737" />
    <radialGradient
       inkscape:collect="always"
       xlink:href="#linearGradient3883"
       id="radialGradient4020"
       gradientUnits="userSpaceOnUse"
       gradientTransform="matrix(1,0,0,0.96341457,0,-1.7171953)"
       cx="57.07362"
       cy="-46.936584"
       fx="57.07362"
       fy="-46.936584"
       r="42.43737" />
    <radialGradient
       inkscape:collect="always"
       xlink:href="#linearGradient3883"
       id="radialGradient3039"
       gradientUnits="userSpaceOnUse"
       gradientTransform="matrix(0.80324566,0,0,0.8102327,-9.6566696,1054.5962)"
       cx="57.07362"
       cy="-46.936584"
       fx="57.07362"
       fy="-46.936584"
       r="42.43737" />
    <radialGradient
       inkscape:collect="always"
       xlink:href="#linearGradient3883"
       id="radialGradient5953"
       gradientUnits="userSpaceOnUse"
       gradientTransform="matrix(0.80324566,0,0,0.8102327,-9.654132,1054.5012)"
       cx="57.07362"
       cy="-46.936584"
       fx="57.07362"
       fy="-46.936584"
       r="42.43737" />
    <linearGradient
       inkscape:collect="always"
       xlink:href="#linearGradient4964"
       id="linearGradient4968"
       x1="0.81614237"
       y1="934.34376"
       x2="77.504149"
       y2="934.34376"
       gradientUnits="userSpaceOnUse" />
  </defs>
  <sodipodi:namedview
     id="base"
     pagecolor="#ffffff"
     bordercolor="#666666"
     borderopacity="1.0"
     inkscape:pageopacity="0.0"
     inkscape:pageshadow="2"
     inkscape:zoom="3.7973644"
     inkscape:cx="66.324397"
     inkscape:cy="2.7105367"
     inkscape:document-units="px"
     inkscape:current-layer="layer1"
     showgrid="false"
     inkscape:window-width="1280"
     inkscape:window-height="962"
     inkscape:window-x="-8"
     inkscape:window-y="-8"
     inkscape:window-maximized="1" />
  <metadata
     id="metadata3264">
    <rdf:RDF>
      <cc:Work
         rdf:about="">
        <dc:format>image/svg+xml</dc:format>
        <dc:type
           rdf:resource="http://purl.org/dc/dcmitype/StillImage" />
        <dc:title></dc:title>
      </cc:Work>
    </rdf:RDF>
  </metadata>
  <g
     inkscape:label="Livello 1"
     inkscape:groupmode="layer"
     id="layer1"
     transform="translate(0,-980.36218)">
    <path
       id="path3004-1"
       d="m 71.719594,1016.4952 c 0,19.5948 -15.935494,35.4796 -35.592922,35.4796 -19.657429,0 -35.59292299,-15.8848 -35.59292299,-35.4796 0,-19.59478 15.93549399,-35.47951 35.59292299,-35.47951 19.657428,0 35.592922,15.88473 35.592922,35.47951 z"
       style="font-size:67.61712646px;font-style:normal;font-weight:normal;line-height:125%;letter-spacing:0px;word-spacing:0px;fill:#0f076e;fill-opacity:0.76683936;stroke:none;font-family:Sans"
       inkscape:connector-curvature="0" />
    <path
       id="path3004-7"
       d="m 69.566177,1016.4717 c 0,18.5488 -14.943021,33.5855 -33.376171,33.5855 -18.433151,0 -33.3761717,-15.0367 -33.3761717,-33.5855 0,-18.54876 14.9430207,-33.58552 33.3761717,-33.58552 18.43315,0 33.376171,15.03676 33.376171,33.58552 z"
       style="font-size:67.61712646px;font-style:normal;font-weight:normal;line-height:125%;letter-spacing:0px;word-spacing:0px;fill:#c9e2ff;fill-opacity:0.96891192;stroke:url(#radialGradient5953);stroke-width:0.82190663;font-family:Sans"
       inkscape:connector-curvature="0" />
    <path
       inkscape:connector-curvature="0"
       id="path3013"
       d="m 0.56764941,1017.8559 c 70.86470159,0 70.86470159,0 70.86470159,0"
       style="font-size:67.61712646px;font-style:normal;font-weight:normal;line-height:125%;letter-spacing:0px;word-spacing:0px;fill:none;stroke:#000e7a;stroke-width:1.24954247;stroke-linecap:butt;stroke-linejoin:miter;stroke-miterlimit:4;stroke-opacity:1;stroke-dasharray:none;font-family:Sans" />
    <path
       inkscape:connector-curvature="0"
       id="path3021"
       d="m 35.999999,981.3629 c 0,15.29131 0,24.3287 0,36.493 0,10.9273 0,32.7819 0,32.7819"
       style="font-size:67.61712646px;font-style:normal;font-weight:normal;line-height:125%;letter-spacing:0px;word-spacing:0px;fill:none;stroke:#000e7a;stroke-width:1.22675967;stroke-linecap:butt;stroke-linejoin:miter;stroke-miterlimit:4;stroke-opacity:0.84313725;stroke-dasharray:none;font-family:Sans"
       sodipodi:nodetypes="cac" />
    <path
       sodipodi:nodetypes="caaac"
       inkscape:connector-curvature="0"
       id="path3817-7"
       d="m 8.4384031,994.47876 c 3.8394579,2.28091 7.2001319,5.35984 11.5183739,6.84264 5.366138,1.8427 11.329254,2.3344 17.091779,2.281 5.782452,-0.054 11.677505,-0.8254 17.091778,-2.6068 3.798497,-1.24972 6.935796,-3.69286 10.403692,-5.5393"
       style="font-size:67.61712646px;font-style:normal;font-weight:normal;line-height:125%;letter-spacing:0px;word-spacing:0px;fill:none;stroke:#000e7a;stroke-width:1.26860702;stroke-linecap:butt;stroke-linejoin:miter;stroke-miterlimit:4;stroke-opacity:1;stroke-dasharray:none;font-family:Sans" />
    <path
       sodipodi:nodetypes="caaac"
       inkscape:connector-curvature="0"
       id="path3860"
       d="m 11.062463,1041.0693 c 0,0 5.902122,-3.9882 9.216031,-5.1569 4.868869,-1.7173 10.102396,-2.7604 15.254122,-2.5785 5.007198,0.1766 9.91066,1.8069 14.618533,3.5454 3.338627,1.233 9.533825,4.8347 9.533825,4.8347"
       style="font-size:67.61712646px;font-style:normal;font-weight:normal;line-height:125%;letter-spacing:0px;word-spacing:0px;fill:none;stroke:#000e7a;stroke-width:1.25583565;stroke-linecap:butt;stroke-linejoin:miter;stroke-miterlimit:4;stroke-opacity:1;stroke-dasharray:none;marker-end:none;font-family:Sans" />
    <path
       sodipodi:nodetypes="csssssc"
       inkscape:connector-curvature="0"
       id="path3863"
       d="m 36.321046,981.34465 c 0,0 -6.595773,0.86404 -8.937267,2.90326 -3.717737,3.23781 -4.77941,8.59509 -6.289188,13.22603 -2.038054,6.25126 -3.78552,12.79736 -3.64111,19.35516 0.138404,6.2851 1.887355,12.5583 4.303129,18.3873 2.31729,5.5915 4.210086,12.5211 9.599287,15.4842 1.537566,0.8454 5.296159,0 5.296159,0"
       style="font-size:67.61712646px;font-style:normal;font-weight:normal;line-height:125%;letter-spacing:0px;word-spacing:0px;fill:none;stroke:#000e7a;stroke-width:1.05535781;stroke-linecap:butt;stroke-linejoin:miter;stroke-miterlimit:4;stroke-opacity:1;stroke-dasharray:none;font-family:Sans" />
    <path
       sodipodi:nodetypes="csssssc"
       inkscape:connector-curvature="0"
       id="path3863-0"
       d="m 36.227891,981.31916 c 0,0 6.595773,0.86537 8.937273,2.90781 3.717731,3.2429 4.779404,8.60854 6.289188,13.24675 2.038054,6.26108 3.785518,12.81738 3.64111,19.38538 -0.138405,6.2949 -1.887359,12.578 -4.303129,18.4161 -2.317294,5.6002 -4.210089,12.5407 -9.599293,15.5084 -1.537565,0.8467 -5.296154,0 -5.296154,0"
       style="font-size:67.61712646px;font-style:normal;font-weight:normal;line-height:125%;letter-spacing:0px;word-spacing:0px;fill:none;stroke:#000e7a;stroke-width:1.05618346;stroke-linecap:butt;stroke-linejoin:miter;stroke-miterlimit:4;stroke-opacity:1;stroke-dasharray:none;marker-end:none;font-family:Sans" />
    <path
       sodipodi:nodetypes="caaac"
       inkscape:connector-curvature="0"
       id="path3860-8"
       d="m 7.4690726,1033.6251 c 0,0 6.9134314,-3.9429 10.7951684,-5.0983 5.703134,-1.6977 11.83341,-2.7289 17.867867,-2.5492 5.865166,0.1747 11.608821,1.7864 17.123372,3.5051 3.91069,1.219 11.167415,4.7797 11.167415,4.7797"
       style="font-size:67.61712646px;font-style:normal;font-weight:normal;line-height:125%;letter-spacing:0px;word-spacing:0px;fill:none;stroke:#000e7a;stroke-width:1.35142088;stroke-linecap:butt;stroke-linejoin:miter;stroke-miterlimit:4;stroke-opacity:1;stroke-dasharray:none;marker-end:none;font-family:Sans" />
    <path
       sodipodi:nodetypes="csssssc"
       inkscape:connector-curvature="0"
       id="path3863-8-7"
       d="m 37.507706,982.15359 c 0,0 8.723503,0.84948 11.820339,2.85407 4.91704,3.18308 6.321197,8.44965 8.318014,13.00216 2.69551,6.14538 5.00669,12.58058 4.815695,19.02738 -0.183051,6.1787 -2.496197,12.3456 -5.691276,18.0759 -3.064821,5.4969 -5.568214,12.3092 -12.695916,15.222 -2.033569,0.8311 -7.004646,0 -7.004646,0"
       style="font-size:67.61712646px;font-style:normal;font-weight:normal;line-height:125%;letter-spacing:0px;word-spacing:0px;fill:none;stroke:#000e7a;stroke-width:1.20338249;stroke-linecap:butt;stroke-linejoin:miter;stroke-miterlimit:4;stroke-opacity:1;stroke-dasharray:none;font-family:Sans" />
    <path
       sodipodi:nodetypes="csssssc"
       inkscape:connector-curvature="0"
       id="path3863-8-2-7"
       d="m 35.994768,980.85876 c 0,0 3.056111,0.86415 4.141027,2.90374 1.72259,3.23835 2.21451,8.59656 2.914057,13.2283 0.944319,6.2523 1.753997,12.7995 1.687085,19.3584 -0.06413,6.2862 -0.874494,12.5605 -1.993829,18.3905 -1.073701,5.5924 -1.950716,12.5233 -4.447769,15.4868 -0.712421,0.8456 -2.453943,0 -2.453943,0"
       style="font-size:67.61712646px;font-style:normal;font-weight:normal;line-height:125%;letter-spacing:0px;word-spacing:0px;fill:none;stroke:#000e7a;stroke-width:0.71843702;stroke-linecap:butt;stroke-linejoin:miter;stroke-miterlimit:4;stroke-opacity:1;stroke-dasharray:none;font-family:Sans" />
    <path
       sodipodi:nodetypes="csssssc"
       inkscape:connector-curvature="0"
       id="path3863-8-2"
       d="m 36.333101,981.04497 c 0,0 -3.056111,0.86355 -4.141027,2.9017 -1.72259,3.23609 -2.21451,8.59055 -2.914057,13.21905 -0.944319,6.24788 -1.753997,12.79058 -1.687085,19.34488 0.06413,6.2818 0.874494,12.5517 1.993829,18.3775 1.073701,5.5886 1.950716,12.5146 4.447769,15.4761 0.712421,0.845 2.453943,0 2.453943,0"
       style="font-size:67.61712645999999400px;font-style:normal;font-weight:normal;line-height:125%;letter-spacing:0px;word-spacing:0px;fill:#000000;stroke:#000e7a;stroke-width:0.71818559999999998;stroke-linecap:butt;stroke-linejoin:miter;stroke-miterlimit:4;stroke-opacity:1;stroke-dasharray:none;font-family:Sans;fill-opacity:0" />
    <path
       sodipodi:nodetypes="csssssc"
       inkscape:connector-curvature="0"
       id="path3863-8"
       d="m 33.598025,982.00381 c 0,0 -8.721191,0.84954 -11.817206,2.85453 -4.915736,3.18349 -6.319522,8.45086 -8.315809,13.00407 -2.694796,6.14629 -5.0053628,12.58259 -4.8144181,19.03029 0.1830022,6.1797 2.4955351,12.3476 5.6897671,18.0788 3.064009,5.4977 5.566738,12.311 12.692551,15.2243 2.03303,0.8312 7.002789,0 7.002789,0"
       style="font-size:67.61712646px;font-style:normal;font-weight:normal;line-height:125%;letter-spacing:0px;word-spacing:0px;fill:none;stroke:#000e7a;stroke-width:1.20331597;stroke-linecap:butt;stroke-linejoin:miter;stroke-miterlimit:4;stroke-opacity:1;stroke-dasharray:none;font-family:Sans" />
    <rect
       style="fill:#ffe680;fill-opacity:1;fill-rule:nonzero;stroke:#ff6600;stroke-width:1.74557436;stroke-linecap:round;stroke-linejoin:miter;stroke-miterlimit:4;stroke-opacity:1;stroke-dasharray:none"
       id="rect3855"
       width="72.047264"
       height="30.278851"
       x="-0.02363205"
       y="1001.2228" />
    <text
       xml:space="preserve"
       style="font-size:36.56620406999999800px;font-style:normal;font-weight:bold;line-height:125%;letter-spacing:0px;word-spacing:0px;fill:#00008f;fill-opacity:0.94117647;stroke:#3b408f;stroke-width:0.35899999999999999;stroke-linecap:round;stroke-linejoin:bevel;stroke-miterlimit:4;stroke-opacity:1;stroke-dasharray:none;font-family:Sans;-inkscape-font-specification:Sans Bold"
       x="-1.0682435"
       y="943.86316"
       id="text3035"
       sodipodi:linespacing="125%"
       transform="scale(0.91930201,1.0877818)"
       inkscape:export-xdpi="90"
       inkscape:export-ydpi="90"><tspan
         sodipodi:role="line"
         id="tspan3037"
         x="-1.0682435"
         y="943.86316"
         style="font-size:26.61532593000000100px;fill:#00008f;stroke:#3b408f;stroke-width:0.35899999999999999;stroke-linecap:round;stroke-linejoin:bevel;stroke-miterlimit:4;stroke-opacity:1;stroke-dasharray:none;fill-opacity:0.94117647">MGRS</tspan></text>
    <path
       sodipodi:nodetypes="caaac"
       inkscape:connector-curvature="0"
       id="path3817-7-3"
       d="m 15.079056,989.00584 c 2.982108,1.86784 5.592343,4.38918 8.946321,5.60345 4.16788,1.50895 8.799432,1.91161 13.275186,1.86788 4.491231,-0.0443 9.069919,-0.67593 13.275185,-2.13469 2.950293,-1.02339 5.387033,-3.02407 8.080548,-4.53613"
       style="font-size:67.61712646px;font-style:normal;font-weight:normal;line-height:125%;letter-spacing:0px;word-spacing:0px;fill:none;stroke:#000e7a;stroke-width:1.01173997;stroke-linecap:butt;stroke-linejoin:miter;stroke-miterlimit:4;stroke-opacity:1;stroke-dasharray:none;font-family:Sans" />
    <path
       sodipodi:nodetypes="caaac"
       inkscape:connector-curvature="0"
       id="path3860-6"
       d="m 17.582832,1045.6685 c 0,0 4.330218,-2.0876 6.761538,-2.6993 3.57215,-0.8989 7.411839,-1.4449 11.191512,-1.3497 3.673638,0.092 7.271168,0.9458 10.725199,1.8558 2.449455,0.6454 6.994694,2.5306 6.994694,2.5306"
       style="font-size:67.61712646px;font-style:normal;font-weight:normal;line-height:125%;letter-spacing:0px;word-spacing:0px;fill:none;stroke:#000e7a;stroke-width:0.77823949;stroke-linecap:butt;stroke-linejoin:miter;stroke-miterlimit:4;stroke-opacity:1;stroke-dasharray:none;marker-end:none;font-family:Sans" />
  </g>
</svg>
