<?xml version="1.0" encoding="UTF-8" standalone="no"?>
<!-- Created with Inkscape (http://www.inkscape.org/) -->

<svg
   xmlns:osb="http://www.openswatchbook.org/uri/2009/osb"
   xmlns:dc="http://purl.org/dc/elements/1.1/"
   xmlns:cc="http://creativecommons.org/ns#"
   xmlns:rdf="http://www.w3.org/1999/02/22-rdf-syntax-ns#"
   xmlns:svg="http://www.w3.org/2000/svg"
   xmlns="http://www.w3.org/2000/svg"
   xmlns:xlink="http://www.w3.org/1999/xlink"
   xmlns:sodipodi="http://sodipodi.sourceforge.net/DTD/sodipodi-0.dtd"
   xmlns:inkscape="http://www.inkscape.org/namespaces/inkscape"
   width="96"
   height="96"
   id="svg2985"
   version="1.1"
   inkscape:version="0.48.2 r9819"
   sodipodi:docname="rete.svg"
   inkscape:export-filename="D:\Progetti\iConv\ConvertitoreCoordinate\res\drawable-hdpi\rete.png"
   inkscape:export-xdpi="67.5"
   inkscape:export-ydpi="67.5">
  <defs
     id="defs2987">
    <linearGradient
       inkscape:collect="always"
       id="linearGradient3883">
      <stop
         style="stop-color:#000e7a;stop-opacity:1;"
         offset="0"
         id="stop3885" />
      <stop
         style="stop-color:#000e7a;stop-opacity:0;"
         offset="1"
         id="stop3887" />
    </linearGradient>
    <linearGradient
       id="linearGradient3834"
       osb:paint="gradient">
      <stop
         style="stop-color:#000000;stop-opacity:1;"
         offset="0"
         id="stop3836" />
      <stop
         style="stop-color:#000000;stop-opacity:0;"
         offset="1"
         id="stop3838" />
    </linearGradient>
    <radialGradient
       inkscape:collect="always"
       xlink:href="#linearGradient3883"
       id="radialGradient3889"
       cx="57.07362"
       cy="-46.936584"
       fx="57.07362"
       fy="-46.936584"
       r="42.43737"
       gradientTransform="matrix(1,0,0,0.96341457,0,-1.7171953)"
       gradientUnits="userSpaceOnUse" />
  </defs>
  <sodipodi:namedview
     id="base"
     pagecolor="#ffffff"
     bordercolor="#666666"
     borderopacity="1.0"
     inkscape:pageopacity="0.0"
     inkscape:pageshadow="2"
     inkscape:zoom="3.959798"
     inkscape:cx="57.176981"
     inkscape:cy="76.38981"
     inkscape:document-units="px"
     inkscape:current-layer="g3279"
     showgrid="false"
     objecttolerance="5"
     inkscape:window-width="1440"
     inkscape:window-height="844"
     inkscape:window-x="-4"
     inkscape:window-y="-4"
     inkscape:window-maximized="1"
     inkscape:snap-grids="true" />
  <metadata
     id="metadata2990">
    <rdf:RDF>
      <cc:Work
         rdf:about="">
        <dc:format>image/svg+xml</dc:format>
        <dc:type
           rdf:resource="http://purl.org/dc/dcmitype/StillImage" />
        <dc:title />
      </cc:Work>
    </rdf:RDF>
  </metadata>
  <g
     inkscape:label="Livello 1"
     inkscape:groupmode="layer"
     id="layer1"
     transform="translate(0,-956.36218)">
    <path
       sodipodi:type="arc"
       style="fill:#000080;fill-opacity:1;stroke:#2d2f42;stroke-opacity:0.84455961"
       id="path3882"
       sodipodi:cx="40.892857"
       sodipodi:cy="-87.39286"
       sodipodi:rx="18.392857"
       sodipodi:ry="4.1071429"
       d="m 59.285713,-87.39286 c 0,0.07842 -0.01006,0.156823 -0.03016,0.235114"
       transform="translate(0,956.36218)"
       sodipodi:start="0"
       sodipodi:end="0.057276609"
       sodipodi:open="true" />
    <g
       id="g3279"
       inkscape:export-filename="C:\Documents and Settings\tnocentini\Documenti\Immagini\iconv\36x36\rete.png"
       inkscape:export-xdpi="40.021618"
       inkscape:export-ydpi="40.021618">
      <g
         id="g6688">
        <path
           sodipodi:type="arc"
           style="fill:#0f076e;fill-opacity:0.76683939"
           id="path3004-1"
           sodipodi:cx="57.07362"
           sodipodi:cy="-46.936584"
           sodipodi:rx="41.551636"
           sodipodi:ry="39.935177"
           d="m 98.625256,-46.936584 c 0,22.055589 -18.603301,39.9351764 -41.551636,39.9351764 -22.948335,0 -41.551636,-17.8795874 -41.551636,-39.9351764 0,-22.05559 18.603301,-39.935177 41.551636,-39.935177 22.948335,0 41.551636,17.879587 41.551636,39.935177 z"
           transform="matrix(0.96604796,0,0,1.025974,-7.4929965,1052.5179)" />
        <path
           sodipodi:type="arc"
           style="fill:#c9e2ff;fill-opacity:0.96891194999999997;stroke:url(#radialGradient3889);"
           id="path3004-7"
           sodipodi:cx="57.07362"
           sodipodi:cy="-46.936584"
           sodipodi:rx="41.551636"
           sodipodi:ry="39.935177"
           d="m 98.625256,-46.936584 c 0,22.055589 -18.603301,39.9351764 -41.551636,39.9351764 -22.948335,0 -41.551636,-17.8795874 -41.551636,-39.9351764 0,-22.05559 18.603301,-39.935177 41.551636,-39.935177 22.948335,0 41.551636,17.879587 41.551636,39.935177 z"
           transform="matrix(0.90588185,0,0,0.971204,-3.9876711,1049.9201)" />
        <path
           style="opacity:1;fill:none;stroke:#000e7a;stroke-width:1.51740921000000010;stroke-linecap:butt;stroke-linejoin:miter;stroke-miterlimit:4;stroke-opacity:1;stroke-dasharray:none"
           d="m 2.2146067,1005.9336 c 90.4939363,0 90.4939363,0 90.4939363,0"
           id="path3013"
           inkscape:connector-curvature="0" />
        <path
           sodipodi:nodetypes="cac"
           style="opacity:1;fill:none;stroke:#000e7a;stroke-width:1.39999998000000000;stroke-linecap:butt;stroke-linejoin:miter;stroke-miterlimit:4;stroke-opacity:0.84313724999999984;stroke-dasharray:none"
           d="m 47.5,963.79075 c 0,17.65869 0,28.09524 0,42.14285 0,12.6191 0,37.8572 0,37.8572"
           id="path3021"
           inkscape:connector-curvature="0" />
        <path
           style="opacity:1;fill:none;stroke:#000e7a;stroke-width:1.89953946999999990;stroke-linecap:butt;stroke-linejoin:miter;stroke-miterlimit:4;stroke-opacity:1;stroke-dasharray:none"
           d="m 12.363785,973.10385 c 4.849969,4.04836 9.095144,9.51325 14.54991,12.14511 6.778455,3.27052 14.311013,4.14336 21.590186,4.04837 7.304342,-0.0954 14.75092,-1.46498 21.590185,-4.6267 4.798227,-2.2182 8.761235,-6.55452 13.141851,-9.83177"
           id="path3817-7"
           inkscape:connector-curvature="0"
           sodipodi:nodetypes="caaac" />
        <path
           style="opacity:1;fill:none;stroke:#000e7a;stroke-width:1.86456680000000000;stroke-linecap:butt;stroke-linejoin:miter;stroke-miterlimit:4;stroke-opacity:1;stroke-dasharray:none;marker-end:none"
           d="m 13.13731,1036.3278 c 0,0 8.185352,-6.3393 12.78124,-8.1971 6.752381,-2.7295 14.01049,-4.3876 21.155152,-4.0985 6.944226,0.2808 13.744583,2.8719 20.273689,5.6355 4.630167,1.9598 13.221969,7.6849 13.221969,7.6849"
           id="path3860"
           inkscape:connector-curvature="0"
           sodipodi:nodetypes="caaac" />
        <path
           style="fill:none;stroke:#000e7a;stroke-width:1.21115613000000000;stroke-linecap:butt;stroke-linejoin:miter;stroke-miterlimit:4;stroke-opacity:1;stroke-dasharray:none;opacity:1"
           d="m 48.032756,963.77465 c 0,0 -7.496463,1.00125 -10.157702,3.3643 -4.225414,3.752 -5.432065,9.96004 -7.148012,15.32638 -2.316362,7.24402 -4.302454,14.82968 -4.138325,22.42887 0.157304,7.2832 2.145085,14.5526 4.890747,21.3073 2.633729,6.4794 4.784997,14.5095 10.910124,17.9431 1.747529,0.9797 6.01938,0 6.01938,0"
           id="path3863"
           inkscape:connector-curvature="0"
           sodipodi:nodetypes="csssssc" />
        <path
           style="opacity:1;fill:none;stroke:#000e7a;stroke-width:1.20805705000000010;stroke-linecap:butt;stroke-linejoin:miter;stroke-miterlimit:4;stroke-opacity:1;stroke-dasharray:none;marker-end:none"
           d="m 47.757011,963.74023 c 0,0 7.43856,1.00386 10.07925,3.37318 4.19277,3.76189 5.3901,9.98625 7.0928,15.36675 2.29847,7.26312 4.26922,14.86872 4.10636,22.48784 -0.15609,7.3024 -2.12852,14.591 -4.85297,21.3634 -2.61339,6.4965 -4.74804,14.5477 -10.82586,17.9904 -1.73403,0.9822 -5.97288,0 -5.97288,0"
           id="path3863-0"
           inkscape:connector-curvature="0"
           sodipodi:nodetypes="csssssc" />
      </g>
    </g>
  </g>
</svg>
